<?xml version="1.0" encoding="UTF-8" standalone="no"?><!DOCTYPE svg PUBLIC "-//W3C//DTD SVG 1.1//EN" "http://www.w3.org/Graphics/SVG/1.1/DTD/svg11.dtd"><svg width="100%" height="100%" viewBox="0 0 2405 2405" version="1.1" xmlns="http://www.w3.org/2000/svg" xmlns:xlink="http://www.w3.org/1999/xlink" xml:space="preserve" xmlns:serif="http://www.serif.com/" style="fill-rule:evenodd;clip-rule:evenodd;stroke-linejoin:round;stroke-miterlimit:2;"><g><circle cx="1202.39" cy="1202.39" r="1202.39" style="fill:#fff;"/><circle cx="1202.39" cy="1202.39" r="1133.86"/><path d="M982.249,1422.53l-601.434,-0l-0,-440.281l601.434,0l0,-601.434l440.281,-0l-0,601.434l601.434,0l0,440.281l-601.434,-0l-0,601.434l-440.281,0l0,-601.434Z" style="fill:#fff;fill-opacity:0.75;"/><path d="M1202.39,1202.39l-547.716,146.761l-0,-293.521l547.716,146.76l-146.76,-547.716l293.521,-0l-146.761,547.716l547.717,-146.76l-0,293.521l-547.717,-146.761l146.761,547.717l-293.521,-0l146.76,-547.717Z" style="fill:#fff;fill-opacity:0.75;"/></g></svg>