<?xml version="1.0" encoding="UTF-8" standalone="no"?><!DOCTYPE svg PUBLIC "-//W3C//DTD SVG 1.1//EN" "http://www.w3.org/Graphics/SVG/1.1/DTD/svg11.dtd"><svg width="100%" height="100%" viewBox="0 0 2405 2405" version="1.1" xmlns="http://www.w3.org/2000/svg" xmlns:xlink="http://www.w3.org/1999/xlink" xml:space="preserve" xmlns:serif="http://www.serif.com/" style="fill-rule:evenodd;clip-rule:evenodd;stroke-linejoin:round;stroke-miterlimit:2;"><g><circle cx="1202.39" cy="1202.39" r="1202.39"/><circle cx="1202.39" cy="1202.39" r="1133.86" style="fill:#fff;"/><path d="M1202.39,2052.78l-736.474,-425.191l0,-850.406l736.474,-425.19l736.472,425.19l0,850.406l-736.472,425.191Zm-186.177,-992.184c0,30.658 22.898,46.754 49.612,46.754c74.027,-0 35.873,-101.171 133.516,-101.171c45.76,-0 73.326,24.525 73.326,65.914c0,75.113 -133.578,95.807 -133.578,187.016c0,24.527 16.016,51.353 48.811,51.353c50.337,-0 44.236,-37.557 62.54,-64.383c24.515,-36.023 138.147,-74.346 138.147,-173.986c0,-108.012 -96.091,-153.171 -193.823,-153.171c-93.066,-0 -178.551,66.591 -178.551,141.674Zm112.199,362.47c-0,34.455 28.219,62.785 62.539,62.785c34.32,-0 62.54,-28.33 62.54,-62.785c-0,-34.455 -28.22,-62.784 -62.54,-62.784c-34.32,-0 -62.539,28.329 -62.539,62.784Z" style="fill-opacity:0.75;"/><path d="M1141.8,1237.37l-675.877,390.218l0,-850.393l708.409,408.988c-15.04,14.589 -27.309,30.985 -32.532,51.187Zm60.585,-75.078l0,-156.072c43.934,1.071 70.278,25.416 70.278,65.878c0,38.865 -35.762,63.161 -70.278,90.194Zm0,-243.273l0.001,-567.021l736.472,425.19l-552.62,319.056c1.522,-7.629 2.345,-15.666 2.345,-24.146c0,-105.201 -91.155,-150.778 -186.198,-153.079Zm57.451,316.523l679.022,392.034l-736.462,425.209l0,-567.997c28.93,-5.46 51.091,-31.183 51.091,-61.717c-0,-30.533 -22.161,-56.256 -51.091,-61.716l0,-52.154c34.8,-6.761 31.722,-39.202 48.04,-63.117c2.365,-3.475 5.559,-6.971 9.4,-10.542Z" style="fill-opacity:0.75;"/></g></svg>