<?xml version="1.0" encoding="utf-8"?>
<!-- Generator: Adobe Illustrator 26.0.1, SVG Export Plug-In . SVG Version: 6.00 Build 0)  -->
<svg version="1.1" id="Camada_1" xmlns:serif="http://www.serif.com/"
	 xmlns="http://www.w3.org/2000/svg" xmlns:xlink="http://www.w3.org/1999/xlink" x="0px" y="0px" viewBox="0 0 788.7 1078.4"
	 style="enable-background:new 0 0 788.7 1078.4;" xml:space="preserve">
<style type="text/css">
	.st0{fill-rule:evenodd;clip-rule:evenodd;}
	.st1{fill-rule:evenodd;clip-rule:evenodd;fill:#FF8A75;}
	.st2{fill-rule:evenodd;clip-rule:evenodd;fill:#007CDA;}
	.st3{fill-rule:evenodd;clip-rule:evenodd;fill:#FFFFFF;}
	.st4{fill-rule:evenodd;clip-rule:evenodd;fill:#BE5B52;}
	.st5{fill-rule:evenodd;clip-rule:evenodd;fill:#EBEBEB;}
	.st6{fill-rule:evenodd;clip-rule:evenodd;fill:#2C2C2C;}
	.st7{fill-rule:evenodd;clip-rule:evenodd;fill:#E8B2A9;}
</style>
<g>
	<rect x="290.5" y="174.7" class="st0" width="96" height="111.9"/>
	<g>
		<path class="st0" d="M509.2,1077.6c-0.6-0.1-2.9-0.5-5.2-1c-2.3-0.5-5.1-0.9-6.2-0.9c-5.2,0-11.6-2.9-11.6-5.3
			c0-0.2-0.6-1.1-1.3-2c-0.7-0.9-1.5-2.5-1.8-3.5c-0.4-1.4-1.5-2.1-3.1-4.4c-3.2-5-3.2-5.4-5-7.5c-1.1-1.2-1.8-2.9-1.6-3.4
			c0.7-2.3,0.1-9.2,1-11c1.3-2.6,2.2-7.6,2.4-9.2c0.4-2.3,0.8-3.7,2.5-7.4c0.8-1.8,2.4-5.9,3.5-9c1.1-3.1,2.5-6.8,3.2-8.3
			c3.2-7.1,3.1-8.8-2-29.1c-1.5-5.8-3-12.2-3.5-14.3c-0.5-2-1.2-4.5-1.6-5.6c-1.2-2.9-3.4-11.8-5.1-20.7c-0.9-4.5-1.9-9.4-2.3-11
			c-0.6-2.6-4.6-24.7-5.8-32.2c-1.2-7.5-1.7-28.8-0.9-38.6c0.3-3.8,2.4-13.8,4.7-22.4c0.8-3.1,0.7-6.4-0.3-8.2c-1.2-2-2.6-6.1-3-8.8
			l-0.4-2.3l-1.5,0.5c-6.1,2.2-11.7,3.4-21.5,4.7c-3.1,0.4-7.5,1.2-9.7,1.8c-2.2,0.6-5.4,1.2-7,1.4c-1.6,0.2-6.5,1.1-10.7,1.9
			c-4.3,0.8-8.5,1.6-9.4,1.8c-2.2,0.3-3.5,2.3-3.9,5.8c-0.1,1.2-0.6,3-1.1,3.9c-3,6-2.7,19.2,0.6,27.4c0.8,2,1.5,5.4,2.8,13.1
			l1.8,10.4l0,9.3c0,8.7-0.6,16.3-1.4,17.4c-0.1,0.2-0.3,6.9-0.5,14.8c-0.7,42.1-0.9,48.5-1.5,53.5c-1.2,11.7-0.3,15.5,8.3,32.4
			c2.3,4.6,2.8,5.8,2.6,6.7c-0.2,1.2,1.5,5.3,2.9,6.8c3.3,3.5,4.2,18.1,1.4,22.8c-0.8,1.3-1.5,5.3-1.4,7.7c0,0.9-0.1,1.4-0.5,1.5
			c-0.3,0.1-0.8,0.7-1.1,1.3c-2.2,4.3-8.6,9.5-12.4,10.2c-2.4,0.4-3.9,2-17.8,2.4c-16.5,0.5-19.4,0.2-29.1-2.6
			c-4.3-1.3-4.6-1.4-6.9-3.4c-2.2-1.8-5.1-6.5-4.5-7.4c0.1-0.2,0.4-2.3,0.5-4.7c0.4-5.7,1-7.3,2.9-8.2c2.3-1.1,3-2.7,2-5
			c-2.3-5.2,0.1-15.7,4.8-20.9c0.6-0.7,1.6-2,2.3-2.9c0.7-1,1.9-2,3-2.6c2.5-1.4,2.3-1.6,2.3-2.1c0-0.4,0-1.4,1.1-4.1l1.5-3.7
			l-0.3-4.9c-0.1-2.7-0.5-8.2-0.8-12.3c-0.3-4.1-0.5-9.4-0.5-11.8c0-5.6-0.8-13.8-2.1-22.6c-0.6-3.8-1.3-9.8-1.6-13.4
			c-0.9-10.2-2.3-17.3-5.9-29.8c-3.2-11-3.7-13-4.3-17.4c-1.1-7.5-1.7-10.7-3.4-18.6c-1-4.7-2.1-10.8-2.6-15.1c-0.5-4-1.2-9-1.6-11
			c-0.6-2.9-0.7-5.3-0.8-10.9l-0.1-7.2l-4.6,0c-4.8,0-6.3-0.4-9-2.1c-0.7-0.4-1.6-0.8-1.9-0.9c-1.3-0.2-1.8-1.8-1.3-3.9
			c1.3-6,2.8-18.6,3.3-27.1c0.2-3.6,0.5-7.2,0.7-8.1c0.2-0.9,0.8-6.8,1.4-13.2c1.1-11.9,2.1-18,4.6-28c0.6-2.2,1.4-6.3,1.9-9
			c0.5-2.7,1.7-7.8,2.6-11.4c1.6-6.2,2.6-11.7,3.1-18.5c0.1-1.4,0-7.8-0.2-14.3c-0.2-6.5-0.4-12.8-0.4-13.9l0-2.1l-1.7-0.6
			c-1.7-0.6-3.9,0.9-4.5-1.7c-1.4-6.4,0.7-16.2,4-19c0.6-0.5,0.6-0.6-0.3-1.2c-6.1-4-13.8-16.7-15.8-26.2c-0.7-3.4-2.4-9.6-3.5-13.1
			c-1.3-4.3-3.2-13.3-4.9-23.4c-1.3-8-2.1-11.2-4.6-20.1c-1.7-5.8-4-15.3-5.3-21.1c-2.9-13.4-2.9-13.7-3.6-20.6
			c-0.6-6.3-0.6-6.3-2.8-13.8c-4.4-14.5-6.7-24.1-7.1-29c-0.2-3.2-1.4-10.2-1.7-10.8c-0.1-0.2-0.4-0.2-0.7-0.1
			c-0.3,0.1-1-0.3-1.5-0.8l-1-1l-0.1,2.8c-0.2,3.4-1.5,5.1-4.1,5.5l-1.4,0.2l0.2,2.2c0.5,5.5-4.3,8.3-9,5.1l-1.9-1.3l-0.4,1.2
			c-0.2,0.7-0.5,1.8-0.6,2.4c-1.3,7-5.8,15.5-11.7,22.2c-1.5,1.7-3.8,4.8-5,6.7c-1.2,1.9-3.2,4.9-4.6,6.6s-3.4,4.4-4.6,6
			c-5.3,7.2-12.5,14.8-19.3,20.5c-1.4,1.1-4.3,3.8-6.6,5.9c-4.8,4.6-7.2,6.4-11,8.4c-1.5,0.8-3.7,2.3-4.8,3.2
			c-1.1,1-3.9,2.7-6.3,3.9c-2.3,1.2-4.5,2.4-4.8,2.8c-1,1.1-3.7,3.1-5.7,4.1c-1,0.5-2.5,1.4-3.4,2c-6.3,4.3-7.1,4.5-12.5,4.5
			c-4.6,0-8.9-1.2-10.4-2.9c-0.4-0.4-1.2-1-1.9-1.4c-2.2-1.1-6.5-4.8-9.6-8.1c-8.7-9.5-8.1-8.8-17.5-23
			c-5.7-8.7-14.7-21.3-16.1-22.4c-0.3-0.2-0.5-0.6-0.5-0.8c0-0.6-11.6-15.5-12.3-15.7c-0.2-0.1-1.7,1-3.4,2.3c-3.2,2.4-6.1,4-7.4,4
			c-0.5,0-0.9,0.4-1.1,1c-0.4,1.2-1.7,1.6-3.2,1.3c-2.6-0.6-5.1-5-13.6-22.9c-9.1-19.3-8.8-17.8-4.6-22.8c4.7-5.6,8-8.4,14.4-12.1
			c1.4-0.8,1.6-0.3-1.4-6.6c-1.4-3-2.8-6.1-3.2-7.1c-1.1-2.9-4.1-8.4-6.2-11.7c-1.1-1.7-3.1-5.1-4.5-7.5l-2.5-4.4l-3-1.2
			c-11.8-4.6-15.7-6.2-17.3-7.2c-2.2-1.4-5.5-5.6-6.7-8.5c-0.5-1.3-1.1-2.1-1.9-2.6c-2.3-1.3-14.8-14.3-17.5-18.1
			c-1.4-2-3.4-4.6-4.5-5.8c-6.6-7.4-10.8-17.2-7.9-18.7c2.7-1.4,7.7-0.3,10.8,2.4c5.7,4.7,5.7,4.7,0.7-1.6c-1.8-2.3-4.1-5.5-5-7.2
			c-0.9-1.7-2.5-4.2-3.4-5.6c-5.1-7.6-9.2-19.1-7.4-20.9c3.3-3.3,9.3-1.6,14.5,4.2c6.7,7.4,7.7,8.7,10.6,13.2
			c2.4,3.9,6,8.6,8.5,11.3c1.2,1.3-8.1-17.6-11-22.4c-9.9-16.1-11.1-20.6-6.3-22c6.1-1.8,7.8-0.7,18.7,13.1c2.7,3.3,4.9,6.1,5,6.1
			c0.4,0-2.3-5-3.6-6.6c-2.2-2.9-3.4-6.7-2.6-8.2c0.9-1.8,6.2-3,8.6-2c1.8,0.8,6.7,5.5,8.5,8.4c1.5,2.4,2,3.3,7,14
			c1.4,3,3.4,6.8,4.5,8.5s2.4,4,3,5.1c0.6,1.1,1.7,3.2,2.5,4.7c0.8,1.5,1.6,3.2,1.8,3.8c1.1,3.3,3,5.8,5.6,7.2c2.4,1.4,4.1,3,5.1,5
			l0.5,1l0.7-1.4c0.4-0.8,1.3-2.1,1.9-3c1.1-1.4,1.2-1.9,1.5-4.5c0.5-5.9,2.2-12.4,5.7-21.1c1-2.6,2.1-5.7,2.5-6.9
			c0.9-3.2,2-4.9,3.8-5.8c3.5-1.7,7.7-0.1,9.2,3.6c1.5,3.7,1,27.4-0.7,33c-1.7,5.5-2.6,9.7-3.2,13.6c-0.3,2.1-1,5.5-1.5,7.5
			c-0.9,3.5-0.9,3.7-0.4,5.6c1,3.7,1.4,7.8,1.2,12.7l-0.2,4.7l1.4,3.2c0.8,1.8,2.7,6,4.2,9.3c3.4,7.2,5,10.9,5.8,13.8
			c0.3,1.2,0.6,2.2,0.7,2.2c0,0.1,2.1-1.3,4.6-3c9-6.2,12.6-7.1,14.1-3.3c0.4,1,1,1.6,2.4,2.5c2.7,1.7,6.7,5.5,8.7,8.4
			c0.9,1.4,2.4,3.4,3.2,4.6c2.8,4,6.2,10.7,6.8,13.5c0.5,2.4,0.7,2.6,1.8,3.1c3.1,1.3,2.7,4.2-1,6.9c-2.8,2.1-2.7,1.6-0.9,4.2
			c0.8,1.2,2.2,3.6,3.1,5.3c1.5,2.9,1.6,3.1,2.5,2.9c2.4-0.5,4.7,1,5.1,3.3l0.3,1.5l2.1,0.1c1.2,0.1,2.8,0.3,3.6,0.6
			c1.8,0.6,1.9,0.5,4.1-4.1c1.5-3.1,3.5-5.3,5.1-5.7c1.2-0.3,1.7-0.8,6.6-7.8c9.5-13.5,12.6-17.5,35-44.4
			c7.3-8.7,15.2-18.3,17.7-21.3c7.1-8.7,9.9-11.8,22.6-24.7c6.6-6.7,13.4-13.9,15.2-16c1.8-2.1,3.5-4,3.9-4.2
			c0.5-0.3,0.5-0.7-0.7-4.8c-0.7-2.4-1.4-5.4-1.5-6.5c-0.1-1.2-0.4-2.5-0.7-3.1c-0.8-1.5,0.3-3.4,2.3-4c0.5-0.1,2.2-1,3.9-1.9
			c3.7-2.1,9.6-4,14.4-4.7c2-0.3,5-0.8,6.7-1.1s5.5-0.8,8.6-1.2c3.1-0.4,7.3-1,9.3-1.3c2-0.3,5.7-0.6,8.1-0.8l4.4-0.2l-0.8-4.6
			c-0.4-2.5-1-5.7-1.2-7.1l-0.4-2.6l-2,1.1c-1.1,0.6-3.4,2.1-5.2,3.3c-6.9,4.7-19,9.3-23.6,8.9c-1.3-0.1-2.3,0-4,0.7
			c-5.6,2.1-6.4,0-1.4-3.7c1.6-1.2,3.1-2.6,3.4-3.2c0.5-1.2,3.1-3.6,6.9-6.5c2.7-2.1,6.6-6.1,11.4-11.8c1.4-1.6,3.3-3.8,4.3-4.9
			c1-1,2-2.3,2.2-2.8c0.3-0.5,0.6-1.2,0.8-1.5c0.2-0.3-0.1-0.1-0.7,0.5c-1.8,1.8-5.1,4.4-8.3,6.3c-1.7,1-4.7,3-6.8,4.4
			c-6.9,4.7-11.5,6.5-23,8.9c-6.8,1.4-23.1,2.3-24.8,1.4c-2.1-1.1-1.4-3.8,1.1-4.3c1.7-0.3,0.8-0.8-2.7-1.2c-3.7-0.5-6.6-1.5-8-2.8
			l-1-0.9l3.6,0.1c2,0,5.7,0.2,8.2,0.5c4.2,0.4,9.7,0.1,10.3-0.5c0.1-0.1-3.2-0.2-7.2-0.2c-11,0-23.2-1.9-28.2-4.3
			c-3.7-1.8-2.5-3.2,2.1-2.5c1.4,0.2,3.1,0.3,3.8,0.3c0.7-0.1,4.2-0.2,7.8-0.3c3.6-0.1,8.4-0.4,10.7-0.6c6.2-0.6,8.7-0.1,8.7,1.5
			c0,0.8-0.2,0.8,5.2-0.2c6-1.2,8.9-2,13.1-3.7c5.4-2.3,9.2-2.2,9.2,0.2c0,2.5-10,7.2-18.2,8.7c-2.5,0.4-2.5,0.5-1.8,1.1l0.8,0.6
			l-1,0.4c-0.5,0.2-1,0.6-1,0.9c0,0.3-0.4,0.9-0.9,1.4c-0.5,0.5-0.8,0.9-0.7,0.9c1.6,0,8.2-1,12.4-1.8c10.1-2,13-3,19.4-6.6
			c7.8-4.4,10.2-5.8,12.6-7.8c1.4-1.1,3.6-2.7,4.8-3.5c1.2-0.8,2.8-1.8,3.4-2.4s1.3-1,1.5-1c0.2,0,0.7-0.5,1.1-1.2
			c1.1-1.9,2.3-2.5,3.4-1.8c1.8,1.2,0.6,5.1-3.1,9.7c-1.2,1.5-3,3.9-4,5.5c-3.7,5.7-9.8,13-14,16.8c-1.8,1.6-3.9,3.5-4.7,4.3
			l-1.4,1.3l1.4-0.2c1.4-0.2,3.9-1.1,7.9-2.8c1.3-0.5,3.9-2,5.8-3.3c1.9-1.3,5.4-3.5,7.7-4.8c8.4-4.8,14.2-10.2,17.2-16.2l2-3.8
			l0.2-5.4l0.2-5.4l-1.8,0.2c-1.6,0.2-1.9,0.1-2.6-0.5c-1.3-1.3-0.6-2.8,3.5-8c1.8-2.3,2.1-2.8,2.3-4.6c0.1-1.1,0.4-2.7,0.6-3.6
			c0.4-1.9,0.6-1.8-2-1.4c-2,0.3-2.8,0.2-7.3-0.7c-2.3-0.5-2.7-1.8-0.6-1.8c0.6,0,1-0.2,1-0.4c0-0.2-0.3-0.4-0.7-0.4
			c-1.6,0-4-2-3.6-3c0.1-0.3-0.3-0.5-1.2-0.7c-3.1-0.5-4-1.4-1.9-1.8c2.6-0.4,3.6-1.3,3.1-2.8c-0.5-1.7-0.8-1.7-4.7-1.1
			c-6.1,1-9.8-0.1-9.1-2.8c0.2-0.7,0.6-1,1.5-1.3c1.4-0.4,2.3-1.3,2.7-2.7c0.3-0.9-0.8-1.5-2.8-1.5c-1.7,0-3.4-1.4-2.5-2
			c0.6-0.4,0.5-0.6-1.1-2c-4.6-4.1-9.4-16.4-8.9-22.6c0.2-2,1.5-5.2,2.7-6.5c0.4-0.5,1-1.3,1.2-1.9c0.2-0.6,1.7-2.4,3.2-4.2
			c2.7-3,2.8-3.1,5.6-4c5.6-1.8,13.3-0.7,18.7,2.6c0.9,0.6,2.2,1.2,2.8,1.3c0.6,0.1,1.5,0.6,2.1,1.1c0.5,0.5,1.1,0.8,1.3,0.8
			c0.3,0,0.8,1,2.6,4.9c0.4,0.8,1.1,1.9,1.5,2.4c0.4,0.5,1,1.3,1.3,1.8l0.6,1l-0.2-1.1c-0.1-0.6-0.7-1.8-1.2-2.6
			c-2.1-3.3-2-3.9,0.4-4.4c2.8-0.5,6.3,3.3,6.3,6.9c0,0.5,0.6,1,2,1.7c2.3,1.1,4,3.2,5.8,6.8l1.1,2.4l1.3-1.9
			c0.8-1.3,1.4-2.6,1.5-3.7c0.2-1.2,0.5-1.9,1-2.3c0.6-0.4,0.6-0.5,0.2-0.5c-0.8,0-1.7-1.2-1.7-2.2c0-1,1-2.1,1.8-2.1
			c0.8,0,5.6-2.4,5.6-2.8c0-0.4-4.1-4-6.7-5.9c-1.1-0.8-2.7-2.1-3.6-2.9c-1.5-1.4-1.9-1.5-3.5-1.5c-2.4,0-4.8-0.7-5.6-1.7
			c-0.8-1-0.8-0.7-0.1,0.7c0.6,1.2,0.5,2.1-0.3,2.1c-0.9,0-3-2.9-4.1-5.6c-1.3-3.1-3.1-5.7-4.8-6.7c-0.7-0.4-1.5-1.2-1.9-1.7l-0.7-1
			l1-0.7c1.2-0.9,7.8-4.2,9.6-4.8l1.2-0.4l-1.1-0.6c-0.6-0.3-1.8-1.1-2.6-1.7c-0.8-0.6-1.9-1.3-2.4-1.6c-2-1.3-2.3-2.5-0.8-4
			c0.5-0.5,1.1-1,1.2-1c0.1,0,0.7-0.2,1.2-0.4l0.9-0.4l-1.1-1.5c-4.2-5.8-4.4-6.1-6.6-7.1c-4.7-2.4-5.1-3.8-1.1-4.2
			c5.6-0.5,11.5-1.7,11.5-2.4c0-0.7-3-3.8-3.9-4.1c-0.6-0.2-1-0.7-1.2-1.3c-0.1-0.5-0.4-1.7-0.6-2.6c-0.7-3.2,1.1-5.7,5.1-7
			c1.2-0.4,2.5-1,3-1.3l0.8-0.6l-1.4-2.6c-3.7-7-4.3-8.4-3.9-9.7c0.6-1.8,1.5-2.1,4.1-1.4c1.6,0.4,2.4,0.5,3.1,0.2
			c0.5-0.2,1.9-0.5,2.9-0.7c3.9-0.7,6.4-1.7,6.4-2.5c0-1.1-1-4.6-1.8-6.4c-1.6-3.6-1.3-8.5,0.4-7.5c0.1,0.1,1.7-0.2,3.5-0.5
			c1.8-0.4,4.6-0.7,6.1-0.7c7.8-0.1,9.2-0.9,6.9-3.8c-2.8-3.6-3.8-9.7-1.7-11.1c0.9-0.6,1.9-0.1,4.7,2.7c3.4,3.3,5.7,4.8,8,5.2
			c0.8,0.2,2.4,0.7,3.4,1.2c3.3,1.5,3.6,1.5,4.9-0.1c2.2-2.6,3.4-4.1,4-5.3c0.9-1.8,1.6-2.5,2.5-2.5c0.4,0,0.9-0.2,1-0.5
			c0.3-0.8,1.4-0.6,2.3,0.4c0.5,0.5,1.3,1,1.8,1.1c1.4,0.3,2.6,1.3,4.1,3.5c4.1,5.8,10,5,10-1.3c0-4.9,3.6-4,4.1,1
			c0.2,1.6,0.3,2,1.4,2.7c0.7,0.4,1.2,0.9,1.2,1.1c0,0.6,5.5,5.9,6.6,6.5c1.7,0.8,3.6,2.8,4.7,5c0.6,1.1,1.4,2.3,1.9,2.6
			c0.5,0.3,0.9,0.8,0.9,1c0,0.2,0.3,0.9,0.7,1.4c0.9,1.3,1.9,1.2,4-0.6c3.8-3.1,6.9-4.3,8-3c2.5,2.7-1.8,12.1-5.5,12.1
			c-0.9,0-0.9,0-0.4,0.9c0.3,0.5,1,2.6,1.7,4.6l1.2,3.7l-0.1,7.1c-0.1,7.8,0.5,10.9,2.7,14.6c0.5,0.9,1.3,2.1,1.6,2.8
			c0.8,1.6,3,3.5,6.9,6.2c3.3,2.2,4.6,3,10.7,6.3c7.4,4,9.9,6,13.1,10.2c4.4,5.8,6.5,12.7,5.2,16.8c-0.3,1-0.7,2.5-0.8,3.3
			c-0.5,3.3-3.7,6.4-8.5,8.2c-4.1,1.5-4,1.4-4,3c0,1.4,0.1,1.5,0.8,1.2c3.5-1.2,6-0.3,7.5,2.7c2,3.9,0.2,7.9-4,9
			c-1.4,0.4-1.6,1.4-0.7,4.4c0.7,2.5-0.5,4.2-3.5,4.8c-1.4,0.3-2.6,0.8-3.3,1.4c-0.6,0.5-1.8,1.3-2.6,1.8l-1.5,0.8v3.1
			c0,3.4,0.1,3.6,2,3.6c0.5,0,1.2,0.2,1.7,0.5c0.7,0.5,1,0.5,2.4,0c1.4-0.4,1.7-0.4,2.3,0c0.3,0.3,1.3,0.7,2,0.9
			c5.5,1.5,6.1,9.1,1.1,13.9c-3.1,2.9-7.8,8.2-8.4,9.5c-0.8,1.6-2.7,12.4-2.9,16.4c-0.2,3.5-0.8,5.1-2,5.5c-0.4,0.1-1.5,0.8-2.4,1.4
			c-2.7,1.9-7.1,4-10.2,4.7c-1.6,0.4-6.1,1.8-9.9,3c-7.7,2.5-17.5,4.4-22.8,4.4h-2.8l-0.9,2.4c-0.5,1.3-1.6,4-2.5,6.1
			c-1.4,3.1-3.4,9-3.4,9.9c0,0.4,1.7-0.1,6.7-1.7c10.2-3.4,18.6-6.1,20.6-6.5c11-2.7,10.6-2.6,16.4-2.7c5.3,0,6.2,0.2,9.1,2
			c1.2,0.8,2.1,1.1,2.3,0.9c2.7-2,3.8-2.3,6.9-1.7c2.7,0.5,3.5,0.9,4.6,2.3l0.9,1l3-2.6c4.4-3.9,8.9-5.5,11.2-4
			c0.3,0.2,1.1-0.1,2.5-1c3-2,4.2-2.5,6.5-2.7c3.6-0.3,22.6-12.2,32-19.9c7.1-5.9,22.5-16.4,32.1-22c7.3-4.2,13.8-8.8,19.4-13.6
			c1.3-1.1,3.3-2.7,4.5-3.5c1.9-1.3,2.1-1.6,2.1-2.7c0-3.2,4.2-9.1,9-12.6c1.4-1,3.4-2.9,4.6-4.2c5.8-6.5,19.4-19.8,21.1-20.7
			c3.6-1.7,9.7-1.1,13.2,1.5c1.4,1,1.6,0.9,5.8-2.7c2.1-1.8,5.4-4.6,7.3-6.2c3-2.4,3.5-3,3.8-4.3c0.5-2,2.5-5.7,5.1-9.6
			c1.2-1.7,2.5-3.9,3-4.7c1.4-2.7,3.3-5.4,5.5-7.8c2-2.2,4.7-5.6,10.9-13.7c1.5-2,3.8-4.9,5-6.3c1.2-1.5,2.6-3.4,3.1-4.4
			c1.3-2.5,2-2.7,9.4-2.7c3.3,0,6.9,0.2,7.9,0.3c5.7,1.1,5.9,1,10.4-2.8c1.1-0.9,3.2-2.6,4.8-3.7c1.5-1.1,4.1-3.3,5.6-4.8
			c1.6-1.5,3.9-3.6,5.1-4.6c1.3-1,3.2-2.7,4.3-3.7c1.1-1,4.4-3.6,7.3-5.9c2.9-2.2,6.4-5.2,7.9-6.5c6.1-5.7,12-9.6,14.3-9.6
			c4.7,0,5.3,4.1,1.7,12.4c-3.9,9-7.8,14-15.7,20.2c-1.2,1-3.5,3.2-5.1,4.9c-2.5,2.8-8.7,8.4-13,11.7c-0.8,0.6-2.2,1.7-3,2.4
			l-1.5,1.3l1.4,0.4c2.1,0.7,9.6,4.4,10.4,5.1c1,1,0.9,4.2-0.2,7.8c-0.1,0.5,0,0.6,0.9,0.6c2.6,0,5.6,4.9,5.2,8.6
			c-0.4,4.7-2,7.2-5.7,9.3c-1.3,0.7-2.9,2-3.8,3c-1.8,2.2-8.8,7.4-11.3,8.5c-3.7,1.6-8.7,2.6-17.4,3.4c-4.4,0.4-4.6,0.5-8.7,4.7
			c-2.8,2.8-8.8,7.6-9.6,7.6c-0.3,0-2.3,1.9-4.4,4.1c-2.2,2.3-5.6,5.8-7.7,7.9l-3.8,3.7l1.7,1.4c5.6,4.6,7.8,6.1,2.1,16.2
			c-1.9,3.4-25.4,31.1-29.5,33.8c-1.8,1.2-5.2,3.8-7.4,5.6c-7.4,6.2-9.2,7.2-13.5,7.8c-6.1,0.8-9.1-0.2-13.7-4.4l-2.4-2.2l-1.3,1
			c-0.7,0.6-2.3,1.6-3.4,2.4c-3,1.9-6,4.6-7.9,7.1c-3.2,4.3-10.5,11.3-24.9,24.1c-9.2,8.2-18.1,17.5-24.1,25.1
			c-1,1.3-5.3,5.4-9.5,9.2c-4.2,3.7-10.1,9.3-13.1,12.4c-3,3.1-7.4,7.2-9.9,9.1c-17.6,14.2-32.5,34.6-34.5,47.3
			c-0.2,1-0.5,2.6-0.8,3.5c-0.3,1-0.7,2.2-0.8,2.8c-0.3,1,0.2,4,1.5,8.8c0.6,2.4,2.5,12.5,3.1,17.3c0.7,5.1,2.8,14.6,4.1,18.5
			c0.6,1.7,1.2,4.5,1.4,6.5c0.5,4.6,1.1,7.6,2.6,12.3c1.3,4.3,2.1,9.8,2.7,18.5c0.2,3,0.7,8.2,1.2,11.6s1.3,9.3,1.8,13.2
			c1.5,11.5,3.6,23.6,5.3,29.9c1.9,7.2,2.8,15.7,2.8,25.5l0,6.2l-1.5,3.5c-2.5,5.7-2.6,5.9-4.5,7.8c-2.9,2.9-2.4,3.5,2.9,4.2
			c3.2,0.4,5.8,3.1,6.9,7.1c0.2,0.8,0.8,2.3,1.3,3.5c1.4,3.2,0.7,7.1-1.5,8.5c-0.7,0.4-7.9,1.5-10.4,1.6c-0.8,0-0.3,4.2,0.8,6.4
			c1.9,3.7,5.8,10,8.4,13.7c4.7,6.6,9.3,16.6,12.4,27.4c0.9,3,2.1,6.7,2.6,8.2c1.3,3.6,1.9,5.6,3.2,11.4c0.7,3.1,1.7,6.6,3,9.7
			c2.3,5.8,2.2,5.6,4.4,16c2.5,11.8,4.5,20.9,5.3,23.9c0.4,1.5,1.2,5.4,1.8,8.8c0.6,3.4,1.4,8,1.8,10.2c0.6,3.2,0.7,5.5,0.7,10.9
			c0,5.3,0.1,7,0.5,7.6c1.1,1.6,0.2,5.1-1.6,6.4c-1.4,1.1-9.3,2.6-19.8,3.8c-4.6,0.5-9.9,1.2-11.8,1.4c-1.9,0.3-3.6,0.5-3.8,0.5
			c-0.1,0,0.2,1.1,0.6,2.5c1.6,4.7,2,15.4,0.8,22.9c-0.8,5.2-1.4,14.3-1.4,23.2c0,3.6-0.2,8.6-0.5,11.3s-0.7,6.5-0.9,8.5
			c-1,9.7-4.1,32.6-5.3,39c-6.4,33.7-8.3,66.2-4.4,79c0.3,0.9,0.5,1.9,0.5,2.3c0,2,8,11,11.2,12.6c5.1,2.5,8.2,6.7,11.4,15.6
			c1,2.6,1,3.1,1,7.5c-0.1,5.2-0.2,4.7,2.9,9c1,1.3,1.9,2.4,2,2.4c1.7,0,4.1,4.7,4.7,9.4c0.3,2.1,0.7,4.3,0.9,4.8
			c1.9,5.8-1.2,11.5-6.3,11.5c-1.3,0-3,0.7-3.4,1.3c-1,1.5-3.3,1.9-11.3,2.1c-4.3,0.1-10.5,0.2-13.9,0.3
			C513,1077.7,509.8,1077.7,509.2,1077.6L509.2,1077.6L509.2,1077.6z M239.6,305.8c-0.4-0.7,1.4-1.7,3.7-2.1
			c13.3-2.3,17.5-3.2,20.7-4.1c6.5-1.9,24.4-9.7,24.4-10.6c0-0.3-2.2,0.3-7.4,2c-7.1,2.4-13,4.1-16,4.7c-9.2,1.8-24.6,1.9-26.9,0.3
			c-0.6-0.4-1.6-0.8-2.2-0.8c-1.1,0-1.7-0.7-1-1.4c0.2-0.2,0.9-0.4,1.5-0.4c1.7,0,6.5-1.8,9.1-3.5l2.4-1.5l-3.1-1
			c-1.7-0.5-5-1.6-7.3-2.2c-11-3.3-12.4-6.4-3.2-7.1c6.1-0.5,14.1-3.5,17.5-6.5l1.3-1.2l-3.6,0.2c-2,0.1-5.1,0.4-6.9,0.7
			c-14.2,2.2-24.2,0.4-29.5-5.2c-3.3-3.6-3.6-3.5,17.6-3.6c18.4-0.1,20.3,0.1,18.5,1.2c-1.7,1.1-3.5,1.2-17.4,1.2h-14l2.4,1.1
			c4.6,2.2,13.3,2.8,19.8,1.5c0.9-0.2,4.4-0.5,7.8-0.7c3.4-0.2,7.9-0.5,10-0.8c3.9-0.4,18.8,0.1,24,0.8c2.1,0.3,2.2,0.3,7.2-1.8
			c7.4-3,11.3-3.4,11.6-1.1c0.2,1.2-1.3,2.3-5,4c-1.7,0.8-4.4,2.2-5.9,3.2c-2.9,1.9-5.9,3.2-14.5,6.7c-7,2.8-7.2,2.9-13.6,7.3
			c-6.3,4.4-9.6,6.4-13.4,8l-2.7,1.2l1.8,0c6.7,0,18.9-2.4,28.9-5.8c11.7-4,16.4-4.8,18.1-3.2c0.7,0.7,0.8,0.7,4.9-0.7
			c4.8-1.6,8.8-2.4,9.1-1.8c0.4,0.7-4.5,4-7.7,5.2c-4.4,1.6-9,3.7-12.1,5.6c-3.8,2.3-4.7,2.7-14.1,6.3c-10.6,4.1-14.6,5-26.1,5.9
			C240.5,306.3,239.9,306.3,239.6,305.8L239.6,305.8z M218.4,260.4c-6.4-3.5-18.4-15.8-21.9-22.2c-0.9-1.8-0.1-5,1.3-5
			c1,0,7.9,5,10.7,7.8c1.3,1.3,6.9,4.8,10.5,6.6c4.1,2.1,14.3,4.9,21.6,6c3.9,0.6,19.7,0.9,23.1,0.4c1.5-0.2,5-0.5,7.6-0.7
			c2.9-0.2,6-0.7,8.1-1.2c1.8-0.5,5.3-1.3,7.6-1.9c2.3-0.6,5.7-1.7,7.6-2.5c4.4-1.9,9.2-3.6,9.7-3.4c0.9,0.3,0.5,1.5-0.6,2
			c-0.6,0.2-1.3,0.9-1.6,1.5c-1.7,3.3-7.7,6.6-15.6,8.4c-2.4,0.6-5.4,1.4-6.7,1.8c-5.1,1.6-29.4,1.8-37.3,0.4
			c-19-3.4-29.8-7.9-37.9-15.8c-1.5-1.5-2.6-2.5-2.4-2.2c3.4,4.9,6.8,8.4,17.3,17.6c1.6,1.4,2.9,2.7,2.8,3
			C221.9,261.6,220.3,261.4,218.4,260.4L218.4,260.4z M212.7,241.2c-8.7-4.2-13.4-9.5-16.6-19.1c-0.6-1.7-1.2-3.6-1.5-4.2
			c-1-2.8,1.4-3,3.1-0.2c0.7,1.1,1.5,2.2,1.8,2.4c0.6,0.4,5,1.9,5.2,1.8c0,0-2.1-2.3-4.7-5c-4.3-4.5-5.1-5.1-8.1-6.6
			c-5-2.6-6.6-4.3-5.5-5.8c0.8-1.2,3.1-1.2,7-0.3c2,0.5,5.2,1,7.2,1.1l3.7,0.2l-1.9-1.1c-9-5.1-28.2-22.3-26.7-23.9
			c0.1-0.1,0.6-0.1,1.2,0.1c0.5,0.1,1.7,0.2,2.6,0.2c1.3-0.1,2.5,0.3,5.3,1.5c5.4,2.4,12.1,4.2,12.8,3.6c0.9-0.9,5.9-1.2,8.5-0.4
			c0.4,0.1-0.5-0.4-1.9-1.2c-3-1.6-5.6-3.5-9.3-6.8c-3.8-3.4-7.5-6.3-10.6-8.3c-5.4-3.5-6.6-5.4-4.8-7.4c2.4-2.8,21.6-0.4,33.4,4
			c0.3,0.1-0.5-0.8-1.8-2c-1.6-1.5-2.8-3-3.6-4.6c-1.8-3.5-2.8-4.5-4.4-4.8c-0.8-0.1-2.9-0.7-4.8-1.3c-3.6-1.1-11.1-2.8-12.2-2.8
			c-0.6,0-5.1-1.6-10.1-3.7c-9-3.7,0.4-7.3,22.4-8.6c3.5-0.2,7.2-0.5,8.2-0.6l1.9-0.2l-5.9-2.9c-5.9-2.9-9.3-5.2-14.4-9.5
			c-3.1-2.6-3.4-3.2-2.3-4.2c1.1-1.1,6.9-1,15.9,0.2c3.8,0.5,7.1,0.9,7.4,0.9c1-0.1-1.2-0.6-2.6-0.6c-1,0-1.3-0.2-1.3-0.6
			c0-0.9,5-0.4,8.6,0.8c4.5,1.5,5.5,1.1,2.1-0.8c-9-5.1-20.5-18.2-23.2-26.5c-0.5-1.4-1-3-1.2-3.4c-0.4-0.7-0.3-0.9,1-2.2
			c1.7-1.7,1.7-1.7,3-0.2c3.5,3.7,10.1,9.4,12,10.4c0.8,0.4,2.4,1.2,3.6,1.9c1.3,0.7,3.1,1.3,4.4,1.5c1.2,0.2,3.5,0.8,5.1,1.4
			c1.6,0.6,3.1,1.1,3.3,1.1s-1-1.3-2.6-2.9c-5.5-5.4-13.3-18.8-13.3-22.8c0-3.9,3.6-3,9.3,2.4c1.2,1.1,3.2,2.8,4.6,3.9
			c1.4,1,4.3,3.7,6.5,5.8c3.6,3.5,10.8,9.2,11.2,8.8c0.1-0.1-0.5-1.2-1.3-2.6c-0.8-1.3-2.8-5.2-4.4-8.6c-3.1-6.6-5.7-11.7-7.9-15.6
			c-0.7-1.3-1.4-2.5-1.4-2.6c0-0.1-0.5-1-1.1-1.9c-1.2-2-1.3-3.1-0.4-4c1.2-1.1,2.1-0.4,5.8,3.9c5.3,6.3,24.1,25.2,24.1,24.3
			c0-0.1-1-1.3-2.2-2.8c-6.6-7.9-18.7-30.9-17.7-33.8c0.8-2.4,2.6-2.3,5.5,0.2c1.2,1.1,5.6,4.3,9.8,7.2c4.2,2.9,8.8,6.1,10.2,7.1
			c5.1,3.6,12,10.3,19.6,19.1c5.2,6.1,14.6,19.8,15.5,22.8l0.5,1.7l-0.9-0.2c-2.5-0.6-7.6-5.5-13.4-12.8
			c-10.9-13.8-20.6-23.6-28.4-29c-1.6-1.1-4.6-3.2-6.8-4.8l-4-2.9l0.9,2c0.5,1.1,1.7,4,2.8,6.5s2.6,5.9,3.5,7.6
			c0.9,1.7,2.7,5,3.8,7.3c1.2,2.3,2.5,4.7,2.9,5.3c0.4,0.6,0.8,1.2,0.8,1.3c0,0.1,1.2,1.4,2.6,2.8c1.4,1.4,3.5,4,4.6,5.6
			c2.6,4,6.7,7.2,16.9,13.4c3,1.8,3.8,3.3,1.9,3.9c-1.7,0.5-10.2-5-14.9-9.8c-2.8-2.8-3.6-3.5-4.5-3.5c-1.7,0-8.9-6.3-21.8-19.3
			c-5.4-5.5-6-6-5.4-4.6c6.6,15.1,9.2,19.2,14.7,23.4c6,4.5,20,18.6,25.5,25.7c1.5,1.9,3.4,4.2,4.2,5c1.4,1.4,1.6,2.3,0.5,2.3
			c-1.4,0-5.2-3.3-16.5-14.5c-6.8-6.7-12.9-12.6-13.6-13.2c-2-1.7-9.9-7.4-11.9-8.5c-3.5-2.1-9.4-6.7-12.2-9.5
			c-1.5-1.6-4.4-4.1-6.4-5.7c-2-1.5-4-3.3-4.5-3.9c-1.5-1.8-1-0.7,1.7,4.1c3.1,5.3,4.3,7,8.6,11.8c2.2,2.4,3.2,3.8,3.2,4.4
			c0,1,0.7,1.7,5.3,5.2c5.8,4.4,9.9,7.7,9.7,7.7c-0.3,0-6.4-3.8-11.4-7c-3.6-2.3-6.5-3.3-6.9-2.3c-0.2,0.6-4,0.6-7.6,0
			c-4.4-0.8-8.7-3.1-13.9-7.2c-4-3.2-4-3.2-2.5-1.3c5.5,6.9,10.1,11.6,16.2,16.5c1.9,1.5,3.9,3.2,4.4,3.8c0.5,0.5,1.6,1.3,2.5,1.8
			c2.3,1.1,3.8,2.4,3.8,3.1c0,0.4,0.7,0.9,2.4,1.6c8.3,3.5,22.1,13.2,20.8,14.5c-0.4,0.4-7.3-3.2-11.2-5.7c-4.7-3-8.4-5-12.7-6.7
			l-3.3-1.3l-8.1-0.2c-6.7-0.2-8.8-0.4-12.5-1.1c-2.4-0.5-6.7-1.4-9.5-2c-5.1-1.1-6.1-1.1-4.5-0.4c0.5,0.2,1.4,0.9,2.1,1.6
			c2.8,2.6,6.6,4.9,13.9,8.6l7.8,3.9h4.1c14.2,0,33.3,7.5,51,20c3.1,2.2,4.3,3.5,4.3,4.7c0,1-7.4-2-22.7-9.3
			c-20.8-9.9-27.6-10.9-60.6-8.7l-3.9,0.3l2.6,0.5c4.1,0.7,16.4,4,22.7,6c2.3,0.8,6.3,1.8,8.8,2.3c8.4,1.8,27.2,9.2,35.6,14.2
			c3,1.7,9.7,8.7,9,9.3c-0.3,0.3-0.9-0.1-2.3-1.3c-3.4-2.9-10.6-6.4-20-9.6c-15-5.1-17.1-5.8-21.7-6.5c-3.8-0.7-8.1-1.7-9.8-2.3
			c-0.6-0.2-0.6-0.1,0.1,1.2c2.7,5.3,18.8,15.1,24.9,15.2c4.4,0.1,9.8,0.9,9.9,1.4c0.1,0.7-2.8,1.1-7.6,0.9c-2.3-0.1-3.1,0-2.7,0.2
			c8.4,4.9,10.8,7.2,7.8,7.2c-1.3,0-3.9-1-17-6.5c-16.8-7.1-22.2-8.7-36.1-10.9c-4.2-0.7-4.5-0.6-2.6,0.6c2,1.2,6,4.7,11.2,9.8
			c7.2,7,7.9,7.5,18.1,10.6c5.5,1.7,11.7,3.8,12.3,4.1c0.8,0.5-0.8,0.3-2.8-0.3c-1.4-0.4-2.6-0.7-2.7-0.6s0.8,0.4,1.9,0.8
			c9.9,3.1,27.6,12.1,27.9,14.2c0.3,1.8-3.5,0.7-14.9-4.5c-13.9-6.3-18.3-7.7-24.1-7.7c-6.8,0-17.9-2-26.3-4.8
			c-1.6-0.5,7.2,6.9,13.8,11.7c3,2.2,8.7,5.2,10.6,5.6c2.1,0.5,2.8,2.2,1.4,3.5c-0.7,0.6-1.4,0.7-8.3,0.7H198l3.1,3.2
			c1.7,1.7,5.2,5.3,7.8,7.8l4.7,4.6l5,1.7c13.2,4.6,26.2,6.2,50.3,6.2l14.6,0l3.3-1.3c4.3-1.7,6.4-1.5,6.4,0.7
			c0,1.1-2.4,4.9-3.6,5.7c-5.1,3.4-15.4,3.8-12.4,0.4c0.6-0.7,0.5-0.7-3.8-0.7c-20.8,0-43.4-2.8-53.3-6.5c-1.9-0.7-3.8-1.3-4.2-1.3
			c-0.4,0-1.3-0.4-2.1-0.9c-0.8-0.5-2.9-1.4-4.6-2.1s-4.2-1.8-5.4-2.5c-2.5-1.4-2.5-1.3-0.3,2.5c1.8,3,5.2,6.3,10.8,10.3
			c4.3,3.1,5.1,4.1,4,5C217.1,243,216.3,242.9,212.7,241.2L212.7,241.2L212.7,241.2z M458.7,120.1c-0.7-0.7-0.5-1.2,0.9-2.6
			c2.9-2.9,7.9-9.3,7.3-9.3c-0.1,0-1.3,0.7-2.6,1.5c-5.7,3.6-10.4,4.9-11.4,3c-0.5-0.9,0.1-1.6,1.9-2.1c1.7-0.5,6.6-3,9.6-5.1
			c6.5-4.4,9.6,0.4,4.5,7.1C465.1,117.8,460,121.4,458.7,120.1L458.7,120.1z M459.7,105.9c-0.5-0.6-0.5-0.8,1.4-6.3
			c0.6-1.7,1.2-4.3,1.3-5.6l0.2-2.4l-2.2,2.3c-3.2,3.4-7.5,5.1-8.8,3.6c-0.8-1,0.6-2.7,2.2-2.7c0.8,0,2.8-1.9,5.7-5.4
			c5.2-6.3,7.3-5.7,7.2,2.1C466.7,99.9,462.3,109,459.7,105.9z M453.2,90.5c-0.2-1-0.1-1.9,0.3-2.7c1.7-4.1,3.4-14.6,3.4-20.9v-4.9
			l-2.1,3c-6.1,9-10.1,12.3-12.8,10.9c-1.1-0.6-0.8-1.5,0.9-3.2c0.9-0.9,3.5-4.3,5.8-7.7c2.3-3.4,4.6-6.6,5.1-7.2
			c2.4-2.6,5.9-2.1,7.4,0.9c1,1.9,0.9,12.6-0.2,16.4c-2.4,8.8-5,14.9-6.7,16.2l-1,0.7L453.2,90.5L453.2,90.5L453.2,90.5z
			 M315.4,88.5c-2.3-1.9-12.3-12.1-14.4-14.8c-0.9-1.2-1.8-2.2-2-2.2c-0.6,0-10-15.4-11.1-18.1c-1.9-4.7-12.7-17.1-19.5-22.5
			c-3.7-2.9-3.8-2.9-2.2-0.2c1.2,2,3,5.4,7.8,14.7c4.3,8.3,7.8,14,10.3,16.8c8.1,9.1,10,14.8,3.4,10c-0.8-0.6-1.7-1-2-1
			c-0.4,0-0.7-0.2-0.9-0.5c-0.1-0.3-1.7-1.8-3.6-3.3c-1.9-1.5-7.4-6.7-12.4-11.5c-8.4-8.2-15.3-14.2-15.7-13.8
			c-0.1,0.1,0.5,2,1.4,4.2c2,5.1,3.3,9.3,5.5,16.6c1.4,4.9,1.9,6.1,2.8,7.1c1.2,1.2,1.4,2.1,0.5,2.5c-1.7,0.6-5-4.8-7.8-12.7
			c-3.3-9.3-5.7-15.2-8.3-20.4c-2.7-5.3-2.8-5.9-1.3-7c1.2-0.9,1-1,9.4,4.7c7.6,5.2,9.3,6.6,16.1,13.2c2.6,2.5,4.7,4.4,4.7,4.3
			s-0.8-1.6-1.7-3.3c-0.9-1.7-2.5-4.6-3.5-6.6c-4.2-8.4-8.2-15.2-10.3-17.8c-2.6-3.1-2.9-4.9-1-4.9c1.7,0,12,6.4,16.3,10.1
			c5.3,4.6,5,4.6,2.9-0.2c-1-2.3-2.2-4.8-2.6-5.6c-1-2-3.6-9.7-3.6-10.8c0-0.5-0.2-1.6-0.4-2.5c-0.4-1.5-0.4-1.7,0.3-2.4
			c1.9-1.9,3.3-1.1,10.8,5.6c2.6,2.3,5.8,5.1,7.1,6.3c1.3,1.2,4.7,4.3,7.3,7c2.7,2.7,4.7,4.6,4.5,4.2c-3.9-7.9-5.9-14.2-8.2-25.9
			c-1.9-9.6-1.3-10.3,4.6-6.1c1.8,1.3,5.1,3.4,7.2,4.7c5.9,3.5,9.5,7.2,15.3,16l4.6,7v-1.6c0-0.9-0.5-3.4-1.2-5.6
			c-3.8-12.7-4.2-15-2.8-16.1c1.6-1.3,1.2-1.5,9.7,4.6c6.8,4.9,14,12.3,18.5,19.1c0.7,1.1,1.4,2,1.5,1.9c0.1-0.1-1.9-6.8-4.8-15.4
			c-3.2-9.6-3.4-12-1.2-12.5c1.3-0.3,2.6,0.4,6,3.2c1.5,1.3,4,3.2,5.4,4.3c7.2,5.5,11.4,11,15.5,20.8c0.9,2.1,1.9,4.4,2.3,5.1
			c0.4,0.7,0.9,1.9,1.2,2.6c0.2,0.8,0.6,1.7,0.7,2.1c0.5,1.3-1.9-1.2-4.5-4.8c-11.6-15.6-13.1-17.4-17.6-21
			c-1.4-1.1-3.2-2.6-3.9-3.3c-0.8-0.7-1.2-1-1-0.7c0.2,0.3,1,2.7,1.8,5.3c0.8,2.6,2.7,8.7,4.3,13.4c1.5,4.8,2.7,8.9,2.6,9.2
			c-0.1,0.3,0.1,2,0.5,3.8c0.8,4.1,0.8,4.1-0.9,1.2c-1.4-2.5-2.3-3.5-2.7-2.9c-0.9,1.4-5-2.5-9.1-8.6c-4.7-6.9-19.7-22.6-20.7-21.7
			c-0.1,0.1,0.2,1.7,0.6,3.5c2,8.6,2,8.7,1.8,11.8c-0.1,1.9-0.4,3.1-0.6,3.2c-0.3,0.1,0.5,2,2.3,5.5c2.8,5.5,5.6,12.9,5.6,14.7
			c0,1-1.3,2.8-2.1,2.8c-1,0-2.6-2.5-6.2-9.6c-7-13.6-14.9-25.7-20.2-31c-2.7-2.7-9.1-8.1-9.7-8.1c-0.6,0,3.8,17.5,5.3,21.1
			c2.3,5.6,3,7.6,3.1,9.5c0.1,1.6,0.4,2.2,2,4.4c3.1,4.1,5.1,7.3,9.1,15.1c2.1,4,4.8,8.9,6.1,10.8l2.3,3.5l-2.1,1.3
			c-1.2,0.7-2.2,1.3-2.4,1.3c-0.9,0-7.1-9-12-17.4c-5.6-9.7-7.6-12.1-19.1-24c-3.8-3.9-7.6-7.9-8.4-9c-1.6-1.9-4.6-5.3-4.6-5.2
			c0,1.8,8.8,21.5,10.2,22.8c1,0.9,3,4.7,4.5,8.4c4.2,10.6,6.9,15,16,25.7c4.3,5,6.6,8,6.3,8.2c-0.3,0.2,0.5,1.3,2.3,3.1
			c3,3.2,3.6,4.3,3.3,5.1C318.3,90.2,317.2,89.9,315.4,88.5L315.4,88.5z M442.9,63.8c-0.2-0.3-0.4-5.3-0.6-11.1
			c-0.1-5.8-0.3-10.9-0.3-11.4c-0.1-1.2-0.6-0.3-2.2,3.6c-2,4.9-5.7,10.5-7.5,11.5c-0.7,0.4-0.8,0.7-0.8,2.1c0,1.8-0.4,2.5-1.6,2.5
			c-1.2,0-1.5-0.7-2.8-5.4C423,40,421.9,36.2,421,33.5l-1-3l-0.6,3.9c-1,6.3-1.5,7.9-3.2,11c-1.8,3.2-2.1,3.5-2.7,2.9
			c-0.3-0.3-0.6-0.1-1.1,0.9c-1.8,3.4-2.8,1.3-7.1-14.1c-2.4-8.6-3.8-12.8-5.3-15.1c-1.1-1.7-1.1-1.8-1.8,4.8
			c-0.3,2.8-0.7,5.7-0.9,6.3c-0.9,3.8-2.2,8-2.7,8.7c-0.6,1-1.8,0.9-1.6-0.1c0.4-3.3,1.3-12.2,1.9-18.3c0.9-9.2,1.2-10.1,3.8-10.6
			c1.1-0.2,1.3-0.1,3.5,2.3c5.5,5.8,9.1,16.7,10.4,31.4c0.7,7.2,2.3-3.8,2.9-19.3c0.2-5.5,0.3-5.8,1.1-6.4c2.6-2.1,4.8,0.2,7.9,8.5
			c3.5,9.3,4.9,15.1,5.7,22.7c0.3,2.7,0.6,5,0.6,5.1c0.2,0.2,4.4-7.3,5.7-10.3c0.7-1.7,1.9-4.3,2.5-5.6c0.6-1.4,1.2-2.8,1.4-3.2
			c0.6-1.9,2.9-2.7,4-1.5c1.8,1.9,3.2,15.9,2.2,22C445.9,60.9,443.8,65.1,442.9,63.8z M376.7,40.1c-0.7-1-1.2-2.1-1.2-2.3
			s-0.3-1.1-0.7-1.9c-0.9-1.7-3.8-11.3-5.1-16.9c-0.5-2.2-1.4-5.8-2-8c-1.1-3.8-1.1-4-0.5-4.7c0.9-1,1.9-0.9,3.1,0.6
			c0.6,0.7,3.6,3.9,6.7,7.1c11,11.6,16.5,20.1,14.7,22.9c-0.6,1-2.2-0.2-4.6-3.5c-3.7-5.2-7.5-10.1-10.9-13.8
			c-1.7-1.9-3.5-3.9-3.9-4.4l-0.7-0.9l0.5,2.1c1.2,5.4,5.9,23.2,6.2,23.8C379.5,42.5,378.3,42.4,376.7,40.1z"/>
		<path class="st1" d="M437.1,305c-2.5,0.7-6.4,0.6-13.7-0.2c-8.2-0.9-20.3-2.8-21.2-3.3c-0.2-0.1-1.7-1.3-3.5-2.6
			c-3.2-2.4-7.9-5.3-13.5-8.3c-2.5-1.3-4-2.6-7.8-6.1c-7.7-7.4-10-9.4-13-11.4c-1.6-1.1-3.4-2.6-4.1-3.4c-1.3-1.6-5.1-4.3-6.1-4.3
			c-0.5,0-0.6-0.2-0.5-1c0.4-2.1-1.4-3.8-4.1-4c-1.2-0.1,1.5-0.6,3.1-0.6c1.8,0,3-0.7,3-1.8c0-0.8-0.1-0.9-1.2-0.8
			c-9.2,0.7-10.4,0.5-11.2-1.8c-0.8-2.4-3-4.1-5.2-4.1c-0.7,0-1.6-0.7-3.8-3c-1.6-1.6-4-3.7-5.3-4.6c-3.6-2.4-3.8-2.7-6.1-6.6
			c-4.3-7.5-5.1-15-2-17.9c0.5-0.5,1.2-1.5,1.6-2.3c1.8-3.5,5.1-6.1,7.8-6.1c0.8,0,1.8-0.3,2.4-0.8c2.8-2,11,0.3,14.2,3.9
			c0.6,0.7,2.3,2.3,3.8,3.4c2.8,2.2,5,5.6,5.7,8.8c0.6,2.7,2.9,5.2,2.5,2.6c-0.1-0.8-0.1-1.2,0.2-1c0.4,0.3,2.6-0.7,3.7-1.7
			c0.7-0.6,0.8-0.6,1.7,0.5c1.2,1.4,3,4.8,4.1,7.5c1.7,4.1,3.9,3,7.9-3.7l1-1.7l1.5,2c3.1,4.2,7.6,5.7,7.6,2.7
			c0-1.8-4.4-8.8-6.4-10.2c-1.7-1.1-1.7-1.3-0.2-1.8c1.9-0.7,4.4-2.5,5-3.7c0.5-1,0.5-1.1-0.8-3c-0.7-1.1-1.6-2.4-2-2.9
			c-0.7-1.1-6.2-5-8.2-5.8l-1.3-0.5l1-0.7c1.3-0.9,1.9-2.3,1.5-3.6c-1-3.3-5-4.5-13-3.7l-2.6,0.3l-2.2-3.1l2.3-1.1
			c1.3-0.6,3.2-1.5,4.3-1.9c3.7-1.6,5.3-3.8,4.8-6.5c-0.4-2.4-3.8-4.7-6.7-4.7c-1.1,0-1.2-0.4-0.3-1.1c2.7-2.3,1.8-4.5-4.9-11.3
			c-3.7-3.8-3.7-3.6,0.6-4c7.4-0.7,8.1-4.8,1.5-9.1c-1.6-1.1-1.2-3,0.6-3c0.8,0,6-2.1,6.9-2.8c0.7-0.6,0.7-0.7,0.3-1.2
			c-0.4-0.5-0.3-1.1,0.3-1.1c3.2-0.2,3-2.3-1.1-9.8c-0.9-1.7-1.6-3.1-1.6-3.2c0.4-0.3,3.2-0.9,4-0.9c3.4,0,9.9-2.4,10.7-3.9
			c0.9-1.6-0.1-6.3-2.2-10.6l-1.3-2.6l2.9-0.4c1.6-0.2,5.3-0.5,8.2-0.6c5.9-0.3,6.6-0.5,7.5-2.6c1-2.3,0.8-3.6-0.9-5.7
			c-2.8-3.6-3.2-6.3-0.5-3.8c3.4,3.3,12.2,8,15.6,8.3c2.2,0.2,4.1-1,5.7-3.7c0.4-0.7,1.1-1.7,1.5-2.1c0.4-0.4,1.3-1.9,2-3.3
			c1.8-3.6,1.7-3.6,4.7,0.8c2.2,3.4,3.4,4.5,6.4,6.1c3,1.6,3.9,1.6,6.2,0c1.6-1.1,1.9-1.2,2.2-0.7c0.2,0.3,0.9,0.9,1.5,1.2
			c2,1,5.9,5.1,5.3,5.4c-1.8,1-7.4,0.7-10.8-0.6c-4.3-1.6-6.4-2.1-8.3-1.8c-4.2,0.6-3.2,2.6,1.8,3.4c1.1,0.2,3.5,0.9,5.3,1.6
			c4.7,1.9,10.2,1.9,14.7-0.1c0.6-0.3,3.5,2.5,5.4,5.1c0.5,0.7,1.3,1.8,1.8,2.6c0.5,0.7,0.8,1.4,0.7,1.6c-0.5,0.5-16.2,0.3-18-0.2
			c-4.6-1.2-5.8-1.6-7.9-2.6c-2.2-1-4.9-2-9.4-3.5c-6-2-19.9-0.3-19.9,2.3c0,0.7,0.6,0.9,6.6,1.3c11.2,0.8,14,1.4,21.6,5.3
			c1.2,0.6,3.9,1.8,6,2.7l3.9,1.6l8.2-0.1c5.2-0.1,8.9-0.3,10.2-0.6l2-0.5l0.4,0.9c0.9,2.4,2.4,11.7,2.4,15c0,2.4-2.5,3.8-5,2.9
			c-1.2-0.4-1.4-0.7-2.5-3.4c-2.1-5.4-4.2-7.4-5.9-5.7c-0.7,0.7-0.7,0.9-0.4,2.3c0.5,2,0.5,2-1.8,0.1c-2.6-2.1-4.1-3-5.1-3
			c-0.4,0-2.1-0.7-3.7-1.4c-3.5-1.7-8.7-3.1-11.8-3.1c-1.2,0-2.8-0.2-3.6-0.5c-4-1.5-20.7-1.4-28.4,0.1c-9.3,1.9-11.4,2.9-14,6.7
			c-0.8,1.2-2.1,2.6-2.8,3.1c-0.8,0.5-1.9,1.8-2.6,2.7c-0.6,0.9-1.4,1.9-1.7,2.1c-2.1,1.5-2.6,3.3-1.2,4.6c1.5,1.5,2.7,1.2,5.4-1.4
			c1.3-1.2,2.9-2.4,3.5-2.6c0.7-0.2,1.7-0.8,2.3-1.2c0.6-0.5,1.8-1,2.7-1.2c0.9-0.2,3.2-0.9,5.1-1.6c1.9-0.7,4.6-1.4,6-1.6
			c1.4-0.2,3-0.4,3.7-0.5c0.7-0.1,0,0.2-1.4,0.6c-3,0.9-8.5,3.6-8.5,4.1c0,0.2-0.8,1.4-1.7,2.7c-1.6,2.3-4.6,7.3-6.3,10.7
			c-2.3,4.5-2.9,18.9-1,22.5l0.6,1.2l0.3-1.2c0.2-0.7,0.3-2.4,0.4-3.9c1.1-21,9.1-31.2,25.2-32.4c5.3-0.4,17.9,1.4,21,3.1
			c0.4,0.2,1.3,0.5,2.1,0.6c2,0.4,6.9,2.9,7.8,4c0.4,0.5,1.2,1.3,1.6,1.8c0.8,0.8,1.1,1.8,0.9,3.1c0,0.2-1.2-0.3-2.6-1.1
			c-3.8-2.3-10.2-3.7-17.5-3.7c-5.1,0-6,0.1-11,1.2c-3.7,0.8-8.7,4.6-11.4,8.8c-0.8,1.3-2.9,3.9-4.6,5.8c-3.5,4-6.1,8.8-8.8,16.4
			c-2.5,7-1.9,10.1,2,10.1c0.9,0,1.5,0.3,2.4,1.3c6.7,6.9,20.4,13.2,28.8,13.2c10.3,0,19-2.9,22.8-7.5c2-2.4,6.5-11.8,7.3-15.2
			c0.9-3.5-0.1-13.8-1.6-17.2c-1.1-2.5-1.6-5.7-1.6-9.7c0-2.9-0.1-3.4-1.2-5.5l-1.2-2.3l2.5,0.2c2.9,0.2,4-0.6,4.8-3.5l0.4-1.4
			l1.4,1.7c1.2,1.6,1.5,1.7,3.2,1.9c2.7,0.3,4.7,0.3,5.7-0.1c1-0.4,1.6,1.1,2.5,6.4c0.3,1.5,0.6,3,0.8,3.4c0.6,1.2,6.8,6.5,9.7,8.4
			c1.1,0.7,2.6,1.8,3.3,2.3c1.5,1.2,8.4,5,13.5,7.6c7.2,3.6,7.9,4.2,11.5,10.4c2.2,3.8,2.7,5,2.5,6.2c-0.2,1.1-1.8,5.4-2.4,6.7
			c-0.5,1-3.9,3.2-6.8,4.5c-3.1,1.4-5.1,3.1-5.5,5c-0.7,2.8-3.3,3.7-9.3,3.3c-4.5-0.3-13.6,6.2-14.5,10.3c-0.1,0.6-0.7,1.8-1.2,2.7
			c-0.5,0.9-1.7,2.9-2.6,4.5c-3.8,6.5-7.5,9.3-15.6,11.5c-2.1,0.6-7,3.8-7.4,4.8c-0.3,1,0.7,2.4,1.9,2.6c3.2,0.7,5.7,2.2,7.5,4.5
			c5.2,6.8,8.6,8.9,18.5,11.2c0.8,0.2,2.4,0.6,3.7,1c1.9,0.6,3.1,0.7,7.7,0.6c3,0,5.6,0,5.9,0c0.3,0,0.3,0.5-0.1,1.9
			c-1,3.8-2.3,12-2.1,13.8c0.1,1.1,0,2.1-0.3,2.6c-0.6,1-5.5,3.2-10.7,4.6c-1.9,0.5-4.2,1.2-5.1,1.5c-0.8,0.3-3.4,1-5.6,1.5
			c-2.3,0.5-5.4,1.5-7.1,2.2c-4.2,1.8-4.6,1.8-9.5,2.2C441.1,304.3,438.2,304.7,437.1,305L437.1,305z M65.5,369.1
			c-0.6,0.1-1.8,0.7-2.5,1.4l-1.4,1.2l-1.1-1.7c-0.6-0.9-1.9-3.4-2.9-5.4c-5.5-11.3-6.8-13.9-9-17.1c-2.6-3.9-5.7-10.2-6.7-13.4
			c-0.3-1.1-1.4-3.6-2.3-5.4c-2.6-5-2.6-5.3-0.4-5.3H41l3.3,3.4c5.2,5.4,12.3,17.6,12.3,21.3c0,1.6,1.4,4.5,3.5,7.1
			c0.9,1.2,2.6,3.7,3.6,5.5c1.1,1.8,2.6,4.4,3.4,5.6l1.5,2.3l-1,0.1C67.1,368.9,66.1,369,65.5,369.1z M53,381.3
			c-1.5,0.8-2,0.9-2,0.3c0-0.2-0.9-1.2-1.9-2.1c-1.1-0.9-1.9-1.9-1.9-2.1c0-0.2-0.5-1.1-1.2-2c-0.6-0.9-1.8-2.7-2.5-4.1
			c-0.8-1.4-2.4-4.1-3.7-6c-1.3-1.9-3.3-5.7-4.5-8.3c-3.1-6.8-7.9-16.2-10-19.7c-6.7-11-7.8-13.1-8.2-15.7c-0.3-1.7,0.1-1.9,3-1.9
			c1.8,0,4.5,2.4,8.5,7.4c4.5,5.7,10.1,12.4,11.9,14.6c4.5,5.1,11.3,16.5,14.5,24.2c0.3,0.7,1.4,2.7,2.5,4.5
			c2.4,3.9,2.4,3.7,0.6,6.3C56.4,378.9,54.9,380.2,53,381.3L53,381.3z M521.2,1059.6c-0.4,1.8-2,3.1-2.7,2.2
			c-0.9-1.1-3.9-2.1-5.1-1.9c-0.4,0.1-0.8-0.9-2.1-3c-2.3-3.7-2.4-3.6-2.8,0.8l-0.2,2.7l-2.2-0.2c-1.6-0.1-2.6,0-3.8,0.4
			c-2.9,1.1-3,1.1-4-0.4c-0.5-0.7-1.6-1.9-2.3-2.6c-1.7-1.6-2.9-4.6-3.2-7.8c-0.2-2.4-1.7-5.8-2.3-5.2c-1,1,1.2-4.5,2.5-6.1
			c0.5-0.6,2.2-2,3.9-3c1.7-1,4-2.5,5.2-3.3c4.3-3,4.5-3.1,11.8-3.3c6-0.1,6.7-0.1,8.7,0.6c1.2,0.4,2.4,0.7,2.7,0.7
			c0.8,0,4.3,1.7,5.7,2.7c1.7,1.2,6.6,8.9,6.7,9.4c0.1,0.4,1.9,2.1,3.1,3.2c2.5,2.2,4.8,6,3.8,6.4c-0.4,0.1-0.5,0.5-0.3,1.3
			c0.8,3.9,0.6,4.4-2.1,4.6c-0.7,0.1-1.6,0.4-2.2,0.9c-0.6,0.5-1.5,0.8-2.4,0.8c-2,0.1-3.3,0.2-5.2,0.5c-1.1,0.2-1.7,0.1-1.7-0.1
			c0-0.7-1.2-0.8-1.8-0.2c-1.3,1.2-5.5-1.9-7.4-5.5c-0.7-1.4-1,0-0.6,2.5C521.3,1057.8,521.3,1059.1,521.2,1059.6L521.2,1059.6z
			 M400.4,1055c-2.5,1.8-10.5-0.1-10.5-2.6c0-0.3,0.1-3.4,0.3-4.5c0.2-2.4-0.4-2.9-3.4-2.9c-1.7,0-1.7,0-1.9,1.3
			c-0.7,4.4-0.9,5-2,5.9c-1.9,1.6-4.2,2-4.5,1.5c-0.2-0.2-0.5-1.3-1.2-2.3c-0.8-1.2-1.3-2.5-1.5-3.7c-0.3-2.2-0.7-1.7-1.4,1.6
			c-0.3,1.2-0.5,2.6-0.7,3c-0.6,1.5-4,2.7-4,1.5c0-0.4-0.2-0.7-0.6-0.7c-2.1,0-3.3-3.7-2.1-6.6c0.5-1.2,0.5-1.3-0.1-1.9
			c-1.1-1.2-1.4-0.8-1.2,1.9c0.2,4.3-1.8,7.9-4.2,7.6c-0.7-0.1-0.8-0.3-0.8-1.4c0-4-1.8-6.6-2.5-3.6c-0.3,1.5-1.1,2.1-1.8,1.4
			c-0.4-0.4-0.6-1.7-0.9-4.6c-0.5-7,0.6-10.1,3.9-10.7c0.8-0.1,2.4-1.1,4.4-2.7c6.2-4.8,8.3-5.4,19.7-5.6c8.8-0.1,11.6,0.3,15.5,2.5
			c2.9,1.6,8,7.1,8,8.5c0,2.1-1,6.3-1.7,7.5c-0.4,0.7-0.8,1.7-0.8,2.4c0,1.4-0.5,2.6-1.3,3.4c-0.3,0.3-0.9,1.1-1.2,1.7
			C401.6,1053.8,400.9,1054.6,400.4,1055L400.4,1055z M487.5,1016.2c-1,1.3-1.8,2.4-1.9,2.4c-0.2,0,3.3-10.1,4.6-13.2
			c1.6-3.7,1.6-4.9,0.9-16c-0.3-5.2-0.7-8-1.5-11.3c-0.6-2.4-1.8-7.9-2.8-12.2c-1-4.3-2.4-9.7-3.2-12c-1.8-5.6-2.8-9.6-4.9-20.1
			c-1-4.8-2-9.8-2.3-11.1c-0.7-2.9-5.4-29.3-6.1-34.2c-1.3-9.2-1-35.9,0.6-41.2c0.9-3,1.8-9.8,2.3-16.7c0.3-4.5,0.5-5.8,1-6.6
			c0.5-0.7,0.6-1.3,0.4-1.9c-0.4-1.8-3.8-10.1-4.4-11l-0.7-0.9l2.4-1.1c3.1-1.4,3.8-1.3,17.5,2.8c11.2,3.4,21.1,4.1,29.5,2.3
			c3.5-0.8,4.2-0.4,4.2-0.4v1.2c0,0.9,1.2,3.8,1.2,6.5c0,6.3-0.1,11.2-0.6,16.1c-0.6,6.9-0.7,7.9-1,21.5c-0.2,6.9-1.5,13.4-1.7,14.9
			c-0.2,1.5,0.4,7.2,0,11.5c-1.3,13.3-4.1,26-5.3,32.5c-0.4,2.1-1,5.8-1.3,8.2c-0.3,2.4-1.2,8.7-1.9,13.9c-2.4,16.6-2.5,18.8-2,37
			c0.3,10,1.1,19.6,2.3,21.8c0.7,1.3,1.1,3.6,1.5,4.1c1,1.4,3.8,6.1,3.8,6.2c0,0-1.6-0.2-3.4-0.6c-4.9-1-14.5-1-17.4,0
			C493.6,1009.7,490.5,1012.1,487.5,1016.2z M404.5,1011.8c0.4,1.2-0.1,1.1-7.7-1.1c-7.8-2.4-18.2-2.4-27.7-0.2
			c-2.4,0.6-2.5,0.5-2.5-1.1c0-1.4,0.1-1.5,1.1-1.9c2.7-0.8,3.4-6.6,2.2-20.6c-0.3-3.8-0.6-8.8-0.6-11.1c0-7.3-0.9-16.5-2.5-25.7
			c-0.4-2.2-0.8-5.7-1-7.9c-0.2-2.2-0.5-5.8-0.7-8c-0.7-7.2-3.1-18.1-6.7-29.8c-2.2-7.1-3.2-11.4-4.4-19c-0.5-3.1-2-10.2-3.4-15.7
			c-3.8-15.6-5.1-27.6-4-35.8c0.2-1.7,0.5-3.4,0.5-3.7c0-0.4,0.7-0.7,2.2-1c1.2-0.2,2.7-0.6,3.3-0.8c0.6-0.2,2.7-0.2,4.8-0.1
			c2.6,0.1,6.5,0,13.6-0.7c5.4-0.5,10.9-0.9,12.2-0.9c1.2,0,4.2-0.2,6.6-0.5c6.8-0.8,6.8-0.8,5.1,11.4c-1,7-0.3,16.4,2,27.8
			c2.7,13.6,2.6,12,2.7,26.4c0,7.3,0.2,14.4,0.4,15.9c0.2,1.5,0.2,3.1,0,3.7c-0.2,0.6-0.3,6.7-0.3,13.6c0,7.1-0.1,14-0.3,15.9
			c-0.2,1.8-0.4,9.2-0.4,16.3c0,12.7-0.7,25.2-1.7,29.3c-0.6,2.4-0.7,7.8-0.2,9.3c0.3,0.7,0.5,1.9,0.5,2.6c0,0.8,0.3,1.5,0.8,1.9
			C399.1,1000.8,404,1010.1,404.5,1011.8L404.5,1011.8z M409.1,434.5c-3,6-5.6,10.9-5.7,10.9c-0.1,0-2-2.7-4.1-5.9
			c-2.2-3.2-5.5-7.9-7.4-10.3c-11-14-19-25.8-30.9-45.7c-4.6-7.6-9.8-16-11.8-18.8c-6.8-9.7-6-7.9-6.2-13.4
			c-0.4-7.4-1.8-17.3-3.9-28.1l-0.9-4.3l6.1-6.1c3.4-3.3,6.6-6.8,7.1-7.7c1.2-2.1,3-7.5,3-8.7c0-0.5,0.2-1.8,0.5-2.8
			c1.2-3.8,0.6-8.2-1.2-9.6l-1-0.8l1.6-3.3c0.9-1.8,1.7-3.4,1.7-3.5c0.3-0.4,7.6,5.7,7.8,6.5c0.3,1.2,8.1,6.8,13.9,10
			c8.5,4.7,18.1,10.7,21,13.3c0.9,0.8,6.9,2.8,9.5,3.2c0.9,0.1,2.7,0.5,4.1,0.9c1.9,0.5,4.3,0.7,9.7,0.8c9.2,0.2,8.7,0,6.9,3.5
			c-4.7,8.9-7,18.2-9.1,37.2c-1.5,13.5-1.5,28.3,0,32c0.4,0.8,0.5,2.7,0.5,6.5C420.1,410.8,419.1,414.6,409.1,434.5L409.1,434.5z
			 M90.2,459.4c-1.6,1-3,1.9-3,1.9c0,0-0.6-1.8-1.3-4c-4.7-15.9-12.8-29.1-19.6-32.1c-1.1-0.5-2.7-1.5-3.6-2.3
			c-1.7-1.5-2.1-1.6-6.6-2c-5.1-0.4-13.4-4.8-16.1-8.7c-4.2-5.9-4.1-14.3,0.3-18.8c3.3-3.4,8.1-6.5,10.2-6.5c2,0,3.4-1,7.7-5.5
			c8.1-8.5,11.7-9.1,17.6-3.3l2.6,2.5l-1,1c-0.5,0.6-1.8,1.4-2.8,1.9c-6.3,2.8-9.6,6.3-10.1,10.7c-0.3,2.4-0.1,2.3,3.1-1.1
			c2.9-3.2,7.3-6.2,8.9-6.2c1.3,0,2.8-0.8,4.6-2.5c1.1-1.1,1.9-0.5,3.2-1.5c0.9-0.7,2.2-1.5,2.8-1.8c1.8-0.8,2.4-3,2.9-11.1
			c0.3-5.3,0.8-7.6,2.5-13.6c1.7-5.8,3.5-10.5,4.7-12.2c0.6-0.9,1.4-2.1,1.7-2.7c1.1-2.2,1.3-1.3,1.2,7.8c0,12-0.5,19.2-1.4,22.3
			c-0.8,2.7-1.8,11.6-1.8,16.1v2.8c0,0-1.9,4.3-1.2,5.3c1.9,2.6,2.1,11.6,1.8,14.7c-0.2,2.4-0.9,3.3-0.5,4.3
			c0.7,1.7,8.1,24.5,12.2,28.5l1.5,3.4c0,0-7.7,6-11.3,7.5C95.9,455.8,94.5,456.6,90.2,459.4z M33.3,402.1c0.2,0.7,0.3,1.3,0.3,1.3
			c0,0-2.4-2.3-5.2-5c-5.3-5.2-7.2-7.4-9.6-11c-0.8-1.2-2.5-3.3-3.9-4.8c-3.6-3.8-8.6-12.1-8.6-14.1c0-1,2.4-0.9,4.5,0.2
			c1.7,0.9,8.9,7.7,12.4,11.8c1.1,1.2,3.3,3.2,4.9,4.4c6.2,4.4,8.2,6.3,7.6,7.1C33.3,395.3,32.4,398.9,33.3,402.1L33.3,402.1z
			 M38,388.8c-0.7,0.9-1,0.7-2-1.2c-0.6-1.2-1.9-2.6-3.7-4c-2.2-1.8-3.3-3.2-6-7.1c-3.8-5.6-6.2-8.9-9.4-13c-1.3-1.6-3-4.2-3.9-5.9
			c-0.9-1.6-2.1-3.7-2.7-4.6c-1.1-1.6-5.1-9-5.1-9.6c0-0.1-0.6-1.6-1.4-3.3c-0.8-1.7-1.4-3.7-1.5-4.5l-0.1-1.4l2,0
			c2.7,0.1,4.2,1.1,7.3,5c1.3,1.7,3.4,4.1,4.6,5.5c1.3,1.4,3.6,4.7,5.3,7.4c2.9,4.7,8.1,11.3,13.8,17.2c3.4,3.6,5.3,6.1,8.4,11.1
			c2.7,4.3,2.8,4.6,0.4,5.2C42.6,386.1,38.5,388.2,38,388.8L38,388.8z M690.9,234.4c-1,1.3-2,2.4-2.1,2.3c-0.8-0.1-9.2-5.6-12.3-8.1
			c-2-1.6-4.5-3.5-5.4-4.2c-3.7-2.7-6.5-5-6.4-5.3c0.1-0.3,4.7-3.9,9-7.2c3-2.3,4.1-3.2,9.5-8.2c1.9-1.8,4.4-3.8,5.5-4.5
			c1.8-1.2,3.8-3.1,13.9-13.2c5.1-5.1,10.8-11.2,12.6-13.6c0.9-1.2,3.5-4,5.8-6.4l4.2-4.2l9.2-4.6c9.8-4.9,12.3-6.5,15.1-9.3
			c1-1,3-2.9,4.6-4.2c1.5-1.3,4.1-3.5,5.7-4.8c1.6-1.4,5.3-4.4,8.4-6.9c3.1-2.4,6.9-5.6,8.6-7.1c3.6-3.3,3.7-3.3,2,0.1
			c-2.6,5.2-5.7,8.7-11.7,13.5c-1.8,1.4-4.5,4.1-6.1,5.9c-1.6,1.8-3.7,4-4.8,4.9c-7.7,6.6-12.8,12-14.9,15.7
			c-0.7,1.3-1.8,2.9-2.5,3.7c-0.7,0.8-2,2.4-2.9,3.7c-0.9,1.2-3,3.8-4.7,5.6c-3.8,4.1-5.4,6.3-4.7,6.5c6.9,2.3,12.2,2.8,14.3,1.3
			c0.8-0.6,1.8-0.7,5.2-0.9c2.3-0.1,5.2-0.4,6.5-0.5c1.3-0.2,2.6-0.2,3.1,0c0.5,0.2,1.4,0.3,2.1,0.3c1.7,0,3,1.3,3,3
			c0,2.8-2.9,6.2-5,5.9c-0.2,0-0.6,0.3-1.1,0.7c-0.4,0.4-1.3,1.1-2,1.5c-0.7,0.4-1.6,1-2,1.4c-0.4,0.4-3,1.4-5.6,2.4
			c-2.7,0.9-6.2,2.3-7.9,2.9c-3.3,1.4-6.2,2.2-9.2,2.5c-2.5,0.3-8.9,3.9-9.3,5.1c-0.1,0.5-1.5,1.5-10,7.3
			C703.3,221.3,695.6,228.5,690.9,234.4L690.9,234.4z M751.2,179.9c-1.5,0.2-3,0.5-3.4,0.7c-0.5,0.2-0.6,0-0.6-1.3
			c0-3.2-1.5-5.2-4.1-5.2h-1.5l1-1.6c0.6-0.9,1.1-2.2,1.3-2.8c0.1-0.6,0.7-1.6,1.3-2.2l1.1-1.1l1.6,1.4c0.9,0.8,2.3,2,3.2,2.8
			c1,0.9,2.3,1.6,3.5,2l1.9,0.6l-0.2,1.9C755.9,178.2,754.7,179.4,751.2,179.9L751.2,179.9z M693.9,185.9c-0.7,0.5-2.3,2.1-3.7,3.6
			s-2.6,2.6-2.7,2.4c-0.6-0.9,8.9-11.8,12.6-14.5c2.1-1.6,2.2-1.6,3.7-3.6c0.7-0.9,2.4-2.8,3.8-4.3c1.4-1.5,3.3-3.8,4.1-5.1
			c1.7-2.9,4.3-5.4,4.7-4.5c0.5,1.2-5.2,9.6-7.6,11.2c-2,1.3-4.6,4-6.5,6.6C700.9,179.6,695.9,184.5,693.9,185.9L693.9,185.9z"/>
		<path class="st0" d="M344.8,249.4c-2.5-1.7-6-7.5-6.5-10.7c-0.1-0.9-0.3-1.7-0.5-1.8c-0.1-0.1-0.8-1-1.4-2c-1.4-2.3-3.1-3.6-6.1-5
			c-2.5-1.1-2.7-1.5-2.7-3.8c0-3,4.2-5.8,9.8-6.5c3.8-0.5,4.9-0.3,8.5,1.3c5.2,2.3,6.9,4.9,6.5,10.2c-0.2,3.4,0.2,4.9,1.6,6.1
			c4.3,3.8,4.8,6.3,1.9,9.5C352.8,250,347.6,251.3,344.8,249.4L344.8,249.4z"/>
		<path class="st0" d="M481,216c-0.4-0.2-0.9-0.6-1.1-0.9c-0.4-0.5-0.6-0.5-2.1,0.1c-7.5,2.7-12.7-10.1-6.4-15.8
			c3.5-3.1,7.8-0.9,4.5,2.3c-2,1.9-2.6,5.4-1.3,7.6c0.9,1.4,2.1,1.5,4.1,0.3c6.8-4.2,12.2-3.7,13.4,1.3
			C492.6,213.8,484.1,217.8,481,216L481,216z"/>
		<path class="st2" d="M490.5,1062c0.2,0.5,0,0.7-0.5,0.7c-0.8,0-1-0.2-4.7-4.3c-1.3-1.5-8-9.8-8-9.8s-0.4-8.4,0-9.4
			c0.3-0.8,0.7-2.4,0.8-3.6c0.2-1.9,1.2-3.6,2.6-6c2.6-4.4,5.2-5,7.4-6.1c1-0.5,3.1-2.2,4.7-3.6c4.7-4.5,5.1-4.6,15.4-4.5l8.6,0
			l3.3,1.3c1.8,0.7,4.4,1.7,5.6,2.2c3.5,1.4,5.6,3,7.6,5.8c2.1,3.1,4.1,8.7,4,11.1l-0.1,1.6l-1.3-1.9c-0.7-1-1.9-2.8-2.5-3.8
			c-0.8-1.4-1.5-2.2-2.7-2.8c-0.9-0.5-2-1.2-2.5-1.6c-0.5-0.4-2.4-1.6-4.2-2.5l-3.3-1.7l-14.8,0l-2.6,1.4c-7.2,3.9-13.8,9.1-15.3,12
			c-1.9,3.8-1.8,13.7,0.2,19c0.2,0.5,0.3,1.2,0.1,1.5c-0.1,0.4,0.1,1,0.6,1.6c0.5,0.6,0.9,1.4,1.1,1.8
			C490.2,1060.9,490.4,1061.6,490.5,1062L490.5,1062z M410.2,1055.3c-0.9,2.1-1.1,2.2-1.9,1.7c-0.4-0.2-0.2-1,0.5-3.4
			c0.5-1.7,0.5-4.1,0.7-5.1c0.8-3.2,1.9-9.9,0.7-12.6c-3.6-8.2-10.9-13.7-19.9-14.6c-5.1-0.5-13.4,0.4-16.4,1.7
			c-1.4,0.6-3.1,1.2-3.9,1.3c-0.8,0.1-1.8,0.5-2.3,0.9c-1.4,1-5,1.6-6.5,2.9c-2.1,1.7-7.9,5.6-8.2,5c-1.5-2.7-1.3-5.9,0.9-8.6
			c3.8-4.6,7-7.7,13.4-8.8c13.4-2.2,18.6-2.1,26.6,0.8c2.8,1,4,1.2,6.1,1.3l2.6,0l2.5,2c4.3,3.3,5.6,4.4,8.1,14.6
			c0.3,1.3,1,3.4,0.9,5.4c-0.1,2.8-0.5,4.3-0.9,6C411.8,1052.8,411.1,1053.4,410.2,1055.3L410.2,1055.3z M389.4,1060.4
			c-4.4,1.2-23.3,0.2-28.2-1.4c-3.6-1.2-10.1-5.8-8.2-5.8c0.3,0,0.7,0.3,0.9,0.7c1,1.9,5.3,4,5.7,2.8c0.1-0.2,0.9,0.1,1.9,0.5
			c2.9,1.5,19.5,1.2,22.5-0.4l1.4-0.7l1.3,0.7c0.7,0.4,1.6,1.2,2,1.7c0.4,0.5,1.1,1,1.5,1.2C391,1059.9,390.9,1060,389.4,1060.4
			L389.4,1060.4z M365.2,1009.7c0,1.2-0.1,1.5-0.7,1.6c-0.8,0.2-0.8,0.1,0-1.7l0.7-1.4L365.2,1009.7L365.2,1009.7z"/>
		<path class="st3" d="M499.4,782.2c-0.6,0.4-2.2,1.9-3.6,3.2l-2.5,2.4l-0.2-4.2c-0.3-5.4-2.7-14.9-5.3-20.5
			c-0.9-2.1-1.8-5.1-2.2-7.8c-0.1-0.9-0.5-3.3-0.9-5.3c-0.4-2-1-5.5-1.4-7.8c-0.4-2.2-1.6-7.1-2.6-10.9c-1-3.8-2-7.5-2.1-8.3
			c-0.1-0.8-0.8-3.4-1.4-5.8s-1.6-6.5-2.1-9c-0.5-2.5-1.9-8.5-3.1-13.2c-1.2-4.7-2.8-11.3-3.5-14.6c-0.7-3.3-1.5-6.2-1.8-6.5
			c-1.1-1.4-1.4-2.4-1.5-5.8c0-1.9-0.1-4-0.1-4.6c0-0.6,0.1-1.8,0.3-2.8c0.2-1,0.2-2.9,0-4.3c-0.2-1.4-0.2-2.7-0.1-2.8
			c0.3-0.3,12.6-0.8,12.9-0.6c0.1,0.1,0.2,3.2,0.2,7c0,13.3,1.4,30.8,2.8,37.1c0.3,1.2,0.5,3.3,0.5,4.7c0,1.4,0.3,4.2,0.7,6.2
			c0.4,2,0.9,5.5,1.2,7.9c0.5,4.2,1,6,2.8,10.9c0.5,1.3,1.3,4.4,1.8,6.7c0.5,2.3,1.5,6.1,2.3,8.5c0.8,2.3,2.1,6.7,3,9.7
			c2.1,7.2,2.8,9.3,4,11.2c1.5,2.5,3.7,6.9,5.3,10.7l1.4,3.5l-1.8,2.3C501.3,780.5,500,781.8,499.4,782.2L499.4,782.2z M366.7,649.5
			L366.7,649.5c-3,0.3-5.7,0.6-6,0.7c-0.3,0.1-0.7,0.1-0.8-0.1c-0.2-0.2-3.6-0.4-7.7-0.5c-8.6-0.2-9.1-0.4-12.7-3.8
			c-5-4.8-9.3-13.2-11.7-23c-0.7-2.8-1.6-6.3-2.1-7.9c-0.8-2.5-2.1-7.8-3.4-13.4c-0.2-1-1.2-6.3-2.1-11.8
			c-1.5-8.4-2.2-11.7-4.7-20.4c-3.1-10.9-8-32.1-8.6-37.5c-0.2-1.7-0.5-4.3-0.6-5.6c-0.3-3-1.2-7-2.6-11.5
			c-1.1-3.5-5.4-18.6-6.3-22.4c-0.3-1.2-0.7-4.3-1-7c-0.3-2.7-0.7-6.1-1-7.5c-0.7-3.5-0.7-3.6,0.6-3.6c5,0,13.4-9.6,12.8-14.7
			c-0.3-2.5-1.2-4.3-2.7-5.3c-2.3-1.6-4-0.4-2.3,1.6c1.8,2.2-0.7,6.8-6.6,12l-2.9,2.5l-0.3-1c-0.1-0.6-0.4-4.7-0.5-9.1
			c-0.4-15.9-1.1-24-2.1-25.2c-0.3-0.3-0.5-0.8-0.5-1.2c0-0.3-0.2-0.6-0.5-0.6c-0.3,0-0.5,0.2-0.5,0.5c0,0.3-0.4,0.9-0.9,1.3
			c-0.8,0.7-0.9,1.1-1.2,4.7c-0.3,4.1-0.2,29.6,0.2,32.1c0.2,1.3,0.2,1.4-0.3,0.7c-0.3-0.4-0.4-0.9-0.4-1.3c0.1-0.3-0.7-2.4-1.8-4.7
			c-1.1-2.3-2-4.3-2-4.5c0-0.2-0.4-0.6-0.9-0.9c-2.3-1.5-4.7-15.4-3.7-21.6c0.9-5.8,5.1-10.8,10.8-12.7c4.5-1.5,5.9-0.6,6.9,4.4
			c2.1,10.4,2.3,13.6,1.4,19.1c-0.3,1.9,0.5,2,2.7,0.3c3.5-2.6,3.8-5.4,1.9-15.1c-2.6-12.9-6-16-14.5-13
			c-6.8,2.4-11.3,7.1-13.3,14.3c-2.1,7.3,0.9,24.4,5.5,31.4c1,1.6,1.1,1.9,1.1,5.2c0,4.2-0.5,4.7-2.9,2.8c-0.7-0.6-2-1.5-2.9-2.1
			c-1.6-1-1.7-1.2-3.1-5.1c-3.6-9.9-3.9-10.3-5.1-9.1c-0.7,0.7-0.2,2.8,2,9.1c0.7,2,1.2,3.8,1,3.8c-1,0.3-0.3,1.9,2.3,5.3
			c1.8,2.4,2.9,6.3,2,7.2c-0.3,0.3-2.9-1.6-6.1-4.2c-4.6-3.8-7.5-2.3-4.3,2.2c0.8,1.1,1,1.7,0.8,2c-0.2,0.2-0.5,1.1-0.8,2
			s-1,2.5-1.7,3.7c-0.7,1.2-2.2,3.6-3.2,5.3c-2.8,4.7-5.8,8.8-8.6,11.8c-3.2,3.4-4.3,4.8-6.5,8.5c-1,1.6-2.7,4.1-3.8,5.4
			c-1.1,1.4-3,3.8-4.2,5.5c-2.9,4-10.6,12.9-14.2,16.4c-5.4,5.2-9.7,9.5-13.1,13.2c-3,3.3-3.7,3.9-6.5,5.3
			c-3.8,1.9-7.9,4.4-10.6,6.5c-1.1,0.8-3.4,2.4-5.1,3.4c-1.7,1-4.2,2.8-5.5,4c-6.6,6-8,6.6-15.7,6.7c-6.2,0.1-8.6-1.3-12.8-7.6
			c-1.1-1.7-2.6-3.3-3.9-4.3c-3.2-2.5-7-7.4-11.1-14.3c-4.1-6.9-8.5-13-12.8-17.6c-0.5-0.5-1.6-1.8-2.5-3
			c-5.2-6.8-13.2-16.4-16.6-19.9c-3.5-3.6-3.8-4.1-3.3-4.5c0.3-0.3,2.3-1.4,4.4-2.6c4.2-2.3,6.4-4,10.7-8c6.9-6.5,9.8-8.9,14.1-11.7
			c8.8-5.8,17.1-10.1,17.1-9c0,0.6,3.2,7.1,4.7,9.5c1,1.6,1.2,2.2,0.9,2.7c-0.7,1.2-0.4,7.1,0.4,8.3c1.1,1.9,1.4,1.4,1.4-2.3
			c0-3.8,0.1-3.9,2.4-5.7c1.5-1.2,2.5-1.3,2.5-0.1c0,0.3,0.2,1,0.5,1.6c0.4,0.8,0.4,1.2,0,2.8c-1.1,4,0.4,12.2,3.1,16.6
			c0.9,1.4,1.7,2.9,1.9,3.4c1.4,3.4,6.1,9.3,6.1,7.8c0-4.1-1.5-9.8-3.4-13.1c-2.1-3.6-3.8-10.4-3.2-12.8c0.2-0.8,0.3-0.8,1.8-0.5
			c2.6,0.6,3.6,1.8,3.6,4.2c0,1.4,0.3,2.5,1,3.9c2.9,5.7,4,11.1,4.4,22.5l0.4,9.7l-1,3.9c-1,3.9-1.1,5.8-0.2,6.1
			c0.9,0.3,4.2-3.6,5-6c0.4-1.2,1.1-3.1,1.5-4.2c0.7-1.8,0.7-2.5,0.5-12.5c-0.3-16.2-1.4-21.4-5.6-26.1c-1-1.1-1-1.2-0.5-1.8
			c0.4-0.4,0.6-1.2,0.6-2.2c0-5.8,2.8-9.3,5.3-6.6c0.6,0.6,1.5,1.7,2.1,2.4c0.6,0.7,1.3,2.1,1.6,3.1c0.3,1,0.9,2.4,1.2,3
			c1.4,2.4,2.2,15,1.2,21.7c-1,7.6-1.1,8.5-0.4,8.4c0.4-0.1,0.7-0.6,0.9-1.4c0.2-0.7,0.6-2.1,0.9-3.2c1.5-4.5,1.6-5.6,1.6-15.9
			c0-12.3-0.7-16-3.9-19.8c-1.1-1.3-1.1-1.3,0.9-4c0.9-1.3,4.2-5.9,7.3-10.2c5.4-7.6,8-11,21-26.5c8.1-9.8,14.4-17.3,20.9-25.4
			c11.4-13.9,16.7-19.8,28.6-31.9c7.3-7.4,11.9-12.8,14.1-16.6l1.3-2.3l1.7,5c2.7,8.3,5.7,14.4,9.6,20.1c5.6,8.2,8.5,12,11,14.7
			c1.6,1.6,4.8,5.3,7.2,8.1c2.4,2.8,5.7,6.5,7.4,8.3c1.7,1.7,3.9,4.4,5,5.8c4,5.4,15.3,15.5,27.2,24.4c10.7,8,16.5,13,21.8,18.7
			c2.1,2.3,5.7,5.7,7.9,7.5c2.2,1.9,6.5,5.7,9.5,8.6c3,2.8,7.2,6.7,9.4,8.5c6.3,5.4,12.1,12.1,16.8,19c1.2,1.8,3.1,4.4,4.2,5.9
			c1.1,1.5,2.9,3.9,4,5.4c3.5,4.7,10.8,12.7,20.3,22.1c7,6.9,12.1,15.9,13.9,24.7c0.5,2.2,1.5,5.6,2.3,7.6
			c3.7,9,10.4,30.9,11.4,37.3c0.3,1.9,0.9,4.6,1.3,5.9c0.4,1.3,0.7,2.4,0.6,2.5c-0.8,0.5-5.4,2.3-6.4,2.5c-0.7,0.1-2,0.6-2.8,1
			c-0.8,0.4-2.1,1-2.9,1.2c-0.8,0.2-1.8,0.7-2.2,0.9c-0.7,0.5-0.9,0.4-2.5-1.2c-2.5-2.6-6.8-3.7-16.2-4.2c-5.1-0.3-5.4-0.1-8.2,2.5
			c-2.1,2-2.5,2.2-4.2,2.4c-2,0.2-4.8,1.6-7.3,3.9c-1.3,1.1-1.8,1.3-3,1.3c-0.8,0-2.9,0.2-4.6,0.6c-2.1,0.4-3.4,0.5-4.2,0.2
			c-1.8-0.5-14.2,1-17.9,2.2c-5.5,1.7-11.4,3-15,3.4c-1.9,0.2-4,0.4-4.6,0.5C372.6,648.9,369.7,649.2,366.7,649.5L366.7,649.5z
			 M483.2,630c-1.7,0.4-3.2,0.7-3.4,0.7c-0.5,0-0.6-1.1-0.8-6c-0.3-6.7-2-14.9-4.8-22.2c-0.8-2-2.1-6.4-3-9.7
			c-1.5-5.6-8.1-25.8-10.2-31.4c-1-2.5-3.3-6.9-3.7-6.9c-0.3,0-4.4-7.3-5-9.2c-2.2-6.1-2.1-15.4,0.1-21.4c1.3-3.6,1.4-3.8,2.1-12.9
			c0.8-9.8,1.4-15.7,2.5-23.8c0.4-2.8,0.8-7.6,1.1-10.7c0.4-6.8,1.6-15.3,3.5-25.3c0.8-4.1,1.8-10.7,2.3-14.6
			c1.5-11.8,4.7-26.1,10.4-46.5c9.3-33.2,10.6-38.8,10.6-44.4c0-4.5,0.2-5.9,1-6.1c0.3-0.1,0.6-0.6,0.7-1.2c0.4-3.7,0.5-6.5,0.1-8.3
			c-0.7-3.5,1.5-6.2,4.1-4.9c4.7,2.3,6.9,9.4,5.6,17.8c-0.6,3.5-0.6,3.5,0.4,3.2c1.6-0.5,1.8-1.7,2.9-14.8l0.2-2.8l2.5-2.3
			c1.4-1.3,3.1-2.6,3.8-3l1.3-0.7l0.4,0.7c1,1.7,2.3,5.2,2.7,7.1c0.5,2.9,2.2,4.9,2.6,3.2c0.1-0.2,0.6-2,1.1-3.9
			c0.9-3.1,0.9-3.6,0.6-5c-1.3-5,0.6-8.2,4.9-8.2c3,0,5.7,2.1,7.1,5.7c0.9,2.2,1.5,1.5,1.2-1.5l-0.2-2l4.3-2.6
			c2.4-1.4,6.8-4.1,9.9-5.9c6.7-3.9,10.1-6.2,14.6-10.1c4.9-4.1,8.6-6.9,13.7-10.1c2.5-1.6,6.6-4.3,9.2-6.1c2.6-1.8,6.7-4.4,9.2-5.8
			c7.1-4.1,15.2-9.8,20.6-14.4c3.4-2.9,3-3,4.7,2c0.8,2.5,1.7,5.5,2,6.8c0.6,2.4,3.9,10.6,5.2,12.7c0.4,0.7,1.5,2.4,2.4,3.8l1.7,2.5
			l-1.1,0.8c-0.6,0.4-1.9,1.2-2.9,1.8c-2.4,1.3-7.1,5.3-9.2,7.8c-5.9,7.1-8.6,9.8-21.2,21c-16.2,14.5-24.7,23.6-31.2,32.9
			c-1.1,1.5-2.5,3.1-3.2,3.6c-0.7,0.5-2.9,2.6-4.7,4.7c-2.1,2.3-5.1,5.3-7.7,7.3c-2.3,1.9-5.8,5-7.8,7c-2,2-4.5,4.2-5.7,4.9
			c-2.9,1.9-5.1,4.1-10.6,10.4c-2.6,3-6.1,6.8-7.6,8.5c-3.1,3.3-8,9-9.3,10.9c-1.8,2.6-7.4,14.1-7.7,16c-1.6,8.8-2.1,20.3-1,22.4
			c0.4,0.9,0.6,2.1,0.6,5.1c0,2.3,0.2,4.8,0.5,5.9c0.3,1.1,0.6,2.6,0.7,3.5c0.1,0.9,0.5,2,0.7,2.5c0.2,0.5,0.7,2.2,1,3.9
			c0.3,1.6,1.1,5.6,1.7,8.8c0.7,3.7,1.8,8,3.2,11.9c2.2,6.7,2.8,9.9,2.8,16.2c0,1.9,0.2,5.1,0.5,7.1c0.3,2,0.6,6,0.7,8.8
			c0.1,2.8,0.6,7.9,1.1,11.3c0.5,3.4,1.3,9.4,1.8,13.4c1.4,10.9,3.8,24.5,5.5,30.7c1.1,4.2,1.5,6.6,1.8,10c0.2,2.5,0.6,6,0.9,7.8
			c1.4,8.7-0.3,15.2-4.8,17.9c-2.8,1.7-8.9,7.8-9.7,9.6c-0.6,1.5-3,2.2-7.2,2.2C494,627.9,487.8,628.9,483.2,630L483.2,630z
			 M515.8,807.2L515.8,807.2c-4.3,1.3-10.6,1-20.7-1c-3.7-0.7-7.4-1.5-8.4-1.6c-1.8-0.2-2.5-0.8-1.7-1.3c0.3-0.2,1.6-0.9,3-1.7
			c1.4-0.8,3.5-2.4,4.8-3.6c1.3-1.2,3.4-3.1,4.8-4.2c2.7-2.3,7.1-6.2,10.8-9.7l2.5-2.3l-0.9-2.8c-0.5-1.5-1.7-4.8-2.7-7.2
			c-1-2.4-2.7-7.1-3.9-10.4c-1.1-3.3-2.6-7.3-3.3-8.8c-0.7-1.5-2-5.6-2.9-9c-1.7-6.6-2.4-8.7-4.3-12.4c-0.6-1.3-1.3-2.9-1.4-3.7
			c-0.1-0.8-0.8-2.8-1.4-4.4c-0.9-2.3-1.3-4.2-1.7-7.6c-0.3-2.5-0.8-5.7-1-7c-0.3-1.3-0.6-4.2-0.7-6.3c-0.1-2.1-0.4-5-0.7-6.5
			c-1.2-6.5-1.5-11.4-1.9-27.6c-0.3-13.7-0.8-14.2-0.8-15.6c0-0.7,0-0.1,2.3-0.6c10.2-2.1,12.4-2,12.7-2.3c1-0.8,10.3-2.5,13.8-2.5
			l1.8,0l0.1,3.1c0.2,3.9,3.5,10.9,9,19.1c4.8,7.2,9.8,17.9,11.8,25.6c0.4,1.5,1.6,5.4,2.6,8.5c1.1,3.1,2.4,8,3,10.8
			c1.1,5.5,1.1,5.5,3.8,12.5c1.3,3.3,2.1,6.3,3.1,10.9c1.5,7.3,3.9,18.5,5.7,25.9c0.7,2.8,1.5,6.7,1.8,8.6c0.3,1.9,0.9,5,1.3,6.9
			c1.1,5.3,2.1,9.7,2.4,15.2c0.7,3.1-0.1,7.1-2.4,7.7c-2.7,0.7-7.3,0.9-13.9,1.7C532.5,804.5,520.7,805.7,515.8,807.2L515.8,807.2z
			 M337.6,823.8c-1.1,0.4-5.9-0.2-6.8-0.4c-2.5-0.8-2.7-8.3-0.4-17.9c1.2-5,2.1-10.6,2.1-13c0-0.9,0.4-3.6,0.9-6
			c1.2-5.6,1.3-6.6,2.6-16.2c1.1-7.9,2-12.6,4.4-22.2c0.7-2.8,1.7-7.6,2.3-10.7c0.6-3.1,1.7-7.9,2.4-10.6c0.8-2.7,1.6-6.2,1.8-7.7
			c1.8-14.5,1.8-15.7,0.3-29.6c-0.5-5.1-1.2-8-2.4-10.4l-1-2.1l2.2,0c6.1,0,13.7-0.7,17.3-1.5c2.1-0.5,4.9-1,6.2-1.1
			c2.1-0.2,5.7-0.9,13.3-2.6c1.7-0.4,4.9-1,7-1.3c8.5-1.3,12-2,16.5-3.5c4.3-1.4,8.3-2.4,8.6-2.1c0.1,0.1-0.1,2.1-0.3,4.5
			c-0.5,5.4-0.5,12.5-0.2,26c0.2,10.9,0.6,13.3,2,14.2c0.6,0.4,0.6,0.8,0.4,7.2c-0.2,4.8-0.1,7.2,0.2,8.5c0.7,2.8,1.4,10.9,1.4,16
			c0,4.3,0.4,13.3,1.4,27.8c0.4,6.1,1.6,18.3,2.1,21.3c0.2,1.2,0.4,2.7,0.4,3.4c0,3.5,3.6,3.8,11.8,1c1.1-0.4,2.8-0.7,3.7-0.8
			c0.9,0,2.4-0.2,3.4-0.4l1.8-0.4l0.7-2.3c0.6-2,0.7-4,0.8-15.9c0.2-14.3,0.1-15.1-1.6-27.3c-1.2-8.2-1.4-11.5-1.4-19.1
			c0-6.5-0.1-7.7-0.7-9.3c-1.8-4.9-2-7.2-2-23.2c0-11.9-0.1-15.2-0.5-16.1c-0.4-0.9-0.4-2-0.2-4.4c0.1-1.8,0.4-5.2,0.6-7.5
			c0.5-6.4,0.3-6.1,3.3-6c2.8,0.1,3.4,0.4,3.4,2.1c0,1.9,0.8,5.7,1.4,6.6c1.1,1.6,1.2,2.6,1.2,10c0,8.6,0.4,10.5,3.8,19.1
			c2.1,5.3,4.3,12.1,4.7,14.4c0.5,2.9,3.4,14.9,4.2,17.4c2,5.9,3.4,14.5,3.9,22.7c0.1,2.3,0.5,5.5,0.8,7c0.3,1.5,0.7,5,0.8,7.6
			c0.8,13.2,2.1,23,3.2,24.1c1,1.1,2.5,1.1,3.4,0.2c1-1.1,2.3-1.4,6.5-1.6c2.4-0.1,4.8-0.5,6-0.9c1.5-0.5,2.5-0.6,3.8-0.5
			c1,0.1,2,0.1,2.5-0.2c0.5-0.2-0.1,0.4-1.2,1.5c-2.4,2.2-9.7,6.3-14.2,8c-1.7,0.6-5.2,2.1-7.7,3.2c-9.2,4.2-14.4,5.6-26,7
			c-6.3,0.8-7.7,1-12.3,2.3c-1.6,0.5-3.9,0.9-5.1,1.1c-1.2,0.1-5.2,0.8-9,1.6c-11.5,2.2-16.6,3.1-20.3,3.5c-1.9,0.2-4.8,0.5-6.5,0.7
			c-1.6,0.2-5.5,0.5-8.6,0.7c-3.1,0.2-8.2,0.6-11.2,0.9c-8.2,0.8-17.8,1.6-20.6,1.6C346.3,822,339.3,823.1,337.6,823.8L337.6,823.8z
			"/>
		<path class="st2" d="M471.9,649c-3.1,0.9-5.9,1.6-6.5,1.6c-0.8,0-0.8,0.1-0.8-1.3c0-2-1.4-4-3.5-5c-1.8-0.9-2.4-4.4-0.7-3.9
			c2.1,0.7,4.7,0.8,5.2,0.4c2.1-1.8,6.4-3.1,24.7-7.1c2.2-0.5,5.3-1.3,6.8-1.7c2.3-0.7,3.8-0.9,8.4-1c6.4-0.2,11.2-0.7,14.1-1.5
			c3.2-0.9,3.4-0.9,4.4-0.4c3.7,1.9,6,8.6,3.7,10.5c-1,0.8-4.5,0.9-6.2,0.1c-1.8-0.9-16.3,1.1-21.2,2.9c-0.8,0.3-2.9,0.8-4.7,1.1
			c-1.8,0.3-5,1-7.1,1.6C482.1,646.8,476.4,647.7,471.9,649L471.9,649z M445.6,653.4c-0.8,2-1.9,2.3-5,1.4c-3.7-1.1-3.7-1.1-4.7-6.1
			c-0.3-1.4-0.8-3.2-1.1-4l-0.6-1.4l1.8-2c3.2-3.6,2.4-3.4,9.1-3.1c8.5,0.4,10.5,1,10.9,3.5l0.2,1.2l-2,0.4
			c-2.3,0.5-4.1,1.9-4.8,3.6c-0.3,0.6-1.1,1.9-1.8,2.9C446.9,650.9,446,652.5,445.6,653.4z M445.4,497.8c-0.3,3.1-0.7,9.2-0.8,13.7
			l-0.2,8.1l-0.8-2c-0.8-2.2-4.6-9.6-7.7-15.3c-1.1-1.9-2.3-4.8-2.9-6.3c-0.5-1.6-1.2-3.3-1.5-3.9c-0.4-0.7-0.6-2.6-0.8-5.5
			c-0.1-2.4-0.5-5.4-0.8-6.7c-1.9-8.1-3.6-30.3-3.9-51.8c-0.6-33.9-1-43-2.2-48.4c-0.5-2.2-0.5-3,0-9c1.2-13.7,3.3-30.7,4.2-35.1
			c0.1-0.6,0.5-0.7,3.1-0.7c2,0,3.9-0.3,6.3-0.9c1.8-0.5,4.9-1.3,6.7-1.7c1.8-0.4,6-1.5,9.2-2.5c12-3.5,21.5-4.9,24.2-3.4
			c2,1.1,2,1.1,2.2,4.1c0.2,2.7,0.1,3.5-1.3,9.4c-3.5,14.7-4.4,18-12.4,44.3c-5.8,19.1-10.7,39.9-12.2,51.9c-0.6,4.7-1.3,9-3.2,18.7
			c-1.7,9-2.6,15.3-3,21.8c-0.2,3.2-0.7,8-1,10.7C446.3,490,445.7,494.7,445.4,497.8L445.4,497.8z M431.9,790.2
			c-1.5,0.6-3.1,1.2-3.7,1.3l-1.1,0.2l-0.3-4c-0.2-2.2-0.3-4.3-0.2-4.7c0-0.4-0.2-3.4-0.4-6.7c-0.3-3.3-0.6-9-0.7-12.7
			c-0.1-3.7-0.4-9.2-0.5-12.3c-0.2-3.1-0.4-8.4-0.5-11.8c-0.3-7.6-0.7-12.1-1.6-15.3c-0.4-1.4-0.7-4.1-0.9-6
			c-0.1-1.9-0.4-6.3-0.6-9.6c-0.2-3.4-0.6-7.1-0.8-8.3c-0.7-3-1.1-23.2-0.6-29.3c0.4-4.6,1.4-9.6,3.9-18c1.5-4.9,1.4-4.8,3.9-6.7
			l2.1-1.6l0,1c0.1,6.6,1.2,10.9,3.3,12.7l1.1,1l-0.7,2.6c-0.7,2.5-0.7,3.9-0.7,25.6c0,24.5,0.2,27.9,2.1,32.7c0.4,1,0.6,3.6,0.8,9
			c0.3,7.9,0.6,10.6,1.9,18.8c0.5,2.7,0.9,5.7,1,6.7c0.1,1,0.4,2.9,0.7,4.2c0.5,2.4,1.4,29,1,29.4c-0.1,0.1-1.5,0.3-3.1,0.4
			C435.4,789.1,433.7,789.5,431.9,790.2L431.9,790.2z M478.1,786.8c-1.7,0.2-3.7,0.5-4.3,0.6l-1.3,0.2l-0.6-7.9
			c-0.4-4.3-0.8-9.8-0.9-12.1c-0.2-2.3-0.4-4.9-0.6-5.8c-0.2-0.9-0.4-3.9-0.6-6.7c-0.3-7-1.1-12.9-2.5-19.4c-0.7-3-1.3-6.7-1.4-8.1
			c-0.2-2.6-1.8-11-3.5-18.1c-0.5-1.9-1-4.5-1.2-5.6s-0.8-3.3-1.4-4.8c-0.5-1.5-1.5-4.7-2.1-7.2c-0.6-2.5-1.5-5.8-1.9-7.2
			c-0.4-1.5-1.2-4.4-1.7-6.5c-0.5-2.1-1.8-6.1-2.8-8.8c-2-5.3-2-5.4-0.4-4.8c1.4,0.5,8.4,1.2,9.8,1l1-0.1l0,5.7
			c0,6.6,0.6,9.8,4.7,26.4c3.2,13.1,5.2,22.5,5.7,26.7c0.2,1.9,0.9,5.3,1.5,7.6c1.6,5.7,2.6,9.6,3.4,14.4c0.8,4.7,1.2,6.2,2.1,8.8
			c0.4,1,1,3.1,1.4,4.7c0.4,1.6,1.3,4,1.9,5.4c1.5,3.1,3.9,11.4,4.6,15.3c0.7,4,0.7,4.3-0.2,4.3c-0.4,0-1.8,0.4-3.2,0.9
			C482.3,786,479.8,786.6,478.1,786.8z M89.2,516.3c-0.9,0.7-1.8,1.3-2,1.3c-0.4,0-9.1-16-14.2-26.3c-1.3-2.5-2.8-5.5-3.5-6.6
			l-1.2-2.1l3.9-3.9c3.4-3.4,4.5-4.3,8.6-6.7c2.6-1.5,7.2-4.3,10.3-6.1c5.6-3.3,7.2-4.1,12.5-6.3c3.7-1.5,7.1-3.8,10.9-7.3
			c3.9-3.6,12.9-9.8,14.3-9.8c3.3,0,11.6,9,16.7,18.1c1.1,1.9,2.6,4.6,3.3,5.8c0.7,1.2,1.4,2.5,1.4,2.9c0,0.8-4.4,4-6.4,4.7
			c-2.3,0.8-10.4,5.5-16.5,9.5c-5,3.3-6.3,4.4-14.1,12c-6.5,6.3-9.6,9-12.5,11c-2.1,1.4-5.2,3.9-6.8,5.5
			C92.3,513.7,90.2,515.6,89.2,516.3L89.2,516.3z M348,670.7c-2.2,0.5-4.9,0.9-5.9,1.1l-1.8,0.2v-3.8c0-3.9,0.8-8.3,1.5-8.5
			c0.2-0.1,3.7-1.3,4.2-1.8c1-0.9,11.5-1.7,13.1-2.4c0.7-0.3,4.6-1.2,12.6-1c9.3,0.2,13-0.3,21-2.6c4.4-1.3,6.7-1.6,14.4-2.2
			c2.2-0.2,5.5-0.7,7.2-1.1c3.7-0.9,3.5-1.1,2.7,2.1c-0.4,1.6-0.7,3.8-0.7,5.6l0,2.9l-1.1-0.3c-2.6-0.7-8.1,0-12.7,1.6
			c-2.4,0.8-5.9,1.5-14,2.7c-3.4,0.5-6.7,1.1-7.4,1.3c-2.7,0.8-10.5,2.4-12.7,2.6c-1.3,0.1-4,0.6-6,1.1c-2,0.4-5.2,1-7,1.2
			C353.6,669.7,350.2,670.2,348,670.7L348,670.7z M458.9,659c-0.2,0.2-6.4,0.5-6.9,0.3c-0.6-0.2-1.5-2-1.5-3.1
			c0-1.3,0.9-2.9,2.7-4.8c0.8-0.9,1.5-1.8,1.5-2c0-0.6,1.7-0.8,3-0.4l1.3,0.4l0.1,3.6C459.1,657.4,459.1,658.9,458.9,659L458.9,659z
			 M442.6,537.1c0.7,1.7,1.2,3.2,1.2,3.3c-0.2,0.2-6-5.9-8.4-8.6c-2.3-2.7-7.5-9.7-11.3-15.3c-5.7-8.4-11.8-15.3-18.6-21.1
			c-1.8-1.6-6-5.3-9.2-8.3c-3.2-3-7.3-6.7-9.2-8.2s-5.6-5-8.4-7.9c-7.5-7.6-11.2-10.7-24.8-20.8c-3.9-2.9-8.3-6.4-9.9-7.9
			c-1.5-1.5-4.3-3.9-6-5.4c-3.3-2.8-5.2-4.8-8.6-9.2c-1-1.4-3-3.7-4.3-5.1c-1.3-1.5-4.2-4.9-6.5-7.6c-2.3-2.7-5.6-6.4-7.3-8.3
			c-1.7-1.8-3.9-4.5-4.9-6c-1-1.5-2.8-4-4.1-5.7c-5.3-7.1-9.2-15.6-13.2-28.3c-2.2-7-3.9-11.7-4.8-13.1c-0.8-1.2-0.6-1.4,2.5-2.7
			c6.2-2.7,9.5-3.4,19.9-4.4c2.2-0.2,6-0.6,8.3-0.9c2.3-0.3,8.1-0.6,12.9-0.7l8.7-0.2l0.3,1.7c0.1,0.9,0.6,3.6,1.1,5.9
			c0.5,2.3,1,5.3,1.2,6.5c0.3,2.9,1.4,5.2,5.3,11.5c1.7,2.7,5.1,8.4,7.6,12.7c8.4,14.5,10.5,17.9,14.9,24.6
			c6.3,9.7,10,14.8,16.9,23.7c7.5,9.6,10.6,14.4,19.8,30c6.7,11.4,9.1,15.1,13.1,20.3c4.4,5.8,6.1,9.1,10.4,20.8
			c1.9,5.2,4,10,5.7,13.2C435.6,520.6,438.6,527.4,442.6,537.1z M648.1,296.7c-3.2,2.7-10.7-0.6-13.1-5.7c-0.5-1-1.2-2-1.6-2.3
			c-2-1.2-7.5-12.7-8.9-18.6c-1.4-5.8-5.4-17.2-6.9-19.7c-1.2-1.8,0.1-3.6,5.9-7.7c1.2-0.9,3.5-2.7,4.9-4.1c1.5-1.3,3.4-3,4.4-3.8
			c1-0.8,2.9-2.4,4.2-3.5c1.4-1.2,3.8-3.1,5.5-4.3c1.6-1.2,4.2-3.1,5.6-4.3c1.5-1.2,3.2-2.2,4.1-2.5c0.8-0.2,1.8-0.6,2.1-0.9
			c0.6-0.5,0.8-0.4,2.5,1.1c1,0.9,2.2,2,2.8,2.5c3,2.5,8.7,7.5,10.5,9.3c3,2.9,6.4,5.6,9.2,7.2c3.2,1.8,11.6,7.3,12.1,8
			c0.6,0.7-1.2,8-2.5,9.8c-0.6,0.8-9.7,11.8-15.1,18.6c-6.2,7.7-13.7,11.2-15.5,12.7C656.7,290,648.8,296.1,648.1,296.7L648.1,296.7
			z"/>
		<path class="st4" d="M485.6,269c-4.3,0.9-15.8,1-18.8,0.2c-7.7-2.1-10.4-3.6-15.9-9.3c-2.5-2.5-4.5-4.6-4.5-4.7
			c0-0.3,3.4-0.1,3.8,0.2c0.2,0.2,1.8,0.5,3.4,0.7c2.5,0.3,3.6,0.6,6.4,1.9c4.1,2,6,2.4,9.9,2.2c3.3-0.2,8.7-1.6,10.3-2.7
			c1.7-1.2,3.3-1.9,6-2.6c4.3-1.1,4.4-1.1,6.2-0.2c0.9,0.5,2.2,1.1,2.8,1.3c1.5,0.5,3,2.6,3.3,4.7c0.3,2-2.2,4.3-6.3,5.9
			c-1.6,0.6-3.1,1.3-3.3,1.4C488.6,268.3,487.1,268.7,485.6,269L485.6,269z M463.5,243c-1.6,1.8-2.9,3.3-3,3.3c-0.1,0,0-0.2,0.1-0.4
			c2.9-3.8,3.9-5.2,5.2-7.5c0.9-1.5,2.2-3.5,3-4.5s1.4-2,1.4-2.2c0-0.3,4.6-4.4,6.3-5.5c1-0.7,5.6-2.1,7.9-2.5
			c0.8-0.1,1.8-0.5,2.4-0.7c1.1-0.5,3.3-0.7,3.6-0.2c0.1,0.2,1.6,0.4,3.3,0.5c2.6,0.2,3.2,0.3,3.7,1c2.1,2.6-2.9,4.7-8.1,3.4
			c-4.2-1.1-7.3-0.5-10.5,1.9C471.8,234.9,466.6,239.5,463.5,243L463.5,243z"/>
		<path class="st3" d="M473.1,257.9c-2.2,0.9-4.9,1.4-5.4,0.9c-0.2-0.2,0.2-1.5,1.1-3.3c0.4-0.8,3-2.1,4.8-2.5
			c0.9-0.2,2.8-0.6,4.2-0.9c4.1-0.9,9.4-0.5,5.8,0.5c-0.9,0.2-2,0.9-2.5,1.5c-0.5,0.6-1.2,1-1.4,1c-0.3,0-1.3,0.4-2.4,0.9
			C476.2,256.5,474.3,257.4,473.1,257.9L473.1,257.9z M475,243.7c-6.1,1.9-7.7,1.6-4.9-0.9c3.1-2.8,7.3-7.3,7.3-7.6
			c-0.1-0.2,0.2-0.4,0.7-0.4c0.4,0,1.7-0.7,2.8-1.6c2.5-1.9,4.2-2.3,7.3-1.5c1.2,0.3,2.8,0.6,3.6,0.6h1.4l0.2,2.5
			c0.1,1.4,0.2,2.6,0.2,2.7C493.6,237.8,488.1,239.6,475,243.7L475,243.7z"/>
		<path class="st5" d="M425,206.5c7.4-1.5,8.9-2.5,12.1-8c3.2-5.7,3.7-7.6,3.4-13.8c-0.4-9.2-3-14.5-8.9-17.5
			c-3.2-1.7-11.2-1.1-18.2,1.4l-4.1,1.4l-6.5,6.4c-6.3,6.2-6.6,6.5-8.4,10.1c-1,2-2.3,4.4-2.9,5.4c-2.8,4.5,0.9,9.2,9.8,12.1
			C412.8,207.5,417.3,208,425,206.5L425,206.5z"/>
		<path class="st0" d="M422.8,190.1c-2.9-1-4.3-4.9-3.5-9.7c1.2-8.1,13.9-7.2,15.7,1.1C436.3,187.8,429.7,192.5,422.8,190.1z"/>
		<path class="st2" d="M225.7,540.3c-0.2-0.1-0.3,0.1-0.3,0.3c0,0.5-4.2,4.7-7.3,7.5c-2.6,2.3-7.6,2.8-11,1.1
			c-9.6-4.8-6.1-20.5,5-22.8c1.2-0.2,2.8-0.9,3.5-1.4c3.9-2.6,7.2-2,9.5,1.7c1.1,1.8,1.6,9.2,0.8,12.5L225.7,540.3L225.7,540.3z
			 M344.1,821.7c-4.5-1.9-6.1-4.4-6-9.5c0.2-6.6,2.5-9,8.9-9c5.5,0,9.1,3.5,9.8,9.7c0.5,3.7-1.3,7.5-3.9,8.3
			c-0.6,0.2-0.6,0.3-0.3,0.5C353.4,822.2,345.3,822.2,344.1,821.7L344.1,821.7z M396,816.8c-6.9-6.9,0.9-18.5,9.6-14.3
			c2.5,1.2,4,4.4,4.1,8.8c0.1,4.4,0.1,4.4-6,5.5c-2.8,0.5-5.5,1-5.8,1.1C397.5,818,396.8,817.6,396,816.8z M444.8,807.4
			c-2.7-1-6.2-5.1-6.2-7.3c0-2.7,2.3-7,3.7-7c0.3,0,0.7-0.4,0.9-0.8c0.2-0.4,0.3-0.7,0.3-0.5c0,0.1,0.7-0.1,1.5-0.4
			c3.1-1.4,7.4-0.7,9.5,1.4C460.3,798.9,452.7,810.4,444.8,807.4L444.8,807.4z M374.1,806.4c-3.2-1.2-5.7-4.8-5.7-8.2
			c0-3.4,1.3-5.1,4.6-6.1c0.7-0.2,2.4-0.8,3.8-1.4c5.7-2.3,9.1-0.1,9.8,6.5C387.4,803.8,380.7,808.7,374.1,806.4z M507.8,804.2
			c-0.4-0.1-1.1-0.2-1.5-0.3c-3.6-0.8-5.9-7.1-4-11.3c4.6-10.1,17.4-8,17.4,2.9C519.8,800.3,512.8,805.4,507.8,804.2L507.8,804.2z
			 M331.7,799.6c0.1-0.8,0.3-2.2,0.5-3.3c0.2-1.1,0.3-2.7,0.3-3.7c0-2.4,2-12.5,2.6-13.1c0.3-0.3,2.3,1,3.5,2.4
			c4.8,5.6,4.9,12,0.3,15.4c-0.9,0.6-2.3,1.6-3.1,2.2c-0.8,0.6-2.1,1.2-2.9,1.3l-1.4,0.2L331.7,799.6z M532.7,799.4
			c-5.3-2.7-6.4-11-2-15.2c3.4-3.3,8.7-4.1,11.4-1.8c4.5,3.8,4.2,13.1-0.6,16.5C539.4,800.4,535.1,800.6,532.7,799.4z M403.7,786.1
			c-7.3-1.5-9.7-10.8-4.3-16.6c5.1-5.5,12-4.4,14.5,2.3c2,5.2,1.2,9.2-2.1,11.5c-0.7,0.5-1.5,1.1-1.9,1.5c-0.7,0.6-3.8,1.7-4.6,1.6
			C405.1,786.4,404.3,786.2,403.7,786.1L403.7,786.1z M548.6,782.1c-7.1-3.1-8.2-20.6-1.5-24c2-1,4.4-1.2,4.5-0.3
			c0.1,0.6,0.6,2.8,1.2,5.5c0.6,2.7,1.4,6.6,1.8,8.5c0.3,1.9,0.9,4.9,1.2,6.6s0.6,3,0.6,2.9c-0.1-0.1-0.9,0.2-1.7,0.6
			C553.2,782.7,550.3,782.8,548.6,782.1L548.6,782.1z M493.7,780.7c-0.6-0.3-1-1.5-2-5.5l-1.3-5.1l1.7-1.7c4.1-4.1,7.4-3.1,9.7,3
			C503.9,777.2,498.7,783.2,493.7,780.7L493.7,780.7z M351.5,778.7c-2.8-1.8-5.5-6.9-5.1-9.8c0.4-3.5,1.9-4.3,8.4-4.8
			c5.6-0.4,6.5-0.1,8,2.5C366.8,773.9,358.3,783.1,351.5,778.7L351.5,778.7z M380.3,778.3c-5.9-1-10.1-10.2-6.8-14.6
			c3-3.9,11.2-4,14.9-0.2C395,770.2,389.7,779.9,380.3,778.3z M451.2,759.7c-7.6-3.7-5.9-16,2.3-17.2c5.3-0.8,8.8,2.5,8.8,8.3
			C462.3,757.6,456.4,762.3,451.2,759.7z M416.5,758.1c-7.1-3.1-7.3-17.9-0.3-17.4c1.1,0.1,1.9,0,2-0.2c0.1-0.2,0.2,0.9,0.2,2.6
			c0,1.6,0.2,5.6,0.4,8.9C419.3,759,419.2,759.3,416.5,758.1L416.5,758.1z M523.2,757.2c-4.6-1.6-8.2-5.8-8.2-9.6
			c0-8.1,14.7-11.3,19.1-4.2C538.7,750.8,531.4,760.1,523.2,757.2z M341,753.1c-1.6-0.7-1.7-1-0.4-5.9c0.8-3.3,2.5-11.1,2.5-11.8
			c0-0.4,2.4,0.8,3.7,1.8c3.4,2.8,4.9,10,2.7,13.1C347.7,752.8,343.4,754.2,341,753.1L341,753.1z M372.5,752.3
			c-4.5-0.7-8.6-5.1-8.7-9.3c-0.1-8.5,14.9-11.7,18.4-4C385.3,745.7,379.6,753.4,372.5,752.3z M398.3,738.5
			c-7.4-1.2-10.5-12.3-4.9-17.8c5.1-5,12.2-3.4,14.6,3.4C411.1,732.9,406.5,739.8,398.3,738.5z M501.5,736.4
			c-8.9-3.5-5.5-16.9,4.4-16.9c7.8,0,12.9,11.6,7,15.7C510,737.1,504.9,737.7,501.5,736.4L501.5,736.4z M536.4,732.9
			c-6.8-2.1-10.6-12.3-7.2-19.5c1.7-3.7,2.9-4.5,7.2-4.6l2.7-0.1l1,3.6c1.3,6.3,1.7,8,3.7,12.9c1.8,4.6,1.9,4.8,1.3,5.7
			C543.8,732.8,539.6,733.8,536.4,732.9z M481.5,730.9c-1.1-0.2-1.6-1.5-2.9-7.5l-0.8-4l1.2-0.5c3.1-1.3,4.6-0.6,5.6,2.7
			c0.4,1.4,1.2,3.6,1.7,4.9c0.8,2.2,0.9,2.4,0.3,2.9c-0.7,0.7-3,1.7-3.7,1.6C482.6,731,482,730.9,481.5,730.9z M349.1,728.8
			c-1.1-0.6-2.2-1.4-2.7-2.2l-0.8-1.3l0.7-2.6c0.4-1.5,0.8-4.1,0.9-5.8c0.1-1.7,0.3-2.9,0.4-2.6c0.1,0.6,0.3,0.5,1.3-0.3
			c3.6-2.7,8.6-3.3,11-1.4c4.2,3.3,4.4,12,0.4,15.1C357.3,730,352.5,730.5,349.1,728.8L349.1,728.8z M440.8,719.4
			c-1-3.3-1.8-7.4-2.1-11.4l-0.2-3.2l1.4-0.1c3.6-0.2,8.5,4.7,8.5,8.6c0,3.4-2.2,6.8-5.2,8.1C441.6,722.2,441.6,722.2,440.8,719.4
			L440.8,719.4z M414.3,717.1c-4-2.2-7.2-6.4-7.4-9.8c-0.3-4.3,3.2-9.3,6.4-9.3h0.9l0.1-4.1c0.1-2.3,0.1-0.6,0.2,3.8
			c0.1,8.5,0.4,10.8,1.9,11.8c0.7,0.5,0.7,0.7,0.5,4.4C416.6,718.1,416.5,718.3,414.3,717.1L414.3,717.1z M383.1,711
			c-3.8-0.6-5.8-3.5-5.8-8.6c0-3.8,1.3-5.7,4.8-7c0.8-0.3,2-1,2.8-1.5c2.6-1.7,5.1-1.5,7.1,0.6C397.6,700.5,391.2,712.3,383.1,711
			L383.1,711z M491.6,710.4c-1.6-0.8-4.5-3.8-4.7-4.8c-1.2-10.3,1.5-15.8,7.8-16.3c11.2-0.9,17.5,18.5,6.7,20.4
			c-1.2,0.2-2.8,0.5-3.7,0.8C494.9,711.1,493.1,711.1,491.6,710.4L491.6,710.4z M351.9,703.4c-3.8-1.5-3.4-0.4-4.2-10.7
			c-0.2-2.4-0.5-4.7-0.6-5.1c-0.1-0.4-0.1-0.6,0.1-0.5c0.1,0.1,0.7-0.1,1.2-0.4c6.9-4.9,15.1-1.2,16,7.3c0.4,3.5-1.5,6.8-5,8.6
			C357.7,703.4,353.2,703.9,351.9,703.4z M517.1,697.8c-4.8-2.6-7.3-9-5.3-13.3c2.8-5.9,12.9-8.8,16.5-4.7c0.6,0.7,1.4,2,1.6,2.3
			c0.2,0.3,0.4,1.2,0.5,1.4c0.2,0.4,0.3,7.8-0.5,9.4C527.3,697.9,521.3,700.1,517.1,697.8z M443.9,690.4c-2.8-1.4-4.3-3.7-4.9-7.7
			c-0.2-1.1-0.2-1.9-0.1-1.8c0.1,0.1,0.4-0.3,0.6-0.9c0.6-1.8,2.6-3.2,5.2-3.5c3.5-0.4,3.3-0.6,3.2,4c-0.1,3.5,0.2,7.4,0.9,10
			C448.9,691.7,446.4,691.6,443.9,690.4L443.9,690.4z M402.4,687.6c-3.6-1.8-5.2-5.9-4-10.1c1.7-6.1,11.7-7.7,14.3-2.3
			C415.9,682.1,408.7,690.8,402.4,687.6L402.4,687.6z M379.8,684.7c-1-0.4-2.4-1.2-3-1.8c-0.6-0.6-1.3-1.1-1.5-1.1
			c-1.6,0-4.4-3.8-4.4-6c0-1.8-0.5-1.5,6.3-3c3.2-0.7,5.8-1.3,6-1.4c0.1-0.1,1.5-0.3,3-0.5c1.5-0.2,3.1-0.5,3.6-0.6
			c1.3-0.3,2.5,2.4,2.2,5.1C391.2,682.6,385.7,686.8,379.8,684.7z M493.3,674c-2.2-1.1-4.5-4-4.9-5c-1.2-2.8-3-6.1-1.6-10.4
			c2.4-7.2,11.6-9.6,16.4-4.3c2.9,3.2,4.4,12.3,2.6,15.7C503.2,674.7,497.9,676.4,493.3,674L493.3,674z M470.5,673.5
			c-1.9-0.5-4-2-4.6-3.2c-0.2-0.5-0.5-0.8-0.6-0.8c-0.1,0-0.2-1.1-0.2-2.4c0-1.3-0.1-2.8-0.2-3.3s-0.1-0.9,0.1-0.8
			c0.2,0.1,0.4-0.2,0.5-0.6c0.3-1,2.5-3.4,3.7-4c1.9-1,4.1-0.7,6.5,1l2.2,1.5l0.3,5c0.1,2.7,0.3,5.2,0.4,5.6c0.1,0.3,0,0.5-0.2,0.4
			c-0.2-0.1-0.5,0.1-0.7,0.5C476.8,673.9,473.8,674.4,470.5,673.5L470.5,673.5z M359.8,650.2c-0.1-0.1-2.7-0.3-5.7-0.4l-5.5-0.2
			l0.8-1.6c2.1-3.9,8-4.6,11.1-1.3c1.3,1.4,2,2.7,1.6,3.1C361.7,650.1,360.1,650.4,359.8,650.2L359.8,650.2z M374.4,647.9
			c-1.5-2.9,1.2-9.3,4.5-10.7c4.4-1.9,9.2,1.5,9.9,7.1l0.2,1.8l-4,0.9c-2.2,0.5-4.7,1-5.6,1.1c-0.9,0.1-2.3,0.2-3.2,0.3
			C375,648.6,374.7,648.5,374.4,647.9L374.4,647.9z M405.7,639c-8.6-3.2-9-12.8-0.7-16.7c7-3.2,12.4,0.2,13.3,8.3
			C419,636.7,412,641.3,405.7,639z M350,638.7c-1.8-0.7-4.6-3.4-5.7-5.6c-3.4-6.9,4.3-14.7,12.3-12.5c5.2,1.5,7.4,10.6,3.5,15.1
			C357.7,638.4,353.1,639.8,350,638.7z M460.2,635.6c-4.8-7,5.2-13.7,11.3-7.5c1,1,1.9,2.3,2.2,2.9l0.4,1.1l-2,0.9
			c-1.1,0.5-2.6,1-3.4,1.1c-0.8,0.1-1.9,0.5-2.5,0.9c-0.6,0.4-2,1-3.1,1.3l-2,0.7L460.2,635.6L460.2,635.6z M501.5,624.5
			c-2.1-2.2-2.8-4-3.2-8.5l-0.3-3.9l1.3-2.8c1.8-3.7,3.5-5.4,7.1-7c5.1-2.2,7.7-2.7,10.1-1.8c0.9,0.3,1.4,0.4,1.5,0.1
			c0.1-0.2,0.2,1.3,0.2,3.3c0,5.6-1.9,10.1-5.3,12.2c-2.3,1.4-6.6,5.4-8.8,8.2l-1.2,1.5L501.5,624.5L501.5,624.5z M462.2,615.9
			c-5.1-1-9.2-7.7-7.8-12.7c1.1-3.9,6.7-6.6,10.6-5.1l1.5,0.6l1.8,6.1c1,3.3,1.7,6.1,1.5,6.2c-0.2,0.1-0.3,0.3-0.3,0.5
			C469.6,613.8,465.2,616.4,462.2,615.9L462.2,615.9z M433,614.3c-0.9-0.7-2.6-1.7-3.7-2.3c-7.7-4.1-8-12.8-0.6-16.6
			c4.2-2.2,11-2.4,13.8-0.5c4.8,3.3,5.7,12.9,1.5,17.7C441.4,615.8,436.2,616.6,433,614.3L433,614.3z M324.1,609.3
			c-2.2-9.4-3.7-17.2-3.3-17.7c0.4-0.7,2.7-0.7,4.1-0.1c2.8,1.3,4.5,3.8,5.6,8.3c1.6,6.5,0.5,9.9-3.9,12.1l-1.7,0.8L324.1,609.3
			L324.1,609.3z M384.4,607.1c-4.4-1.3-7.3-10.8-4.9-15.5c2.3-4.5,11.3-6.4,15-3.1c3.1,2.7,4.3,9.6,2.3,13.4
			C395.1,605.6,388.5,608.3,384.4,607.1L384.4,607.1z M349.4,601.5c-10.6-3.4-12.6-13.2-3.8-18.8c7.3-4.6,17.3-2.9,20.2,3.5
			c2.9,6.4,0.8,12.2-5.3,14.6C358.2,601.6,351.2,602.1,349.4,601.5z M485.7,600.2c-0.1-0.1-1.4-0.2-2.9-0.3
			c-3.8-0.2-5.6-1.4-8.6-5.2c-6-8-5.1-17.6,2-21.2c12-6,26.9,15.9,16.8,24.6C491.1,599.8,486.6,601.1,485.7,600.2L485.7,600.2z
			 M163.5,583.2c-2.8-1.9-1-8.9,2.9-11.3c5.6-3.5,14.8,0.2,13.4,5.3c-0.5,1.9-5.1,5.1-7.7,5.5C168.6,583.3,163.9,583.5,163.5,583.2
			L163.5,583.2z M433.6,582.3c-2-0.8-3.7-2.3-5.2-4.6c-0.8-1.2-1.8-2.7-2.3-3.3c-3-3.7-2.7-10.2,0.6-13c2.8-2.4,9.2-3.9,12.2-3
			c6.7,2,9.2,15.4,4.1,21.5C441,582.3,436.5,583.4,433.6,582.3L433.6,582.3z M148.8,571.2c-3.3-2.7-6.1-6.3-11.3-14.8l-2.9-4.7
			l0.6-1c2.1-3.6,8.3-4.5,12.2-1.7c0.8,0.5,2.2,1.3,3.1,1.6c5,1.9,8.3,11.6,5.8,17c-0.7,1.6-4.3,5.5-5,5.4
			C151,572.9,149.9,572.1,148.8,571.2L148.8,571.2z M394.2,569.8c-5.4-2.7-7.9-11.7-4.4-15.9c0.4-0.5,1.1-1.9,1.4-3
			c1.3-4.4,4.8-6.6,11.3-6.9c4.3-0.2,5.8,0.2,7.5,2.1c3,3.3,3.9,10.5,1.7,15C408.3,567.9,399.2,572.4,394.2,569.8L394.2,569.8z
			 M181.8,565.5c-7.1-1.7-11.3-10.9-7.3-16.1c0.5-0.6,0.9-1.4,0.9-1.8s0.1-0.2,0.3,0.4c0.4,1.7,1,1.5,3.3-1c2.4-2.5,3.6-3.1,7.2-3.1
			c5.3-0.1,8.2,4.1,8.2,12C194.4,562.6,188.4,567.1,181.8,565.5L181.8,565.5z M312.6,556.5c-0.7-0.1-4.9-17.4-5.7-23.4
			c-0.2-1.7,0.6-2.4,2.8-2.4c3.2,0,11.1,9.1,12.2,14c1.5,6.6,0.2,9.2-5.4,11.3C314.5,556.7,314,556.8,312.6,556.5L312.6,556.5z
			 M344.6,556.1c-6.7-2.4-10.9-7.3-11.3-13.3c-0.8-9.8,5-16.9,14-16.9c4.1,0,5.3,0.5,8.3,3.5c6.6,6.7,8.4,20,3.2,24.4
			C355.6,556.5,348.9,557.6,344.6,556.1L344.6,556.1z M458.9,551.6c-0.9-0.2-2-0.7-2.5-1c-0.5-0.3-1.3-1-2-1.4c-0.6-0.5-1-0.9-0.9-1
			c0.1-0.1,0.1-0.2-0.1-0.2c-0.5,0-1.8-3.6-2.4-7c-0.5-2.7-0.7-9.3-0.3-8.2c0.1,0.3,0.6-0.2,1.2-1.3c1.8-3.1,3.5-3.9,8.2-3.9
			c6.5,0,9,2.5,9.8,9.9C470.9,546.5,465.7,553.3,458.9,551.6L458.9,551.6z M489.8,551.1c-3.2-0.8-7.1-4.4-9-8.4
			c-3.8-7.9,2.4-15.6,12.6-15.6c3.4,0,7.6,3.1,9.2,6.8c0.7,1.6,0.7,8.1,0,10.4C501.1,549,494.8,552.3,489.8,551.1L489.8,551.1z
			 M154.6,529c-1.7-0.7-6.5-5.6-7.3-7.3c-0.8-1.7-0.3-6.6,0.8-9c1.5-3.2,5.7-5.7,10-6.1c3.7-0.3,4.1-0.1,4.6,2.3
			c0.2,1.2,1,3.1,1.9,4.5c0.8,1.4,2,3.4,2.6,4.6l1.1,2.2l-0.7,1.4C164.7,527.6,159,530.9,154.6,529L154.6,529z M118.7,527.7
			c-0.8-0.3-1.9-0.7-2.3-1c-0.4-0.3-1.1-0.6-1.5-0.7c-0.4-0.1-1.4-1.1-2.4-2.2c-1-1.2-2.5-3-3.5-4s-1.5-1.7-1.2-1.5
			c0.5,0.4,0.5,0.2,0.4-1.5c-0.4-5.4,2.8-10.4,6.8-10.4c9.7,0,15.5,5.7,14.9,14.6C129.5,526.1,124.1,529.4,118.7,527.7L118.7,527.7z
			 M372.4,526.4c-6.2-1.8-9-14-4.2-18.1c8.1-6.9,17.3-5.3,18.3,3.2C387.8,521.4,380.8,528.8,372.4,526.4L372.4,526.4z M241.8,518.7
			c-3.1-1.9-3-11.1,0-15.3c4.2-5.8,10.1-7.4,14-4l1.3,1.1l-2,2.8c-1.1,1.5-3.3,4.1-4.8,5.7c-2.3,2.4-4.3,5.1-7.2,9.7
			C242.9,519.3,242.7,519.3,241.8,518.7L241.8,518.7z M465.4,517.6c-8.6-2.2-11.2-13.5-4.7-20.9c3.8-4.4,9.5-4.9,12.6-1.2
			c0.6,0.7,1.7,2.1,2.5,3.1C483,507.1,475.9,520.3,465.4,517.6z M314.9,511c-7.3-3.6-9.1-16.3-3.3-22.3c7.8-8,18.2-2.7,18.9,9.7
			c0.3,5.3-0.7,7.7-4.9,10.9C322,512.2,318.4,512.8,314.9,511L314.9,511z M193.2,509.1c-0.5-0.4-0.6-1.5-0.7-6.1
			c-0.2-5.8-0.8-9.1-2.1-11.7c-0.6-1.2-0.6-1.2,0.6-2.8c2.4-3.2,5.6-5.3,7.6-4.8c2,0.5,7.3,6.8,7.9,9.3c1.8,7.8,0.3,12.8-4.6,15.4
			C199.4,509.6,194.5,510,193.2,509.1L193.2,509.1z M188.5,505.5c-1.4-1.5-1.8-3.2-1.8-7c0-2.7,0.1-3.4,0.3-2.6
			c0.2,0.6,0.6,1.6,1,2.4c0.7,1.2,1.7,7.5,1.3,7.9C189.3,506.3,188.9,506,188.5,505.5L188.5,505.5z M220.3,505.1
			c-10-3.8-10.6-17.4-1-23.6c3.8-2.5,11.5-3.3,15-1.6c6.2,3,6.6,15.5,0.7,21.8C231.7,505.2,224.8,506.8,220.3,505.1L220.3,505.1z
			 M493.2,501.7c-5.6-2.8-9.3-10.2-8.7-17.4c0.4-4.3,0.5-4.6,2.7-7.4c3.3-4.1,4-4.6,7.7-4.6l3.1-0.1l0.4,2.9
			c0.8,5.5,2.4,12.4,4.2,17.6c1,2.9,1.6,5.1,1.5,5c-0.2-0.1-0.4,0.1-0.5,0.5C502.4,501.8,497,503.6,493.2,501.7L493.2,501.7z
			 M139.4,498.2c-3.8-0.6-7.3-3.4-8.1-6.3c-0.2-0.8-0.3-1.5-0.3-1.6c4.4-3.5,17.9-10.8,17.9-9.6c0,0.6,3.2,7.1,4.3,8.9
			c0.5,0.8,0.8,1.5,0.7,1.6c-0.1,0.1-0.7,0.8-1.2,1.7C150.2,497.3,145.4,499.2,139.4,498.2L139.4,498.2z M347.7,497.1
			c-9.2-4.6-9.8-19.2-0.8-21.1c9.1-2,16.6,3.6,16.6,12.3C363.6,496,355,500.8,347.7,497.1L347.7,497.1z M260.9,489.7
			c-1.4-0.7-1.6-1-3.9-4.6c-3.6-5.8-3.1-12,1.4-17.3c2-2.4,7.4-4,9.1-2.9c0.6,0.4,3.3,8,2.9,8.1c-1,0.3-0.3,1.9,2.3,5.3
			c1.8,2.4,2.9,6.3,2,7.2c-0.3,0.3-2.9-1.6-6.1-4.2c-4.5-3.8-7.6-2.3-4.3,2.2c1,1.5,1.1,1.6,0.6,2.5c-0.3,0.6-0.5,1.2-0.5,1.5
			C264.5,489.9,263,490.8,260.9,489.7z M459.4,471.3c-1-0.4-1.1-0.6-1-1.5c0.1-0.5,0.5-3.4,0.9-6.2c0.4-2.9,1.4-8.5,2.1-12.5
			c0.8-4,1.4-7.4,1.4-7.6c0-0.5,3.2,0.1,5.4,1.1c2.4,1.1,6.6,5.3,7.8,7.8c1.8,4,0.9,12.2-1.7,15.4
			C471.7,470.9,463.2,472.9,459.4,471.3L459.4,471.3z M214.9,466.8c-0.8-0.2-1.8-0.5-2.2-0.7c-0.4-0.2-1.5-0.6-2.4-0.9
			c-1.8-0.5-4.3-2.4-4.3-3.2c0-0.5,3.9-5.3,13.8-17.2c4.1-4.9,4.1-4.9,6.8-3.1c3,2.1,6.1,11.6,5.1,16.1
			C230.4,464.2,222.7,468.4,214.9,466.8z M318.4,465.5c-7.2-2.2-9.9-16.1-4.1-21c9.5-8,18.4,2.2,13.5,15.5
			C326.1,464.5,322.4,466.7,318.4,465.5L318.4,465.5z M244.2,455c-4.7-1.7-7.4-6.3-7.1-12.2c0.6-13.4,22.6-19,28.4-7.3
			c3.4,6.9-0.9,15.5-8.8,17.8C248.6,455.5,246.6,455.8,244.2,455z M483,445.4c-4-2-7.9-10.2-7.9-16.5c0-11.5,16.7-16.9,21.4-6.9
			l0.8,1.7l-0.8,1.8c-0.5,1-1,2.6-1.2,3.6c-0.6,3.3-1.2,8.8-1.2,10.5c0,0.9-0.1,1.6-0.2,1.5c-0.2-0.1-0.8,0.6-1.3,1.5
			C490.1,446.4,487,447.4,483,445.4L483,445.4z M276.6,427.6c-4.9-5.3-4.7-12.4,0.4-17.5c6.1-6.1,17.8-1.4,19.7,8
			c0.9,4.3,0.8,5-0.5,4.3c-3.5-1.8-11.4,0.8-15.9,5.2l-2,2L276.6,427.6L276.6,427.6z M251.7,419.1c-2.6-0.7-4.2-2.6-4.6-5.7
			c-0.2-1.5-0.5-1.2,7.8-10.4l4-4.4l1.6,0.2c3.8,0.6,7,6.3,5.6,10.2C263.8,415.7,256.9,420.4,251.7,419.1L251.7,419.1z M508.9,405.4
			c0.1-0.3-0.3-0.6-1.2-0.9c-1.7-0.5-4.1-2.9-4.7-4.6c-0.6-1.8-0.2-11.8,0.5-13.7c2.8-7.5,11.8-11.4,20.3-8.8
			c4.1,1.3,7.4,5.2,5.5,6.5c-1.5,1.1-4.6,4.1-8.1,8.2C515.1,399.1,508.6,406.1,508.9,405.4L508.9,405.4z M481.6,401.1
			c-0.8-0.3-2.2-1.1-3-1.9s-2.1-1.6-2.8-2c-3.3-1.7-3.3-1.6-1.1-9.6c1-3.5,1.8-6.5,1.8-6.8c0-1.4,6.7-6,9.1-6.2
			c8.2-0.8,12.7,16.6,6.2,23.8C489.5,401.2,485,402.3,481.6,401.1L481.6,401.1z M274.6,395c-2.4-0.8-5.6-3.9-5.6-5.5
			c0-0.7-0.4-0.6-1.5,0.5c-0.6,0.5,0.7-0.8,2.8-3c4.2-4.3,8.7-9.8,10.7-13.1c1.5-2.5,1.4-2.7,3.3,3.2c0.8,2.4,2.3,6.3,3.3,8.6
			l1.8,4.1l-0.8,1.2c-0.9,1.5-2.9,3.1-4.6,3.7C282.7,395.2,275.9,395.4,274.6,395L274.6,395z M539.6,374.9c0.3-0.4,0.3-0.7-0.4-1.5
			c-2.4-2.9,1-11.1,5.3-13c0.6-0.3,1.7-0.9,2.6-1.5c2.3-1.5,4.7-1.7,7-0.4l1.7,1l-3.7,4.2c-2.1,2.3-5.2,5.4-7.1,6.9
			c-1.8,1.5-3.9,3.2-4.6,3.8C539.7,374.9,539.3,375.2,539.6,374.9L539.6,374.9z M517.9,364.7c-7.2-3.4-8.9-9.6-3.9-14.5
			c7.3-7.3,14.3-8.1,19.9-2.3c5.7,5.9,5.3,12.3-1.1,16C529.1,366,521.6,366.4,517.9,364.7L517.9,364.7z M486.1,360.8
			c-0.7-0.4-1.6-1.1-2.1-1.6c-0.5-0.5-1-0.8-1.2-0.7c-0.2,0.1-0.2,0-0.1-0.2c0.3-0.5,2-8.8,2-9.9c0-1.9,5.9-3.6,8.4-2.4
			c3.4,1.7,4.7,7.7,2.7,11.6C494,360.9,489.2,362.5,486.1,360.8L486.1,360.8z M561.2,348.6c-2.4-2.3-2.6-3.4-1.8-7.7
			c1.4-7.2,8.2-10.5,12.5-6c2.4,2.5,2.6,3.3,0.8,5.1c-1.5,1.5-7.1,7.8-8.2,9.3C563.5,350.6,563.2,350.5,561.2,348.6z M488.1,336.3
			c-1.2-0.8-1.3-1-1.3-2.8c0-1-0.2-2.7-0.4-3.6c-0.5-2.1,0-3.4,1.7-4.5c2.1-1.4,4.8,0.6,6.9,5.1c1.2,2.5,2.1,5.3,1.3,4.3
			c-0.3-0.4-0.4-0.4-0.7,0.2C494.5,337.2,490.5,337.9,488.1,336.3z M524.6,329.8c-3.3-2-4.2-9-1.5-11.4c0.8-0.7,2.5,1,3.7,3.8
			c0.9,2.2,1.5,1.5,1.2-1.5l-0.2-2l2.9-1.8c3.5-2.1,3.5-2.1,4.5-0.6c3.3,4.5,1.2,12.1-3.9,13.8C529,330.7,526,330.7,524.6,329.8
			L524.6,329.8z M573.9,327.7c-4-0.9-6.6-7.4-4.3-11c4.3-7,14.4-9.2,17.9-4c3.5,5.2,1.6,13.1-3.5,14.7
			C582.5,327.7,575.5,328,573.9,327.7L573.9,327.7z M552.5,321.7c-2.8-0.7-5.7-3.1-6.7-5.6c-0.8-1.9-0.5-7.7,0.4-8.4
			c2.7-1.9,8.5-6.1,9.5-6.8c2-1.5,6-0.6,7.8,1.9c3.2,4.2,2.5,10.5-1.7,16.4C560.5,321.2,555.5,322.5,552.5,321.7L552.5,321.7z
			 M606.5,305.8c-2.9-7,1.2-14.2,8.3-14.6c3.7-0.2,7.2,2,5.4,3.3c-2.3,1.7-6.6,5.5-8.1,7.3C607.3,307.4,607.2,307.5,606.5,305.8
			L606.5,305.8z M585.3,302.2c-5.1-1.9-9.7-8-9.9-13.2l-0.1-2.5l5.6-3.8l5.6-3.8l2.7,0.1c3.5,0.2,5,1.2,7.5,4.9l1.8,2.6l0.2,8.2
			l-1.5,2.5C594.6,301.7,589.6,303.8,585.3,302.2L585.3,302.2z M610.1,276.3c-4.5-2.3-7.7-7.5-5.5-9c0.4-0.3,2.2-1.7,3.8-3.1
			c4.4-3.7,3.9-3.8,5.5,1.3c0.8,2.5,1.8,5.9,2.3,7.5l0.9,3.1l-1,0.4C614.4,277.2,611.5,277,610.1,276.3z"/>
		<path class="st6" d="M309.1,328.1c0.8-0.7,2.9-2.6,4.7-4.3c4.1-3.7,10.2-11.1,14-16.8c1-1.5,2.8-4,4-5.5c3.7-4.6,4.9-8.5,3.1-9.7
			c-1.1-0.7-2.3-0.1-3.4,1.8c-0.4,0.7-0.9,1.2-1.1,1.2c-0.2,0-0.9,0.4-1.5,1c-0.6,0.5-2.2,1.6-3.4,2.4c-1.2,0.8-3.4,2.3-4.8,3.5
			c-2.4,1.9-4.8,3.4-12.6,7.8c-6.4,3.6-9.3,4.6-19.4,6.6c-4.2,0.8-10.8,1.8-12.4,1.8c-0.1,0,0.2-0.4,0.7-0.9
			c0.5-0.5,0.9-1.1,0.9-1.4c0-0.3,0.4-0.7,1-0.9l1-0.4l-0.8-0.6c-0.8-0.6-0.7-0.6,1.8-1.1c8.2-1.4,18.2-6.2,18.2-8.7
			c0-2.4-3.8-2.4-9.2-0.2c-4.1,1.7-7.1,2.6-13.1,3.7c-5.4,1-5.2,1-5.2,0.2c0-1.6-2.5-2.1-8.7-1.5c-2.3,0.2-7.1,0.5-10.5,0.6
			c-3.5,0.1-7.1,0.3-7.9,0.3c-0.9,0.1-2.8-0.1-4.2-0.3c-2.5-0.4-2.6-0.4-1.8-1.1c0.7-0.6,0.8-0.6,1.2,0c0.4,0.6,0.8,0.6,6.4,0.2
			c12.7-0.9,17.8-2,28.5-6.1c9.5-3.6,10.3-4,14.1-6.3c3.1-1.9,7.7-4,12.1-5.6c3.2-1.1,8.1-4.5,7.7-5.2c-0.3-0.5-4.3,0.3-9.1,1.8
			c-4.1,1.3-4.2,1.3-4.9,0.7c-1.7-1.6-6.4-0.8-18.1,3.2c-10,3.4-22.2,5.8-28.9,5.8l-1.8,0l2.7-1.2c3.7-1.6,7-3.6,13.4-8
			c6.3-4.4,6.6-4.5,13.6-7.3c8.6-3.4,11.6-4.8,14.5-6.7c1.5-1,4.2-2.4,5.9-3.2c3.7-1.7,5.2-2.9,5-4c-0.3-2.3-4.2-1.9-11.6,1.1
			c-5,2-5.2,2.1-7.2,1.8c-5.1-0.7-20.1-1.2-24-0.8c-2.1,0.2-6.6,0.6-10,0.8c-3.4,0.2-6.9,0.5-7.8,0.7c-6.6,1.3-15.2,0.7-19.8-1.5
			l-2.4-1.1h14c13.9,0,15.7-0.1,17.4-1.2c1.7-1.1-0.2-1.2-14.7-1.1l-14.3,0.1l1-0.8c1.3-1.1,1.4-0.9-1.9-3.8
			c-10.5-9.2-13.9-12.7-17.3-17.6c-0.2-0.3,0.9,0.7,2.4,2.2c8,7.9,18.8,12.4,37.9,15.8c8,1.4,32.3,1.2,37.3-0.4
			c1.3-0.4,4.3-1.2,6.7-1.8c7.9-1.9,13.9-5.1,15.6-8.4c0.3-0.6,1-1.2,1.6-1.5c1.1-0.5,1.5-1.6,0.6-2c-0.6-0.2-5.4,1.4-9.7,3.4
			c-1.8,0.8-5.3,2-7.6,2.5c-2.3,0.6-5.7,1.4-7.6,1.9c-2.1,0.5-5.2,1-8.1,1.2c-2.6,0.2-6,0.5-7.6,0.7c-3.4,0.5-19.2,0.2-23.1-0.4
			c-4.2-0.6-11.5-2.4-15-3.5c-3.6-1.2-11.7-7.9-9.2-7.5c1.4,0.2,2.5-0.6,2.1-1.6c-0.1-0.4-2.1-2.1-4.4-3.8c-5.6-4-9-7.3-10.8-10.3
			c-2.2-3.8-2.2-3.9,0.3-2.5c1.2,0.7,3.6,1.8,5.4,2.5s3.9,1.6,4.6,2.1c0.8,0.5,1.7,0.9,2.1,0.9c0.4,0,2.2,0.6,4.2,1.3
			c9.9,3.7,32.6,6.5,53.3,6.5c4.3,0,4.4,0,3.8,0.7c-3,3.3,7.3,3,12.4-0.4c1.2-0.8,3.6-4.6,3.6-5.7c0-2.2-2.2-2.4-6.4-0.7l-3.3,1.3
			l-14.6,0c-24,0-37.1-1.6-50.3-6.2l-5-1.7l-4.7-4.6c-2.6-2.6-6.1-6.1-7.8-7.8l-3.1-3.2h7.5c6.9,0,7.6-0.1,8.3-0.7
			c1.4-1.3,0.7-3-1.4-3.5c-1.9-0.5-7.6-3.5-10.6-5.6c-6.6-4.7-15.4-12.2-13.8-11.7c8.4,2.7,19.5,4.8,26.3,4.8
			c5.8,0,10.1,1.4,24.1,7.7c11.4,5.2,15.2,6.3,14.9,4.5c-0.3-2.1-18-11.1-27.9-14.2c-1.1-0.3-2-0.7-1.9-0.8s1.3,0.2,2.7,0.6
			c2,0.6,3.6,0.8,2.8,0.3c-0.6-0.3-6.8-2.4-12.3-4.1c-10.2-3.1-10.9-3.6-18.1-10.6c-5.2-5.1-9.3-8.6-11.2-9.8
			c-1.9-1.2-1.5-1.2,2.6-0.6c13.8,2.2,19.2,3.8,36.1,10.9c13.1,5.5,15.7,6.5,17,6.5c3,0,0.6-2.3-7.8-7.2c-0.4-0.2,0.4-0.3,2.7-0.2
			c4.8,0.2,7.8-0.2,7.6-0.9c-0.1-0.6-5.5-1.4-9.9-1.4c-6.1-0.1-22.2-9.9-24.9-15.2c-0.7-1.4-0.7-1.5-0.1-1.2c1.7,0.7,6,1.7,9.8,2.3
			c4.5,0.8,6.7,1.4,21.7,6.5c9.3,3.2,16.5,6.6,20,9.6c1.4,1.2,2,1.5,2.3,1.3c0.6-0.7-6.1-7.6-9-9.3c-8.4-4.9-27.2-12.4-35.6-14.2
			c-2.5-0.5-6.5-1.6-8.8-2.3c-6.3-2.1-18.7-5.3-22.7-6l-2.6-0.5l3.9-0.3c33-2.1,39.8-1.2,60.6,8.7c15.4,7.3,22.7,10.3,22.7,9.3
			c0-1.2-1.2-2.5-4.3-4.7c-17.7-12.5-36.7-20-51-20h-4.1l-7.8-3.9c-7.5-3.8-10.8-5.9-14.6-9.2l-1.8-1.6l2.8,0.5
			c1.5,0.3,4.4,0.9,6.5,1.4c8,1.8,9.6,2,17.8,2.2l8.1,0.2l3.3,1.3c4.2,1.7,8,3.7,12.7,6.7c3.9,2.5,10.8,6.1,11.2,5.7
			c1.3-1.4-12.5-11-20.8-14.5c-1.6-0.7-2.4-1.2-2.4-1.6c0-0.7-1.6-2-3.8-3.1c-0.9-0.4-2-1.2-2.5-1.8c-0.5-0.5-2.5-2.2-4.4-3.8
			c-6.1-4.9-10.8-9.6-16.2-16.5c-1.5-2-1.5-1.9,2.5,1.3c5.2,4.2,9.5,6.4,13.9,7.2c3.6,0.6,7.4,0.7,7.6,0c0.4-1,3.3,0,6.9,2.3
			c5,3.2,11.2,7,11.4,7c0.2,0-3.9-3.3-9.7-7.7c-4.6-3.5-5.3-4.2-5.3-5.2c0-0.6-1-2-3.2-4.4c-4.3-4.8-5.5-6.5-8.6-11.8
			c-2.8-4.7-3.3-5.9-1.7-4.1c0.5,0.6,2.5,2.3,4.5,3.9c2,1.5,4.9,4.1,6.4,5.7c2.8,2.9,8.6,7.5,12.2,9.5c2,1.2,9.9,6.9,11.9,8.5
			c0.7,0.6,6.8,6.5,13.6,13.2c11.4,11.2,15.1,14.5,16.5,14.5c1.1,0,1-0.9-0.5-2.3c-0.8-0.8-2.7-3-4.2-5
			c-5.5-7.1-19.5-21.2-25.5-25.7c-5.6-4.2-8.1-8.3-14.7-23.4c-0.6-1.4,0-0.9,5.4,4.6c12.9,13,20,19.3,21.8,19.3
			c0.8,0,1.7,0.7,4.5,3.5c4.7,4.7,13.2,10.3,14.9,9.8c1.8-0.6,1.1-2-1.9-3.9c-10.3-6.2-14.3-9.4-16.9-13.4c-1.1-1.7-3.2-4.2-4.6-5.6
			c-1.4-1.4-2.6-2.7-2.6-2.8c0-0.1-0.4-0.7-0.8-1.3c-0.4-0.6-1.8-3-2.9-5.3c-1.2-2.3-2.9-5.6-3.8-7.3c-0.9-1.7-2.5-5.1-3.5-7.6
			c-1-2.5-2.3-5.4-2.8-6.5l-0.9-2l4,2.9c2.2,1.6,5.2,3.7,6.8,4.8c7.9,5.4,17.5,15.2,28.4,29c5.8,7.3,10.9,12.2,13.4,12.8l0.9,0.2
			l-0.5-1.7c-2-6.7-20.3-29.8-30.4-38.3c-2.2-1.9-3.2-3.4-1.4-2.1c1.8,1.2,2.2-0.4,0.6-2.1c-0.9-0.9-1.4-2.2-2.8-7.1
			c-2.1-7.4-3.5-11.5-5.5-16.6c-0.8-2.2-1.5-4.1-1.4-4.2c0.4-0.4,7.3,5.7,15.7,13.8c4.9,4.8,10.5,9.9,12.4,11.5
			c1.9,1.5,3.5,3,3.6,3.3c0.1,0.3,0.5,0.5,0.9,0.5s1.3,0.5,2,1c6.7,4.9,4.8-0.8-3.4-10c-2.5-2.8-5.9-8.5-10.3-16.8
			c-4.9-9.4-6.6-12.7-7.8-14.7c-1.6-2.7-1.4-2.7,2.2,0.2c6.8,5.4,17.6,17.8,19.5,22.5c1.2,3,9.9,17,11.3,18.3
			c0.4,0.4,1.9,2.1,3.3,3.7c3.5,4.2,13.6,14,14.7,14.3c3,0.7,2-1.5-2.7-6.5c-1.3-1.3-1.7-1.9-1.4-2.1c0.3-0.2-1.7-2.7-6.3-8.2
			c-9.1-10.7-11.8-15.1-16-25.7c-1.5-3.8-3.5-7.5-4.5-8.4c-1.3-1.3-10.2-21-10.2-22.8c0-0.2,3,3.2,4.6,5.2c0.9,1.1,4.7,5.1,8.4,9
			c11.5,11.8,13.4,14.2,19.1,24c4.9,8.4,11.1,17.4,12,17.4c0.2,0,1.2-0.6,2.4-1.3l2.1-1.3l-2.3-3.5c-1.3-1.9-4-6.8-6.1-10.8
			c-4-7.8-6-11.1-9.1-15.1c-1.7-2.2-1.9-2.8-2-4.4c-0.1-1.9-0.8-3.8-3.1-9.5c-1.5-3.7-5.9-21.1-5.3-21.1c0.5,0,6.9,5.4,9.7,8.1
			c5.3,5.3,13.2,17.4,20.2,31c3.7,7.1,5.3,9.6,6.2,9.6c0.8,0,2.1-1.7,2.1-2.8c0-1.9-2.8-9.3-5.6-14.7c-1.8-3.5-2.6-5.4-2.3-5.5
			c0.3-0.1,0.5-1.3,0.6-3.2c0.2-3.1,0.2-3.2-1.8-11.8c-0.4-1.8-0.7-3.4-0.6-3.5c1-1,16,14.7,20.7,21.7c4.1,6.1,8.2,10,9.1,8.6
			c0.4-0.6,1.2,0.3,2.7,2.9c1.7,3,1.7,2.9,0.9-1.2c-0.4-1.8-0.6-3.6-0.5-3.8c0.1-0.3-1.1-4.4-2.6-9.2c-3.5-10.7-5.7-17.7-5.7-18.1
			c0-0.5,6.9,5.3,9.2,7.7c2,2.1,4.4,5.3,12.9,16.6c2.6,3.5,5,6,4.5,4.8c-0.6-1.6-1.2-3.8-1.2-4.4c0-0.3,0.2-0.1,0.3,0.4
			c0.4,1.2,2.4,4.2,2.8,4.2c0.4,0,0.4-0.9,0-1.8c-0.3-0.6-4.9-18.3-6.2-23.8l-0.5-2.1l0.7,0.9c0.4,0.5,2.1,2.5,3.9,4.4
			c3.3,3.8,7.1,8.6,10.9,13.8c2.7,3.8,4.3,4.8,4.8,3.1c0.3-1.1,1.3,1.6,1,2.8c-0.1,0.6,0,0.9,0.4,1c0.9,0.4,1.7-1,2.6-4.2
			c0.4-1.6,0.9-3.3,1.1-3.8c0.2-0.5,0.7-3.5,1.1-6.9c0.9-7.6,0.9-7.4,1.9-5.7c1.4,2.4,2.9,6.6,5.3,15.1c4.2,15.5,5.3,17.5,7.1,14.1
			c0.5-0.9,0.8-1.1,1.1-0.9c0.7,0.5,0.9,0.2,2.7-2.9c1.7-3.1,2.2-4.7,3.2-11l0.6-3.9l1,3c0.9,2.6,2,6.5,6.1,22.1
			c1.2,4.7,1.6,5.4,2.8,5.4c1.2,0,1.6-0.7,1.6-2.5c0-1.3,0.1-1.7,0.8-2.1c1.8-1,5.5-6.6,7.5-11.5c2.3-5.8,2.2-6.2,2.6,7.8
			c0.3,10.6,0.4,11.8,1.3,11.1c0.4-0.3,0.5,0.3,0.6,3.5l0.1,3.9l-1.5,1.5c-1.7,1.6-1.9,2.5-0.8,3.1c2.4,1.3,6.4-1.8,11.2-8.8
			c3.8-5.5,3.5-5.5,3.5,0c0,6.1-1.7,16.7-3.4,20.8c-0.8,2-0.3,4.4,0.8,3.7l0.8-0.5l-0.4,1.3c-0.2,0.7-0.4,1.6-0.4,2
			c0,0.3-0.2,0.6-0.5,0.6c-1.6,0-3,1.7-2.2,2.7c1.3,1.5,5.5-0.2,8.7-3.5l2.2-2.3v1.5c0,1.8-1.1,6.3-2.3,9.1
			c-1.2,2.8-1.1,3.4,0.9,4.4c0.9,0.5-3.4,3.2-6.2,4c-1.8,0.5-2.4,1.1-1.9,2.1c1,1.9,5.8,0.7,11.4-3c1.3-0.8,2.5-1.5,2.6-1.5
			c0.6,0-4.4,6.4-7.3,9.3c-1.4,1.4-1.6,2.1-1,2.5c0.5,0.3,0.1,0.9-0.7,0.9c-1.2,0-2.8-1.5-3.9-3.6c-1.1-2.2-3-4.2-4.7-5
			c-1.1-0.5-6.5-5.9-6.6-6.5c0-0.1-0.5-0.6-1.2-1.1c-1-0.7-1.2-1-1.4-2.7c-0.5-5.1-4.1-5.9-4.1-1c-0.1,6.3-5.9,7.1-10,1.3
			c-1.5-2.2-2.7-3.1-4.1-3.5c-0.5-0.1-1.3-0.6-1.8-1.1c-0.9-1-2-1.2-2.3-0.4c-0.1,0.3-0.6,0.5-1,0.5c-0.9,0-1.6,0.7-2.5,2.5
			c-0.6,1.2-1.8,2.8-4,5.3c-1.4,1.6-1.6,1.6-4.9,0.1c-1.1-0.5-2.6-1-3.4-1.2c-2.2-0.4-4.6-1.9-8-5.2c-2.9-2.8-3.8-3.3-4.7-2.7
			c-2.1,1.4-1.2,7.5,1.7,11.1c2.3,2.9,0.9,3.7-6.9,3.8c-1.5,0-4.3,0.4-6.1,0.7c-1.8,0.4-3.4,0.6-3.5,0.5c-1.7-1.1-1.9,3.9-0.4,7.5
			c0.8,1.8,1.8,5.3,1.8,6.4c0,0.8-2.5,1.7-6.4,2.5c-1,0.2-2.3,0.5-2.9,0.7c-0.8,0.3-1.5,0.3-3.1-0.2c-2.6-0.7-3.5-0.4-4.1,1.4
			c-0.4,1.3,0.1,2.8,3.9,9.7l1.4,2.6l-0.8,0.6c-0.4,0.3-1.8,0.9-3,1.3c-4,1.3-5.8,3.8-5.1,7c0.2,0.9,0.4,2.1,0.6,2.6
			c0.1,0.7,0.5,1.1,1.2,1.3c0.9,0.3,3.9,3.5,3.9,4.1c0,0.7-5.9,1.9-11.5,2.4c-4,0.4-3.6,1.8,1.1,4.2c2.1,1.1,2.3,1.3,6.6,7.1
			l1.1,1.5l-0.9,0.4c-0.5,0.2-1,0.4-1.1,0.4c-0.1,0-0.7,0.4-1.2,0.9c-1.5,1.5-1.3,2.7,0.8,4.1c0.5,0.3,1.6,1.1,2.4,1.6
			c0.8,0.6,2,1.3,2.6,1.7l1.1,0.6l-1.2,0.4c-1.7,0.6-8.4,4-9.6,4.8l-1,0.7l0.7,1c0.4,0.5,1.2,1.3,1.9,1.7c1.6,1,3.5,3.6,4.8,6.7
			c1.1,2.7,3.2,5.6,4.1,5.6c0.8,0,1-0.9,0.3-2.1c-0.7-1.4-0.7-1.7,0.1-0.7c0.8,1,3.2,1.7,5.6,1.7c1.7,0,2,0.2,3.5,1.5
			c0.9,0.8,2.6,2.1,3.6,2.9c2.6,1.9,6.7,5.5,6.7,5.9c0,0.4-4.8,2.8-5.7,2.8c-0.8,0-1.7,1.1-1.7,2.2c0,0.9,1,2.1,1.8,2.1
			c0.3,0,0.2,0.2-0.3,0.5c-0.5,0.4-0.8,1.1-1,2.3c-0.1,1.1-0.7,2.4-1.5,3.7l-1.3,1.9l-1.1-2.4c-1.8-3.7-3.5-5.7-5.8-6.8
			c-1.4-0.7-2-1.2-2-1.7c0-3.6-3.5-7.4-6.3-6.9c-2.4,0.5-2.5,1.1-0.4,4.4c0.6,0.9,1.1,2.1,1.2,2.6l0.2,1.1l-0.6-1
			c-0.3-0.5-0.9-1.3-1.3-1.8c-0.4-0.5-1.1-1.6-1.6-2.5c-2-4.1-2.3-4.8-2.6-4.8c-0.2,0-0.7-0.4-1.3-0.8c-0.5-0.5-1.5-0.9-2.1-1.1
			c-0.6-0.1-1.8-0.7-2.8-1.3c-6.9-4.2-17.6-4.7-22.3-1c-0.7,0.5-1.1,1-1,1c0.1,0-0.6,1-1.7,2.1c-1.1,1.2-2.2,2.6-2.5,3.3
			c-0.3,0.6-0.8,1.5-1.3,2c-1.2,1.4-2.6,4.6-2.7,6.5c-0.5,6.2,4.3,18.5,8.9,22.6c1.6,1.4,1.7,1.6,1.1,2c-0.9,0.6,0.8,2,2.5,2
			c2,0,3.1,0.6,2.8,1.5c-0.4,1.4-1.3,2.3-2.7,2.7c-1,0.3-1.4,0.6-1.5,1.3c-0.7,2.7,3,3.8,9.1,2.8c3.9-0.7,4.2-0.6,4.7,1.1
			c0.5,1.5-0.5,2.4-3.1,2.8c-2.2,0.4-1.2,1.3,1.9,1.8c0.9,0.1,1.4,0.4,1.2,0.7c-0.4,1,2,3,3.6,3c0.4,0,0.7,0.2,0.7,0.4
			c0,0.2-0.5,0.4-1,0.4c-2.1,0-1.7,1.3,0.6,1.8c4.6,0.9,5.3,1,7.3,0.7c2.5-0.4,2.4-0.5,2,1.4c-0.2,0.8-0.4,2.5-0.6,3.6
			c-0.2,1.8-0.5,2.3-2.3,4.6c-4.1,5.2-4.8,6.7-3.5,8c0.7,0.7,1,0.7,2.6,0.5l1.8-0.2l-0.2,5.4l-0.2,5.4l-2,3.8
			c-3.1,5.9-8.8,11.3-17.2,16.2c-2.3,1.3-5.8,3.5-7.7,4.8c-1.9,1.3-4.6,2.8-5.8,3.3c-4.1,1.7-6.5,2.5-7.9,2.8l-1.4,0.2L309.1,328.1
			L309.1,328.1z M396.3,91.4c0-0.1-0.1-0.2-0.2-0.2c-0.1,0-0.2,0.1-0.2,0.2c0,0.1,0.1,0.2,0.2,0.2C396.2,91.6,396.3,91.5,396.3,91.4
			z M353.2,181.6c-0.1-0.1-0.3-0.1-0.5,0c-0.1,0.1,0,0.2,0.2,0.2S353.3,181.7,353.2,181.6L353.2,181.6z M244.1,283.8
			c-3.2-1.1-6.1-1.9-6.5-2c-0.4,0,0.9-0.3,2.8-0.7c9-1.7,15.1-5.1,16.7-9.3l0.7-1.7l2.6-0.2c3.2-0.3,17.9-0.3,17.3-0.1
			c-0.2,0.1-2.8,1.2-5.7,2.4c-6.1,2.6-9.3,4.4-13.4,8c-4.4,3.8-7,5.6-7.9,5.6C250.2,285.7,247.3,284.9,244.1,283.8L244.1,283.8z
			 M461.8,128.2c-0.4-0.8-1.2-2.1-1.8-2.8l-1-1.3l1.5-0.4c0.8-0.2,2.3-0.7,3.2-1.1c1-0.4,1.8-0.6,1.9-0.5c0.5,0.5-2.2,7.6-2.8,7.6
			C462.6,129.7,462.2,129,461.8,128.2z"/>
	</g>
	<path class="st7" d="M377.4,284.3c8.4,8.2,15.1,10.4,25.2,17.3c13.6,3.6,26.3,5.5,37.3,4c12.7-1.7,28.6-4,43-12.3l1.8-20
		c-8.4,0.8-14.7-0.3-20.7-1.8c-14.2-3.5-16.1-16.9-24.1-15.4c9.3-3.7,18.3-8.9,22.5-18.5c7.5-16.9,17.4-15.1,24.1-18.2
		c3.7-1.7,3.2-4.7,0-3.7c-2.3,0.7-5.4,0.3-5.4-0.8c0-3.3-5.8,3.9-10.3-2.1c-17.9,2.4-34.9,7.9-49.9,20.7
		c-2.7,15.8-8.8,24.4-16.1,30.4c-12.6,0.5-20.4-2.6-25.5-7.9C367.6,265.5,367.8,274.9,377.4,284.3L377.4,284.3z"/>
	<path class="st6" d="M388.4,290.4l4.7-3.1l2.6,2l-5.6,4.1L388.4,290.4z"/>
	<path class="st6" d="M429.8,277.2l4.7-3.1l2.6,2l-5.6,4.1L429.8,277.2L429.8,277.2z"/>
	<path class="st6" d="M458,283.6l0.4-5.6l3.1-0.8l-0.1,6.9L458,283.6z"/>
	<path class="st6" d="M436.6,232.5l-2.3,5.1l-3.2-0.3l2.5-6.4L436.6,232.5z"/>
	<path class="st6" d="M379.7,283.9l5-2.6l3.6,2.6l-10.7,3.4L379.7,283.9z"/>
	<path class="st6" d="M426.8,305.6l0.4-5.6l4.1-1.7l-2.7,10.9L426.8,305.6z"/>
	<path class="st6" d="M445.1,305.3l0.4-5.6l4.1-1.7l-2.7,10.9L445.1,305.3L445.1,305.3z"/>
	<path class="st6" d="M443.7,274.2l3.7-4.2l4.3,1.1l-8.8,7.1L443.7,274.2z"/>
	<path class="st6" d="M425.4,266.1l3.7-4.2l4.3,1.1l-8.8,7.1L425.4,266.1L425.4,266.1z"/>
	<path class="st6" d="M475.9,225.1l0.2-5.6l-3.9-2.2l1.5,11.1L475.9,225.1z"/>
	<path class="st6" d="M452.6,228.1l0.9-5.5l-3.6-2.7l0,11.2L452.6,228.1z"/>
	<path class="st6" d="M369.7,271.6h9.9l-1.9,3.3l-11.2-0.9L369.7,271.6z"/>
	<path class="st6" d="M374.3,260.7l5.2,3.4l-2.1,1.1l-5.6-4.3L374.3,260.7z"/>
	<path class="st6" d="M391.8,279.3l4.4-4.4l0.6,2.3l-5.4,4.5L391.8,279.3L391.8,279.3z"/>
	<path class="st6" d="M397.2,297.5l4.4-4.4l0.6,2.3l-5.4,4.5L397.2,297.5z"/>
	<path class="st6" d="M406.7,302.5l1.6-6l1.7,1.7l-2.4,6.6L406.7,302.5L406.7,302.5z"/>
	<path class="st6" d="M416.3,305.9l-1.6-6l2.3,0.6l1.2,6.9L416.3,305.9z"/>
	<path class="st6" d="M404.4,278.3l4.4-4.4l0.6,2.3l-5.4,4.5L404.4,278.3L404.4,278.3z"/>
	<path class="st6" d="M412.4,282.9l5.8-2.1l-0.4,2.3L411,285L412.4,282.9z"/>
	<path class="st6" d="M428.1,289.2l2.3-5.7l1.5,1.9l-3.2,6.3L428.1,289.2L428.1,289.2z"/>
	<path class="st6" d="M445.5,291.1l-0.6-6.1l2.2,1l0.1,7L445.5,291.1z"/>
	<path class="st6" d="M443.2,233.6l-0.6-6.1l2.2,1l0.1,7L443.2,233.6L443.2,233.6z"/>
	<path class="st6" d="M450.2,241.6l-0.6-6.1l2.2,1l0.1,7L450.2,241.6z"/>
	<path class="st6" d="M438.5,249l2.7-5.6l1.4,1.9l-3.6,6.1L438.5,249z"/>
	<path class="st6" d="M438.5,249l2.7-5.6l1.4,1.9l-3.6,6.1L438.5,249z"/>
	<path class="st6" d="M422.3,249l2.6-5.6l1.4,1.9l-3.6,6.1L422.3,249z"/>
	<path class="st6" d="M430.3,253.6l0.9-6.1l1.9,1.5l-1.6,6.9L430.3,253.6L430.3,253.6z"/>
	<path class="st6" d="M413.2,264.7l3.7-4.9l0.9,2.2l-4.7,5.2L413.2,264.7z"/>
	<path class="st6" d="M460.7,225.1l1.7-5.9l1.7,1.7l-2.5,6.6L460.7,225.1L460.7,225.1z"/>
	<path class="st6" d="M481.6,284.3l-1.6-6l2.3,0.6l1.2,6.9L481.6,284.3z"/>
	<path class="st6" d="M473.7,284.3l1.6-6l1.7,1.7l-2.4,6.6L473.7,284.3L473.7,284.3z"/>
	<path class="st6" d="M479.1,288.8L477,283l2.3,0.4l1.8,6.8L479.1,288.8L479.1,288.8z"/>
	<path class="st6" d="M486.6,295.1L482,291l2.2-0.8l4.9,5.1L486.6,295.1L486.6,295.1z"/>
	<path class="st6" d="M478.6,300.3l-2.8-5.5l2.4,0.1l2.6,6.6L478.6,300.3z"/>
	<path class="st6" d="M471,301.5l-0.5-6.2l2.1,1l0,7L471,301.5z"/>
	<path class="st6" d="M460.4,303.9l1.4-6l1.7,1.6l-2.1,6.7L460.4,303.9L460.4,303.9z"/>
	<path class="st7" d="M419.2,410.5c1.5-6.9,1.6-14.3,1-22c-6.7,4.7-14.7,10-26.1,10c-13.1,0-23.9-9.8-34.7-17.6l15.8,25.3
		c6.6,11.8,16.4,25.3,28,39.2c1.1-1.5,2.3-3.1,3.4-4.8c-0.3,0.2-0.8,0.4-1,0.6c-3,1.8-4.1,0-5.7-0.6c-0.3-0.1-0.9-0.9-0.8-1.2
		c0.1-0.9,0.3-1.7,1.1-2.5l3-1.8c-0.4-0.4-0.6-0.9-0.5-1.4c0.1-0.4,0.5-0.7,0.8-1c0.7-0.7,1.6-1.6,2.8-1.5c1.8,0.2,4,2,3.4,3.5
		c-0.4,1.2-2.8,2.3-3.8,2.4c-0.3,0.1-1.3,0.2-1.6,0v-0.8c0.4,0.2,1.5,0,1.9-0.2c0.7-0.3,1.9-0.9,2-1.9c0-0.5,0.3-0.9-0.1-1.3
		c-0.2-0.2-0.7-0.6-0.9-0.8c-1-0.5-2-0.4-2.4,0c-0.2,0.2-0.9,1.2-0.9,1.5c0,1,1.1,1.2,2.2,1.2c0.4,0,0.2-0.6,0.2-0.7
		c0-0.2-0.5-0.7-0.5-0.7s1.2,0.2,1.2,0.5c0,0.2,0.3,0.9,0.2,1.2c-0.4,0.7-2.2,1.2-2.9,0.8c-0.4-0.2-0.8-0.5-1.1-0.9
		c-3.7,2.4-1.9,5.6,1.2,5.6c0.6,0,2.4-0.9,2.7-1.5c0.1-0.3,0.3-0.7,0.4-0.9c0,0,0,0,0,0c-0.1-0.1-0.1-0.2-0.2-0.2
		c0-0.1,0.1,0.1,0.2,0.2c0.1,0.1,0.2,0.3,0.3,0.4c1.9-3.2,3.6-6.8,5.1-11c-0.1,0.1-0.2,0.1-0.2,0.1l-0.6-0.5c0.4-0.1,1-1.1,1.2-1.5
		c0.2-0.7,0.7-2,0-2.7c-0.4-0.4-0.4-0.9-1-0.9c-0.3,0-0.9,0.1-1.2,0.1c-1.1,0.4-1.7,1.1-1.7,1.7c0,0.2,0.3,1.5,0.5,1.7
		c0.7,0.7,1.6,0,2.4-0.8c0.3-0.3-0.3-0.6-0.4-0.6c-0.1-0.1-0.8-0.2-0.8-0.2s0.9-0.7,1.2-0.5c0.2,0.2,0.9,0.4,1,0.6
		c0.3,0.8-0.7,2.4-1.5,2.7c-0.9,0.3-2.2,0.4-2.8-0.4c-0.2-0.3-0.1-0.9-0.1-1.3c0-1-0.1-2.3,0.8-3c1.4-1.1,4.2-1.5,4.9,0
		c0.1,0.2,0.2,0.5,0.2,0.7c1.9-3.6,3.3-7.4,4.2-11.4c-0.3,0.4-0.7,0.7-1,1l-2.1,0.5c0.5-0.5,1.2-1.1,1.4-1.8c0.1-0.4,0.4-0.6,0.4-1
		c0-0.4-0.4-0.7-0.6-1c-0.1-0.1-0.3-0.4-0.4-0.5c-0.9-0.6-1.7,0.4-1.5,1.3c0.1,0.3,0.6,0.2,0.8,0c0-0.1,0.1-0.3,0.1-0.2
		c0,0.1,0,0.2-0.1,0.2c0,0,0,0,0,0c0,0.1-0.2,0.1-0.1,0.2c0.1,0.2-0.6,0.4-0.7,0.4c-0.2,0-1-0.3-1-0.6c0-0.2,0.2-0.4,0.2-0.6
		c0.1-0.8,0.8-1.6,1.4-2.2c0.2-0.1,0.4-0.4,0.6-0.5c0.9-0.4,1.3,0.3,1.9,0.9c0.1,0.1,0.5,0.5,0.5,0.6c0,0.1,0.1,0.2,0.2,0.3
		c0.2,0.4,0.3,0.9,0.5,1.3C419.3,410.1,419.2,410.4,419.2,410.5C419.2,410.5,419.2,410.5,419.2,410.5L419.2,410.5z"/>
	<path class="st6" d="M400.5,428.2c-1.1,0-2.5-0.1-3.4-0.7c-0.5-0.3-1-0.3-1.5-0.8c-0.3-0.4-0.3-1.2-0.3-1.8c0-0.3-0.1-0.8,0-1
		c0.5-1.6,2.5-1.2,3.1-0.1c0.3,0.6-1.2,1.1-1.3,0.7c0-0.1,0.4,0.1,0.4,0.2c0.1,0,0.3-0.1,0.3,0.1c0.1,0.3,1.1-0.2,1.2-0.3
		c0.2-0.2,0.9-1.4,0.5-1.8c-0.2-0.2-0.6-0.3-0.8-0.5c-0.9-0.9-2.6-1.1-3.8-1.1c-0.3,0-0.9-0.1-1.2,0c-1.4,0.5-1.2,1.8-1.2,3
		c0,0.3-0.1,1.1,0.1,1.2c0.1,0.1,0.1,0.4,0.1,0.6c0.2,0.7,0.6,1.3,0.8,2c0.1,0.2,0.5,0.4,0.5,0.6c0.4,1.3,2.3,1.3,3.5,1.3
		L400.5,428.2L400.5,428.2z"/>
	<path class="st6" d="M390,420.7c-0.7,0-1.6-0.1-2.2-0.4c-0.3-0.2-0.7-0.2-0.9-0.5c-0.2-0.3-0.2-0.8-0.2-1.1c0-0.2-0.1-0.5,0-0.7
		c0.3-1,1.6-0.8,2,0c0.2,0.4-0.7,0.7-0.9,0.4c0-0.1,0.2,0.1,0.3,0.1c0.1,0,0.2,0,0.2,0c0.1,0.2,0.7-0.1,0.8-0.2
		c0.2-0.1,0.6-0.9,0.3-1.1c-0.1-0.1-0.4-0.2-0.5-0.3c-0.6-0.6-1.6-0.7-2.4-0.7c-0.2,0-0.6-0.1-0.8,0c-0.9,0.3-0.8,1.1-0.8,1.9
		c0,0.2-0.1,0.7,0,0.8c0.1,0.1,0,0.3,0.1,0.4c0.1,0.4,0.4,0.9,0.5,1.3c0,0.1,0.3,0.3,0.3,0.4c0.3,0.8,1.5,0.8,2.3,0.8L390,420.7
		L390,420.7z"/>
	<path class="st6" d="M383,415.2c-0.5-0.5-1.2-1.1-1.4-1.8c-0.1-0.4-0.4-0.6-0.4-1c0-0.4,0.4-0.7,0.6-1c0.1-0.1,0.3-0.4,0.4-0.5
		c0.9-0.6,1.7,0.4,1.5,1.3c-0.1,0.4-1,0-0.9-0.2c0-0.1,0.1,0.2,0.1,0.3c0,0.1,0.2,0.1,0.1,0.2c-0.1,0.2,0.6,0.4,0.7,0.4
		c0.2,0,1-0.3,1-0.6c0-0.2-0.2-0.4-0.2-0.6c-0.1-0.8-0.8-1.6-1.4-2.2c-0.2-0.1-0.4-0.4-0.6-0.5c-0.9-0.4-1.4,0.3-1.9,0.9
		c-0.1,0.1-0.5,0.5-0.5,0.6c0,0.1-0.1,0.2-0.2,0.3c-0.2,0.4-0.3,0.9-0.5,1.3c-0.1,0.1,0.1,0.4,0,0.5c-0.3,0.8,0.6,1.6,1.2,2.1
		L383,415.2L383,415.2z"/>
	<path class="st6" d="M419,411.6c-0.3,0.4-0.7,0.7-1,1l-2.1,0.5c0.5-0.5,1.2-1.1,1.4-1.8c0.1-0.4,0.4-0.6,0.4-1c0-0.4-0.4-0.7-0.6-1
		c-0.1-0.1-0.3-0.4-0.4-0.5c-0.9-0.6-1.7,0.4-1.5,1.3c0.1,0.3,0.6,0.2,0.8,0c0,0,0,0,0,0c0,0.1-0.2,0.1-0.1,0.2
		c0.1,0.2-0.6,0.4-0.7,0.4c-0.2,0-1-0.3-1-0.6c0-0.2,0.2-0.4,0.2-0.6c0.1-0.8,0.8-1.6,1.4-2.2c0.2-0.1,0.4-0.4,0.6-0.5
		c0.9-0.4,1.3,0.3,1.9,0.9c0.1,0.1,0.5,0.5,0.5,0.6c0,0.1,0.1,0.2,0.2,0.3c0.2,0.4,0.3,0.9,0.5,1.3c0.1,0.1-0.1,0.4,0,0.5
		c0,0,0,0,0,0.1C419.2,410.9,419.1,411.3,419,411.6L419,411.6z"/>
	<path class="st6" d="M415.9,410.1c0.1-0.1,0.1-0.2,0.1-0.2C416,409.8,416,410,415.9,410.1z"/>
	<path class="st6" d="M404.7,427.8c3.1,0,3.2-4.3,1.4-6.1c-0.4-0.4-1.7-0.5-2.1-0.1c-0.2,0.2-0.4,0.4-0.5,0.7c0,0.1,0,0.4,0,0.3
		c0-0.5-0.1-1.3,0.2-1.7c0.2-0.2,0.7-0.2,0.9-0.3c0.2-0.1,0.7,0,0.9,0c2.3,0,2.4,2.4,3.1,3.8c0.1,0.2,0.2,1.3,0.1,1.6
		c-0.4,0.8-0.7,1.4-1.5,1.8H404.7L404.7,427.8z"/>
	<path class="st6" d="M400.9,438.5c3.9-2.4,2.1-5.7-1-5.7c-0.6,0-2.4,0.9-2.7,1.5c-0.1,0.3-0.3,0.7-0.4,0.9c0,0.1,0.2,0.3,0.2,0.3
		c-0.2-0.4-0.8-0.9-0.5-1.4c0.1-0.3,0.8-0.7,1-1c0.2-0.2,0.9-0.6,1.2-0.7c3-1.8,4.1,0,5.7,0.6c0.3,0.1,0.9,0.9,0.8,1.2
		c-0.1,0.9-0.3,1.7-1.1,2.5L400.9,438.5z"/>
	<path class="st6" d="M400.7,435.1c-2.2,2.3-4.2,0.6-3.7-1.6c0.1-0.4,1-1.5,1.4-1.6c0.2-0.1,0.5-0.1,0.7-0.1c0.1,0,0.2,0.2,0.1,0.1
		c-0.2-0.2-0.5-0.7-0.9-0.6c-0.2,0.1-0.6,0.4-0.8,0.6c-0.2,0.1-0.5,0.5-0.7,0.7c-1.7,1.7-0.6,2.8-0.5,3.9c0,0.2,0.5,0.7,0.7,0.7
		c0.7,0,1.2,0.1,1.9-0.3L400.7,435.1L400.7,435.1z"/>
	<path class="st6" d="M407.5,438.3c0-0.1-0.2-0.3-0.2-0.2C407.4,438.2,407.5,438.2,407.5,438.3z"/>
	<path class="st6" d="M406.7,440.6c-0.3,0.2-0.8,0.4-1,0.6c-3,1.8-4.1,0-5.7-0.6c-0.3-0.1-0.9-0.9-0.8-1.2c0.1-0.9,0.3-1.7,1.1-2.5
		l3-1.8c0,0,0,0,0,0c-3.7,2.4-1.9,5.6,1.2,5.6c0.6,0,2.4-0.9,2.7-1.5c0.1-0.3,0.3-0.7,0.4-0.9c0,0,0,0,0,0c0.1,0.1,0.2,0.3,0.3,0.4
		C407.4,439.4,407,440,406.7,440.6L406.7,440.6z"/>
	<path class="st6" d="M398.1,422.1c2.1-2.3-0.9-5.3-3.5-5.2c-0.5,0-1.5,0.9-1.5,1.4c0,0.3,0,0.6,0.1,0.9c0,0.1,0.3,0.3,0.2,0.2
		c-0.4-0.3-1.1-0.8-1.1-1.3c0-0.3,0.3-0.7,0.4-0.9c0.1-0.2,0.5-0.5,0.6-0.7c1.6-1.7,3.4-0.1,4.9,0.4c0.3,0.1,1.1,0.8,1.2,1.1
		c0.3,0.9,0.5,1.5,0.3,2.3L398.1,422.1z"/>
	<path class="st6" d="M402.4,418c2.7,1.6,4.4-1.1,3.5-3.2c-0.2-0.4-1.3-1.2-1.7-1.1c-0.2,0-0.5,0.1-0.7,0.2c-0.1,0-0.2,0.3-0.1,0.2
		c0.2-0.3,0.4-0.9,0.8-1c0.2,0,0.7,0.2,0.9,0.3c0.2,0,0.6,0.4,0.8,0.5c2,1.2,1.1,2.7,1.2,4c0,0.2-0.3,1-0.6,1.1
		c-0.7,0.3-1.2,0.5-2,0.4L402.4,418z"/>
	<path class="st6" d="M412.9,427.7c-0.1,0.1-0.2,0.1-0.2,0.1l-0.6-0.5c0.4-0.1,1-1.1,1.2-1.5c0.2-0.7,0.7-2,0-2.7
		c-0.4-0.4-0.4-0.9-1-0.9c-0.3,0-0.9,0.1-1.2,0.1c-1.1,0.4-1.7,1.1-1.7,1.7c0,0.2,0.3,1.5,0.5,1.7c0.7,0.7,1.6,0,2.4-0.8
		c0.3-0.3-0.3-0.6-0.4-0.6c-0.1-0.1-0.8-0.2-0.8-0.2s0.9-0.7,1.2-0.5c0.2,0.2,0.9,0.4,1,0.6c0.3,0.8-0.7,2.4-1.5,2.7
		c-0.9,0.3-2.2,0.4-2.8-0.4c-0.2-0.3-0.1-0.9-0.1-1.3c0-1-0.1-2.3,0.8-3c1.4-1.1,4.2-1.5,4.9,0c0.1,0.2,0.2,0.5,0.2,0.7
		c-0.3,0.6-0.6,1.2-1,1.7C413.5,425.8,413.2,426.8,412.9,427.7L412.9,427.7z"/>
	<path class="st6" d="M403.2,435.1c-0.4-0.4-0.6-0.9-0.5-1.4c0.1-0.4,0.5-0.7,0.8-1c0.7-0.7,1.6-1.6,2.8-1.5c1.8,0.2,4,2,3.4,3.5
		c-0.4,1.2-2.8,2.3-3.8,2.4c-0.3,0.1-1.3,0.2-1.6,0v-0.8c0.4,0.2,1.5,0,1.9-0.2c0.7-0.3,1.9-0.9,2-1.9c0-0.5,0.3-0.9-0.1-1.3
		c-0.2-0.2-0.7-0.6-0.9-0.8c-1-0.5-2-0.4-2.4,0c-0.2,0.2-0.9,1.2-0.9,1.5c0,1,1.1,1.2,2.2,1.2c0.4,0,0.2-0.6,0.2-0.7
		c0-0.2-0.5-0.7-0.5-0.7s1.2,0.2,1.2,0.5c0,0.2,0.3,0.9,0.2,1.2c-0.4,0.7-2.2,1.2-2.9,0.8C404,435.8,403.5,435.5,403.2,435.1
		c0.1,0,0.1-0.1,0.2-0.1L403.2,435.1L403.2,435.1z"/>
	<path class="st6" d="M403.2,435.1C403.2,435.1,403.2,435.1,403.2,435.1l0.2-0.1C403.3,435,403.3,435.1,403.2,435.1L403.2,435.1z"/>
	<path class="st6" d="M409.9,417.8c0.3,0.3,1.5,0.4,1.9,0.3c0.7-0.1,2.1-0.4,2.4-1.4c0.1-0.5,0.5-0.8,0.2-1.3
		c-0.1-0.2-0.5-0.8-0.7-1c-0.8-0.7-1.8-0.9-2.4-0.6c-0.2,0.1-1.1,1-1.2,1.3c-0.2,0.9,0.8,1.4,1.9,1.7c0.3,0.1,0.3-0.5,0.4-0.6
		c0.1-0.2-0.3-0.8-0.3-0.8s1.1,0.4,1,0.8c-0.1,0.2,0.1,1-0.1,1.2c-0.5,0.6-2.4,0.6-3,0.1c-0.7-0.6-1.5-1.7-1-2.6
		c0.2-0.4,0.7-0.6,1-0.7c0.9-0.5,1.9-1.2,3-0.8c1.7,0.7,3.4,2.9,2.5,4.3c-0.7,1.1-3.3,1.5-4.2,1.5c-0.3,0-1.3-0.1-1.5-0.4
		L409.9,417.8z"/>
</g>
</svg>
