<?xml version="1.0" encoding="UTF-8" standalone="no"?><!DOCTYPE svg PUBLIC "-//W3C//DTD SVG 1.1//EN" "http://www.w3.org/Graphics/SVG/1.1/DTD/svg11.dtd"><svg width="100%" height="100%" viewBox="0 0 341 531" version="1.1" xmlns="http://www.w3.org/2000/svg" xmlns:xlink="http://www.w3.org/1999/xlink" xml:space="preserve" xmlns:serif="http://www.serif.com/" style="fill-rule:evenodd;clip-rule:evenodd;stroke-linejoin:round;stroke-miterlimit:2;"><rect id="Artboard2" x="0" y="0" width="340.157" height="530.894" style="fill:none;"/><clipPath id="_clip1"><rect x="0" y="0" width="340.157" height="530.894"/></clipPath><g clip-path="url(#_clip1)"><path d="M170.079,79.988l-61.671,260.169l111.834,0l-50.163,-260.169Z" style="fill:#54ff3a;"/><rect x="-0" y="334.297" width="340.157" height="196.596"/><g><path d="M147.247,304.934c-0.212,0.076 -0.322,0.159 -0.424,0.318c-0.265,0.416 -0.473,0.458 -1.101,0.227c-0.352,-0.132 -0.769,-0.178 -0.981,-0.106c-0.219,0.072 -0.261,0.17 -0.31,0.776c-0.064,0.765 -0.068,0.768 -0.833,1.321c-0.181,0.129 -0.257,0.216 -0.34,0.39c-0.106,0.216 -0.11,0.234 -0.129,1.014c-0.015,0.56 -0.034,0.822 -0.068,0.882c-0.087,0.148 -0.946,1.253 -1.28,1.635c-0.401,0.466 -0.685,0.712 -1.158,0.999c-0.518,0.311 -0.549,0.368 -0.492,0.852c0.027,0.205 0.034,0.515 0.019,0.715c-0.038,0.58 0.064,0.712 0.67,0.89c0.178,0.053 0.451,0.144 0.606,0.208c0.155,0.061 0.374,0.133 0.488,0.159c0.284,0.068 0.836,0.03 1.101,-0.072c0.315,-0.121 0.485,-0.106 0.807,0.068c0.352,0.193 0.81,0.326 1.457,0.417c0.946,0.14 1.457,0.17 1.942,0.117c0.526,-0.053 0.545,-0.045 0.738,0.257c0.075,0.118 0.299,0.409 0.495,0.644c0.561,0.681 0.652,0.916 0.731,1.919c0.045,0.613 0.163,1.472 0.269,1.987c0.314,1.541 0.851,2.373 1.536,2.385c0.246,-0 0.72,0.117 0.947,0.227c0.378,0.185 0.571,0.435 0.946,1.211c1.147,2.362 1.135,2.343 1.427,2.63c0.193,0.194 0.352,0.311 0.564,0.413c0.424,0.208 0.431,0.223 0.458,1.037c0.038,1.139 0.095,2.055 0.155,2.426c0.034,0.193 0.136,0.587 0.235,0.871c0.212,0.636 0.25,1.071 0.147,1.711c-0.106,0.655 -0.503,2.407 -0.662,2.922c-0.182,0.583 -0.28,0.761 -0.564,1.007c-0.117,0.102 -0.322,0.28 -0.454,0.393c-0.288,0.243 -0.526,0.526 -0.602,0.704c-0.049,0.118 -0.049,0.137 0.019,0.227c0.11,0.148 0.337,0.193 1.079,0.22c0.367,0.011 0.67,0.03 0.67,0.034c-0,0.008 -0.103,0.17 -0.228,0.36c-0.238,0.363 -0.28,0.458 -0.257,0.605c0.027,0.186 0.136,0.201 1.454,0.201l1.211,0.004l0.223,-0.114c0.553,-0.28 0.727,-0.908 0.439,-1.548c-0.159,-0.345 -0.182,-0.538 -0.098,-0.719c0.06,-0.129 0.219,-0.288 0.284,-0.288c0.019,0 0.022,0.099 0.011,0.22c-0.023,0.249 0.034,0.348 0.208,0.348c0.201,-0 0.462,-0.269 0.462,-0.477c-0,-0.034 -0.068,-0.204 -0.151,-0.371c-0.212,-0.431 -0.258,-0.655 -0.322,-1.518c-0.072,-0.954 -0.072,-1.336 -0,-2.07c0.06,-0.64 0.034,-0.541 0.674,-2.566c0.219,-0.697 0.545,-1.779 0.726,-2.404c0.379,-1.306 0.678,-2.305 0.731,-2.441c0.075,-0.186 0.272,-0.413 0.45,-0.519c0.155,-0.091 0.224,-0.106 0.47,-0.106c0.264,0 0.302,0.012 0.518,0.144c0.375,0.231 0.738,0.397 1.094,0.5c0.307,0.09 2.214,0.435 3.554,0.643c1.756,0.273 2.873,0.197 4.054,-0.269c0.235,-0.09 0.462,-0.166 0.503,-0.166c0.152,-0 0.292,0.113 0.473,0.375c0.205,0.306 0.322,0.416 0.72,0.685c0.613,0.416 0.738,0.601 0.738,1.135c-0,0.352 0.045,0.469 0.212,0.53c0.185,0.072 0.204,0.03 0.204,-0.469c-0,-0.557 0.015,-0.629 0.136,-0.629l0.091,0l0,0.572c0,0.314 0.015,0.602 0.038,0.64c0.042,0.079 0.193,0.124 0.322,0.09l0.094,-0.022l0,-0.485c0,-0.265 0.012,-0.537 0.023,-0.602c0.034,-0.162 0.159,-0.246 0.291,-0.196c0.175,0.068 0.216,0.212 0.216,0.768c0,0.613 0.023,0.674 0.284,0.738c0.303,0.076 0.299,0.087 0.273,-0.545c-0.012,-0.322 -0.004,-0.598 0.019,-0.651c0.034,-0.098 0.174,-0.269 0.219,-0.269c0.011,0 0.023,0.307 0.023,0.685c-0.004,0.674 -0.004,0.685 0.087,0.757c0.049,0.038 0.11,0.072 0.14,0.072c0.129,0 0.272,-0.507 0.306,-1.078c0.012,-0.231 0.046,-0.462 0.072,-0.519c0.031,-0.057 0.167,-0.189 0.307,-0.295c0.314,-0.231 0.564,-0.538 0.863,-1.053c0.125,-0.211 0.238,-0.386 0.25,-0.386c0.011,0 0.041,0.148 0.064,0.33c0.034,0.265 0.034,0.401 -0.011,0.708c-0.068,0.48 -0.171,1.835 -0.171,2.236c0,0.186 0.05,0.553 0.118,0.928c0.11,0.564 0.121,0.696 0.121,1.343c-0,0.523 -0.023,0.905 -0.083,1.401c-0.05,0.375 -0.103,0.818 -0.122,0.984c-0.083,0.719 -0.287,1.067 -1.169,2.002c-0.379,0.402 -0.458,0.504 -0.447,0.587c0.023,0.182 0.14,0.204 1.166,0.208c0.814,0.004 0.946,-0.004 1.079,-0.064c0.31,-0.14 0.42,-0.333 0.469,-0.81c0.065,-0.628 0.17,-0.844 0.409,-0.844c0.136,-0 0.333,-0.095 0.405,-0.193c0.083,-0.121 0.076,-0.303 -0.03,-0.617c-0.084,-0.25 -0.091,-0.341 -0.114,-1.404c-0.03,-1.355 0.019,-2.722 0.148,-4.164c0.113,-1.294 0.113,-1.382 0.015,-1.771c-0.144,-0.549 -0.106,-0.795 0.144,-0.962c0.079,-0.053 0.087,-0.045 0.178,0.133c0.053,0.102 0.162,0.386 0.246,0.628c0.083,0.242 0.212,0.575 0.283,0.742c0.19,0.424 0.379,1.022 0.496,1.533c0.11,0.488 0.174,0.67 0.394,1.109c0.371,0.738 0.352,0.647 0.375,1.892c0.022,1.624 -0.072,2.71 -0.322,3.566c-0.098,0.344 -0.579,1.393 -0.784,1.714c-0.268,0.424 -0.268,0.629 0.004,0.708c0.216,0.061 1.688,0.095 1.953,0.046c0.614,-0.118 0.788,-0.439 0.598,-1.109c-0.098,-0.352 -0.106,-0.761 -0.019,-0.833c0.038,-0.034 0.159,-0.053 0.311,-0.053c0.367,-0 0.375,-0.03 0.091,-0.594c-0.447,-0.886 -0.481,-1.246 -0.447,-4.402c0.015,-1.208 0.045,-2.324 0.064,-2.479c0.023,-0.156 0.084,-0.447 0.137,-0.644c0.056,-0.201 0.098,-0.465 0.098,-0.598c0.004,-0.223 -0.015,-0.269 -0.31,-0.844c-0.572,-1.109 -0.674,-1.514 -0.727,-2.911c-0.076,-1.9 -0.008,-3.891 0.174,-5.166c0.223,-1.533 0.696,-3.577 0.829,-3.577c0.038,-0 0.223,0.378 0.344,0.711c0.205,0.561 0.386,1.208 0.508,1.821c0.219,1.079 0.238,1.34 0.272,3.543c0.027,1.934 0.046,2.256 0.148,2.964c0.197,1.328 0.651,2.592 1.241,3.47c0.447,0.659 0.799,1.019 1.658,1.685c0.246,0.193 0.375,0.359 0.432,0.571c0.022,0.076 0.053,0.409 0.071,0.735c0.019,0.325 0.042,0.598 0.05,0.609c0.038,0.034 0.227,-0.45 0.318,-0.81c0.238,-0.931 0.132,-1.972 -0.288,-2.827c-0.265,-0.545 -0.481,-0.81 -1.382,-1.704c-1.029,-1.025 -1.302,-1.427 -1.533,-2.256c-0.162,-0.601 -0.189,-0.934 -0.227,-2.751c-0.045,-2.283 -0.102,-3.006 -0.329,-4.02c-0.132,-0.598 -0.299,-1.09 -0.628,-1.862c-0.337,-0.784 -0.504,-1.246 -0.579,-1.601c-0.163,-0.78 -0.553,-1.128 -2.192,-1.942c-1.067,-0.534 -1.105,-0.545 -1.59,-0.568c-0.367,-0.011 -0.495,0 -1.082,0.121c-0.931,0.186 -1.291,0.227 -1.87,0.197c-0.723,-0.03 -0.946,-0.068 -3.179,-0.53c-0.958,-0.197 -1.132,-0.212 -2.101,-0.204c-0.78,0.007 -0.942,-0 -1.325,-0.072c-0.651,-0.125 -0.942,-0.155 -2.063,-0.22c-1.309,-0.075 -1.491,-0.094 -3.236,-0.34c-0.802,-0.114 -1.858,-0.258 -2.347,-0.322c-0.488,-0.064 -1.62,-0.216 -2.517,-0.341c-2.18,-0.299 -2.649,-0.352 -3.141,-0.352c-0.496,-0.003 -0.681,0.034 -1.454,0.28c-0.878,0.284 -1.037,0.315 -1.707,0.311c-0.526,-0 -0.62,-0.012 -0.927,-0.102c-0.318,-0.095 -0.848,-0.349 -0.958,-0.455c-0.034,-0.034 0.069,-0.026 0.36,0.023c0.753,0.133 1.064,0.049 1.495,-0.393c0.575,-0.591 1.052,-1.541 1.052,-2.101c0,-0.341 -0.397,-0.576 -1.025,-0.61c-0.621,-0.03 -1.019,0.133 -2.222,0.913c-0.613,0.397 -0.685,0.408 -1.162,0.159c-0.708,-0.375 -0.954,-0.568 -1.174,-0.932c-0.162,-0.268 -0.514,-0.601 -0.768,-0.73c-0.22,-0.11 -0.602,-0.212 -0.802,-0.208c-0.072,-0 -0.197,0.022 -0.273,0.049Z" style="fill-rule:nonzero;"/></g><g><ellipse cx="170.079" cy="85.212" rx="141.732" ry="56.693"/><path d="M169.962,28.828l0.023,-0c0.128,-0 0.255,0 0.382,0c22.969,0.029 44.407,2.679 62.542,7.241l-28.081,2.028c-10.137,-2.507 -22.082,-3.954 -34.866,-3.954c-12.783,-0 -24.728,1.447 -34.865,3.954l-28.046,-2.026c18.232,-4.587 39.803,-7.241 62.911,-7.243Z" style="fill:#161616;"/><path d="M292.063,77.405l-50.161,-15.238c0,-0.026 0.001,-0.052 0.001,-0.078c-0,-9.196 -12.134,-17.267 -30.34,-21.789l27.15,-1.934c32.049,8.097 53.354,22.392 53.354,38.662c-0,0.126 -0.002,0.252 -0.004,0.377Z" style="fill:#161616;"/><path d="M47.84,77.43c-0.002,-0.123 -0.003,-0.247 -0.003,-0.37c-0,-16.264 21.255,-30.558 53.25,-38.675l27.254,1.915c-18.179,4.534 -30.286,12.605 -30.286,21.797c0,0.026 0,0.053 0.001,0.079l-50.216,15.254Z" style="fill:#161616;"/><path d="M233.587,120.312l-24.566,-32.563c19.504,-4.411 32.687,-12.781 32.709,-22.374l50.346,15.252c-0.262,17.028 -23.785,31.867 -58.489,39.685Z" style="fill:#161616;"/><path d="M106.352,120.317c-34.71,-7.826 -58.231,-22.674 -58.482,-39.711l50.328,-15.246c0.023,9.598 13.213,17.972 32.727,22.386l-24.573,32.571Z" style="fill:#161616;"/><path d="M112.383,122.094l25.196,-33.397c9.569,2.165 20.622,3.4 32.389,3.4c11.813,0 22.904,-1.245 32.498,-3.424l25.287,33.386c-17.064,3.861 -36.774,6.066 -57.762,6.066c-20.924,-0 -40.579,-2.191 -57.608,-6.031Z" style="fill:#161616;"/><path d="M127.592,65.828c-0.083,-1.087 -0.126,-2.185 -0.126,-3.294c0,-23.467 19.052,-42.519 42.52,-42.519c23.467,-0 42.519,19.052 42.519,42.519c0,1.159 -0.046,2.307 -0.137,3.442c-11.808,8.8 -26.445,14.012 -42.289,14.012c-15.933,-0 -30.645,-5.27 -42.487,-14.16Z" style="fill:#54ff3a;"/></g></g></svg>