<?xml version="1.0" encoding="utf-8"?>
<!-- Generator: Adobe Illustrator 26.0.1, SVG Export Plug-In . SVG Version: 6.00 Build 0)  -->
<svg version="1.1" xmlns="http://www.w3.org/2000/svg" xmlns:xlink="http://www.w3.org/1999/xlink" x="0px" y="0px"
	 viewBox="0 0 1080 463.5" style="enable-background:new 0 0 1080 463.5;" xml:space="preserve">
<style type="text/css">
	.st0{fill-rule:evenodd;clip-rule:evenodd;}
	.st1{fill-rule:evenodd;clip-rule:evenodd;fill:#161616;}
	.st2{fill-rule:evenodd;clip-rule:evenodd;fill:#54FF3A;}
</style>
<g id="basebaixo">
	<ellipse class="st0" cx="539" cy="247.9" rx="539" ry="215.6"/>
</g>
<g id="basecima" xmlns:serif="http://www.serif.com/">
	<path class="st1" d="M538.5,33.5L538.5,33.5c0.6,0,1.1,0,1.5,0c87.3,0.1,168.9,10.2,237.8,27.5l-106.8,7.7
		c-38.5-9.5-84-15-132.6-15c-48.6,0-94,5.5-132.6,15l-106.6-7.7C368.6,43.6,450.7,33.5,538.5,33.5L538.5,33.5z"/>
	<path class="st1" d="M1002.9,218.2l-190.7-57.9c0-0.1,0-0.2,0-0.3c0-35-46.1-65.7-115.4-82.9L800,69.8
		c121.9,30.8,202.9,85.2,202.9,147C1002.9,217.3,1002.9,217.8,1002.9,218.2z"/>
	<path class="st1" d="M74.1,218.3c0-0.5,0-0.9,0-1.4c0-61.8,80.8-116.2,202.5-147.1l103.6,7.3c-69.1,17.2-115.2,47.9-115.2,82.9
		c0,0.1,0,0.2,0,0.3L74.1,218.3L74.1,218.3z"/>
	<path class="st1" d="M780.5,381.4l-93.4-123.8c74.2-16.8,124.3-48.6,124.4-85.1l191.5,58C1001.9,295.3,912.5,351.7,780.5,381.4
		L780.5,381.4z"/>
	<path class="st1" d="M296.6,381.4c-132-29.8-221.4-86.2-222.4-151l191.4-58c0.1,36.5,50.2,68.3,124.5,85.1L296.6,381.4z"/>
	<path class="st1" d="M319.6,388.2l95.8-127c36.4,8.2,78.4,12.9,123.2,12.9c44.9,0,87.1-4.7,123.6-13l96.2,127
		c-64.9,14.7-139.8,23.1-219.7,23.1C459.1,411.1,384.3,402.8,319.6,388.2L319.6,388.2z"/>
</g>
<g id="esfera">
	<path class="st2" d="M377.4,174.2c-0.3-4.1-0.5-8.3-0.5-12.5C376.9,72.5,449.4,0,538.6,0c89.2,0,161.7,72.5,161.7,161.7
		c0,4.4-0.2,8.8-0.5,13.1c-44.9,33.5-100.6,53.3-160.8,53.3C478.4,228.1,422.4,208,377.4,174.2L377.4,174.2z"/>
</g>
</svg>
