<?xml version="1.0" standalone="no"?>
<!DOCTYPE svg PUBLIC "-//W3C//DTD SVG 20010904//EN"
 "http://www.w3.org/TR/2001/REC-SVG-20010904/DTD/svg10.dtd">
<svg version="1.0" xmlns="http://www.w3.org/2000/svg"
 width="1280.000000pt" height="932.000000pt" viewBox="0 0 1280.000000 932.000000"
 preserveAspectRatio="xMidYMid meet">
<metadata>
Created by potrace 1.15, written by Peter Selinger 2001-2017
</metadata>
<g transform="translate(0.000000,932.000000) scale(0.100000,-0.100000)"
fill="#000000" stroke="none">
<path d="M1888 9306 c-56 -20 -85 -42 -112 -84 -70 -110 -125 -121 -291 -60
-93 35 -203 47 -259 28 -58 -19 -69 -45 -82 -205 -17 -202 -18 -203 -220 -349
-48 -34 -68 -57 -90 -103 -28 -57 -29 -62 -34 -268 -4 -148 -9 -217 -18 -233
-23 -39 -250 -331 -338 -432 -106 -123 -181 -188 -306 -264 -137 -82 -145 -97
-130 -225 7 -54 9 -136 5 -189 -10 -153 17 -188 177 -235 47 -14 119 -38 160
-55 41 -16 99 -35 129 -42 75 -18 221 -8 291 19 83 32 128 28 213 -18 93 -51
214 -86 385 -110 250 -37 385 -45 513 -31 139 14 144 12 195 -68 20 -31 79
-108 131 -170 148 -180 172 -242 193 -507 12 -162 43 -389 71 -525 83 -407
225 -627 406 -630 65 0 190 -31 250 -60 100 -49 151 -115 250 -320 303 -624
300 -619 377 -695 51 -51 93 -82 149 -109 112 -55 114 -59 121 -274 10 -301
25 -543 41 -641 9 -51 36 -155 62 -230 56 -168 66 -283 39 -452 -28 -173 -133
-636 -175 -772 -48 -154 -74 -201 -149 -266 -31 -27 -85 -74 -120 -104 -76
-64 -139 -139 -159 -186 -13 -31 -13 -36 5 -60 29 -39 89 -51 285 -58 97 -3
177 -8 177 -9 0 -2 -27 -45 -60 -95 -63 -96 -74 -121 -68 -160 7 -49 36 -53
384 -53 l320 -1 59 30 c146 74 192 240 116 409 -42 91 -48 142 -26 190 16 34
58 76 75 76 5 0 6 -26 3 -58 -6 -66 9 -92 55 -92 53 0 122 71 122 126 0 9 -18
54 -40 98 -56 114 -68 173 -85 401 -19 252 -19 353 0 547 16 169 9 143 178
678 58 184 144 470 192 635 100 345 179 609 193 645 20 49 72 109 119 137 41
24 59 28 124 28 70 0 80 -3 137 -38 99 -61 195 -105 289 -132 81 -24 585 -115
939 -170 464 -72 759 -52 1071 71 62 24 122 44 133 44 40 0 77 -30 125 -99 54
-81 85 -110 190 -181 162 -110 195 -159 195 -300 0 -93 12 -124 56 -140 49
-19 54 -8 54 124 0 147 4 166 36 166 l24 0 0 -151 c0 -83 4 -159 10 -169 11
-21 51 -33 85 -24 l25 6 0 128 c0 70 3 142 6 159 9 43 42 65 77 52 46 -18 57
-56 57 -203 0 -162 6 -178 75 -195 80 -20 79 -23 72 144 -3 85 -1 158 5 172 9
26 46 71 58 71 3 0 6 -81 6 -181 -1 -178 -1 -181 23 -200 13 -10 29 -19 37
-19 34 0 72 134 81 285 3 61 12 122 19 137 8 15 44 50 81 78 83 61 149 142
228 278 33 56 63 102 66 102 3 0 11 -39 17 -87 9 -70 9 -106 -3 -187 -18 -127
-45 -485 -45 -591 0 -49 13 -146 31 -245 29 -149 32 -184 32 -355 0 -138 -6
-239 -22 -370 -13 -99 -27 -216 -32 -260 -22 -190 -76 -282 -309 -529 -100
-106 -121 -133 -118 -155 6 -48 37 -54 308 -55 215 -1 250 1 285 17 82 37 111
88 124 214 17 166 45 223 108 223 36 0 88 25 107 51 22 32 20 80 -8 163 -22
66 -24 90 -30 371 -8 358 5 719 39 1100 30 342 30 365 4 468 -38 145 -28 210
38 254 21 14 23 12 47 -35 14 -27 43 -102 65 -166 22 -64 56 -152 75 -196 50
-112 100 -270 131 -405 29 -129 46 -177 104 -293 98 -195 93 -171 99 -500 6
-429 -19 -716 -85 -942 -26 -91 -153 -368 -207 -453 -71 -112 -71 -166 1 -187
57 -16 446 -25 516 -12 162 31 208 116 158 293 -26 93 -28 201 -5 220 10 9 42
14 82 14 97 0 99 8 24 157 -118 234 -127 329 -118 1163 4 319 12 614 17 655 6
41 22 118 36 170 15 53 26 123 26 158 1 59 -4 71 -82 223 -151 293 -178 400
-192 769 -20 502 -2 1028 46 1365 59 405 184 945 219 945 10 0 59 -100 91
-188 54 -148 102 -319 134 -481 58 -285 63 -354 72 -936 7 -511 12 -596 39
-783 52 -351 172 -685 328 -917 118 -174 211 -269 438 -445 65 -51 99 -95 114
-151 6 -20 14 -108 19 -194 5 -86 11 -158 13 -161 10 -9 60 119 84 214 63 246
35 521 -76 747 -70 144 -127 214 -365 450 -272 271 -344 377 -405 596 -43 159
-50 247 -60 727 -12 603 -27 794 -87 1062 -35 158 -79 288 -166 492 -89 207
-133 329 -153 423 -43 206 -146 298 -579 513 -282 141 -292 144 -420 150 -97
3 -131 0 -286 -32 -246 -49 -341 -60 -494 -52 -191 8 -250 18 -840 140 -253
52 -299 56 -555 54 -206 -2 -249 0 -350 19 -172 33 -249 41 -545 58 -346 20
-394 25 -855 90 -212 30 -491 68 -620 85 -129 17 -428 57 -665 90 -576 79
-700 93 -830 93 -131 1 -180 -9 -384 -74 -232 -75 -274 -83 -451 -82 -139 0
-164 3 -245 27 -84 25 -224 92 -253 120 -9 9 18 7 95 -6 199 -35 281 -13 395
104 152 156 278 407 278 555 0 90 -105 152 -271 161 -164 8 -269 -35 -587
-241 -162 -105 -181 -108 -307 -42 -187 99 -252 150 -310 246 -43 71 -136 159
-203 193 -58 29 -159 56 -212 55 -19 0 -52 -6 -72 -13z"/>
</g>
</svg>
