<?xml version="1.0" encoding="UTF-8" standalone="no"?><!DOCTYPE svg PUBLIC "-//W3C//DTD SVG 1.1//EN" "http://www.w3.org/Graphics/SVG/1.1/DTD/svg11.dtd"><svg width="100%" height="100%" viewBox="0 0 2405 2405" version="1.1" xmlns="http://www.w3.org/2000/svg" xmlns:xlink="http://www.w3.org/1999/xlink" xml:space="preserve" xmlns:serif="http://www.serif.com/" style="fill-rule:evenodd;clip-rule:evenodd;stroke-linejoin:round;stroke-miterlimit:2;"><g><circle cx="1202.39" cy="1202.39" r="1202.39"/><circle cx="1202.39" cy="1202.39" r="1133.86" style="fill:#fff;"/><path d="M1823.33,1052.69l-1187.87,716.628l716.628,-1187.87c6.229,-19.074 16.167,-35.902 30.011,-49.746c78.224,-78.224 251.731,-31.733 387.22,103.755c135.488,135.489 181.979,308.996 103.755,387.22c-13.844,13.844 -30.672,23.782 -49.746,30.011Z" style="fill-opacity:0.75;"/><path d="M1769.32,635.46c135.488,135.489 181.979,308.996 103.755,387.22c-78.224,78.224 -251.732,31.733 -387.22,-103.755c-135.488,-135.488 -181.979,-308.996 -103.755,-387.22c78.224,-78.224 251.731,-31.733 387.22,103.755Z" style="fill-opacity:0.75;"/></g></svg>