<?xml version="1.0" encoding="UTF-8" standalone="no"?><!DOCTYPE svg PUBLIC "-//W3C//DTD SVG 1.1//EN" "http://www.w3.org/Graphics/SVG/1.1/DTD/svg11.dtd"><svg width="100%" height="100%" viewBox="0 0 2405 2405" version="1.1" xmlns="http://www.w3.org/2000/svg" xmlns:xlink="http://www.w3.org/1999/xlink" xml:space="preserve" xmlns:serif="http://www.serif.com/" style="fill-rule:evenodd;clip-rule:evenodd;stroke-linejoin:round;stroke-miterlimit:2;"><g><circle cx="1202.39" cy="1202.39" r="1202.39" style="fill:#fff;"/><circle cx="1202.39" cy="1202.39" r="1133.86"/><path d="M2052.78,1202.94c-0.297,469.093 -381.232,849.844 -850.394,849.844c-469.345,0 -850.393,-381.049 -850.393,-850.394c-0,-469.345 381.048,-850.393 850.393,-850.393c469.345,-0 850.394,381.048 850.394,850.393c0,-313.022 -254.032,-567.157 -566.929,-567.157c-312.897,-0 -566.929,254.135 -566.929,567.157c-0,313.023 254.032,567.158 566.929,567.158c233.84,0 434.803,-141.938 521.427,-344.319c29.231,-68.257 45.442,-143.396 45.502,-222.289Z" style="fill:#fff;fill-opacity:0.75;"/><path d="M2052.78,1202.39c0,391.121 -317.54,708.662 -708.661,708.662c-391.121,-0 -708.662,-317.541 -708.662,-708.662c0,-391.12 317.541,-708.661 708.662,-708.661c391.121,-0 708.661,317.541 708.661,708.661Zm0,0c0,-312.896 -254.032,-566.929 -566.929,-566.929c-312.897,0 -566.929,254.033 -566.929,566.929c-0,312.897 254.032,566.93 566.929,566.93c312.897,-0 566.929,-254.033 566.929,-566.93Z" style="fill:#fff;fill-opacity:0.75;"/></g></svg>